G04 #@! TF.FileFunction,Paste,Top*
%FSLAX46Y46*%
G04 Gerber Fmt 4.6, Leading zero omitted, Abs format (unit mm)*
G04 Created by KiCad (PCBNEW 4.0.1-stable) date 12/11/2016 23:12:02*
%MOMM*%
G01*
G04 APERTURE LIST*
%ADD10C,0.100000*%
%ADD11R,0.360000X0.760000*%
%ADD12R,0.460000X1.360000*%
%ADD13R,0.560000X0.860000*%
%ADD14R,0.660000X0.610000*%
%ADD15R,0.760000X0.360000*%
%ADD16R,0.610000X0.660000*%
%ADD17R,0.657560X0.657560*%
%ADD18R,0.310000X0.450000*%
%ADD19R,0.510000X0.920000*%
%ADD20R,8.750000X10.528000*%
%ADD21R,2.146000X1.638000*%
%ADD22R,0.860000X0.110000*%
%ADD23R,0.110000X0.860000*%
%ADD24R,2.060000X1.060000*%
%ADD25R,2.060000X3.360000*%
%ADD26R,2.400000X1.130000*%
%ADD27R,0.960000X0.520000*%
G04 APERTURE END LIST*
D10*
D11*
X116828000Y49871800D03*
X115328000Y49871800D03*
D12*
X112058200Y65471000D03*
X113328200Y65471000D03*
X114598200Y65471000D03*
X115868200Y65471000D03*
X117138200Y65471000D03*
X118408200Y65471000D03*
X119678200Y65471000D03*
X120948200Y65471000D03*
X120948200Y70871000D03*
X119678200Y70871000D03*
X118408200Y70871000D03*
X117138200Y70871000D03*
X115868200Y70871000D03*
X114598200Y70871000D03*
X113328200Y70871000D03*
X112058200Y70871000D03*
D13*
X30564000Y69271000D03*
X32464000Y69271000D03*
X31514000Y71671000D03*
D12*
X53959000Y73671000D03*
X52689000Y73671000D03*
X51419000Y73671000D03*
X50149000Y73671000D03*
X48879000Y73671000D03*
X47609000Y73671000D03*
X46339000Y73671000D03*
X45069000Y73671000D03*
X45069000Y68271000D03*
X46339000Y68271000D03*
X47609000Y68271000D03*
X48879000Y68271000D03*
X50149000Y68271000D03*
X51419000Y68271000D03*
X52689000Y68271000D03*
X53959000Y68271000D03*
D14*
X20264000Y71971000D03*
X18764000Y71971000D03*
D15*
X34514000Y32821000D03*
X34514000Y31321000D03*
D16*
X30814000Y33471000D03*
X30814000Y31971000D03*
X32514000Y33471000D03*
X32514000Y31971000D03*
D14*
X45478000Y65569000D03*
X46978000Y65569000D03*
D16*
X137210800Y35940600D03*
X137210800Y34440600D03*
X85014000Y76221000D03*
X85014000Y74721000D03*
X135839200Y62051800D03*
X135839200Y60551800D03*
D14*
X173240000Y20611000D03*
X174740000Y20611000D03*
X114653200Y74971000D03*
X113153200Y74971000D03*
X172454000Y33311000D03*
X170954000Y33311000D03*
X180074000Y33311000D03*
X178574000Y33311000D03*
X181920000Y61151000D03*
X183420000Y61151000D03*
D16*
X23494000Y39691000D03*
X23494000Y41191000D03*
X23514000Y29721000D03*
X23514000Y31221000D03*
X34514000Y70221000D03*
X34514000Y71721000D03*
D17*
X43114000Y11921700D03*
X43114000Y13420300D03*
D18*
X38100000Y26160000D03*
X38100000Y28270000D03*
D11*
X66664000Y35471000D03*
X68164000Y35471000D03*
X66714000Y37571000D03*
X68214000Y37571000D03*
X66714000Y33171000D03*
X68214000Y33171000D03*
X66714000Y31321000D03*
X68214000Y31321000D03*
D15*
X12514000Y15471000D03*
X12514000Y13971000D03*
X22865080Y14294720D03*
X22865080Y12794720D03*
D11*
X41664000Y41471000D03*
X40164000Y41471000D03*
D15*
X43114000Y16671000D03*
X43114000Y15171000D03*
D11*
X33064000Y57371000D03*
X31564000Y57371000D03*
D15*
X45466000Y19099000D03*
X45466000Y20599000D03*
D11*
X90259600Y44944200D03*
X88759600Y44944200D03*
X80530000Y50837000D03*
X82030000Y50837000D03*
X168503600Y39661000D03*
X167003600Y39661000D03*
X163174000Y57251000D03*
X161674000Y57251000D03*
D15*
X186029600Y38301400D03*
X186029600Y39801400D03*
D11*
X51664000Y16871000D03*
X53164000Y16871000D03*
X51664000Y19371000D03*
X53164000Y19371000D03*
D12*
X112551800Y23264600D03*
X113821800Y23264600D03*
X115091800Y23264600D03*
X116361800Y23264600D03*
X117631800Y23264600D03*
X118901800Y23264600D03*
X120171800Y23264600D03*
X121441800Y23264600D03*
X121441800Y28664600D03*
X120171800Y28664600D03*
X118901800Y28664600D03*
X117631800Y28664600D03*
X116361800Y28664600D03*
X115091800Y28664600D03*
X113821800Y28664600D03*
X112551800Y28664600D03*
X170815000Y25023000D03*
X172085000Y25023000D03*
X173355000Y25023000D03*
X174625000Y25023000D03*
X175895000Y25023000D03*
X177165000Y25023000D03*
X178435000Y25023000D03*
X179705000Y25023000D03*
X179705000Y30423000D03*
X178435000Y30423000D03*
X177165000Y30423000D03*
X175895000Y30423000D03*
X174625000Y30423000D03*
X173355000Y30423000D03*
X172085000Y30423000D03*
X170815000Y30423000D03*
D19*
X110149600Y38510200D03*
X111099600Y38510200D03*
X112049600Y38510200D03*
X112049600Y40710200D03*
X110149600Y40710200D03*
D20*
X9849800Y31815000D03*
D21*
X18612800Y31815000D03*
X18612800Y29275000D03*
X18612800Y34355000D03*
D12*
X183559000Y69693000D03*
X182289000Y69693000D03*
X181019000Y69693000D03*
X179749000Y69693000D03*
X178479000Y69693000D03*
X177209000Y69693000D03*
X175939000Y69693000D03*
X174669000Y69693000D03*
X174669000Y64293000D03*
X175939000Y64293000D03*
X177209000Y64293000D03*
X178479000Y64293000D03*
X179749000Y64293000D03*
X181019000Y64293000D03*
X182289000Y64293000D03*
X183559000Y64293000D03*
D19*
X174664000Y34371000D03*
X175614000Y34371000D03*
X176564000Y34371000D03*
X176564000Y36571000D03*
X174664000Y36571000D03*
X159324000Y33481000D03*
X160274000Y33481000D03*
X161224000Y33481000D03*
X161224000Y35681000D03*
X159324000Y35681000D03*
D22*
X41798000Y37315000D03*
X41798000Y36815000D03*
X41798000Y36315000D03*
X41798000Y35815000D03*
X41798000Y35315000D03*
X41798000Y34815000D03*
X41798000Y34315000D03*
X41798000Y33815000D03*
X41798000Y33315000D03*
X41798000Y32815000D03*
X41798000Y32315000D03*
X41798000Y31815000D03*
X41798000Y31315000D03*
X41798000Y30815000D03*
X41798000Y30315000D03*
X41798000Y29815000D03*
D23*
X43748000Y27865000D03*
X44248000Y27865000D03*
X44748000Y27865000D03*
X45248000Y27865000D03*
X45748000Y27865000D03*
X46248000Y27865000D03*
X46748000Y27865000D03*
X47248000Y27865000D03*
X47748000Y27865000D03*
X48248000Y27865000D03*
X48748000Y27865000D03*
X49248000Y27865000D03*
X49748000Y27865000D03*
X50248000Y27865000D03*
X50748000Y27865000D03*
X51248000Y27865000D03*
D22*
X53198000Y29815000D03*
X53198000Y30315000D03*
X53198000Y30815000D03*
X53198000Y31315000D03*
X53198000Y31815000D03*
X53198000Y32315000D03*
X53198000Y32815000D03*
X53198000Y33315000D03*
X53198000Y33815000D03*
X53198000Y34315000D03*
X53198000Y34815000D03*
X53198000Y35315000D03*
X53198000Y35815000D03*
X53198000Y36315000D03*
X53198000Y36815000D03*
X53198000Y37315000D03*
D23*
X51248000Y39265000D03*
X50748000Y39265000D03*
X50248000Y39265000D03*
X49748000Y39265000D03*
X49248000Y39265000D03*
X48748000Y39265000D03*
X48248000Y39265000D03*
X47748000Y39265000D03*
X47248000Y39265000D03*
X46748000Y39265000D03*
X46248000Y39265000D03*
X45748000Y39265000D03*
X45248000Y39265000D03*
X44748000Y39265000D03*
X44248000Y39265000D03*
X43748000Y39265000D03*
D14*
X43192000Y24929000D03*
X44692000Y24929000D03*
X40132000Y39661000D03*
X41632000Y39661000D03*
X50564600Y23407600D03*
X52064600Y23407600D03*
D16*
X55976200Y38825400D03*
X55976200Y37325400D03*
D14*
X114746800Y20964600D03*
X116246800Y20964600D03*
X115953200Y63071000D03*
X114453200Y63071000D03*
X47264000Y76471000D03*
X48764000Y76471000D03*
D16*
X39992300Y14350600D03*
X39992300Y12850600D03*
X37673280Y14350600D03*
X37673280Y12850600D03*
D14*
X121005600Y32803000D03*
X119505600Y32803000D03*
D16*
X115011200Y33475400D03*
X115011200Y34975400D03*
X123240800Y70876200D03*
X123240800Y72376200D03*
D14*
X175062000Y61151000D03*
X176562000Y61151000D03*
X180564000Y73871000D03*
X179064000Y73871000D03*
D11*
X48864000Y57171000D03*
X50364000Y57171000D03*
D15*
X116433600Y40079400D03*
X116433600Y41579400D03*
X177614000Y54901000D03*
X177614000Y53401000D03*
D11*
X31614000Y35121000D03*
X33114000Y35121000D03*
D14*
X51714000Y65071000D03*
X53214000Y65071000D03*
D16*
X11634000Y50521000D03*
X11634000Y52021000D03*
D15*
X81814000Y63621000D03*
X81814000Y65121000D03*
X84114000Y63621000D03*
X84114000Y65121000D03*
D11*
X74664000Y29871000D03*
X73164000Y29871000D03*
X74664000Y32271000D03*
X73164000Y32271000D03*
D15*
X157714000Y64321000D03*
X157714000Y65821000D03*
X160114000Y64321000D03*
X160114000Y65821000D03*
D11*
X192274000Y43801000D03*
X193774000Y43801000D03*
X192364000Y50471000D03*
X193864000Y50471000D03*
D15*
X40814000Y71021000D03*
X40814000Y69521000D03*
X40814000Y72721000D03*
X40814000Y74221000D03*
D11*
X192164000Y54571000D03*
X193664000Y54571000D03*
X193664000Y56871000D03*
X192164000Y56871000D03*
D15*
X54114000Y43421000D03*
X54114000Y41921000D03*
X51814000Y43421000D03*
X51814000Y41921000D03*
D24*
X10114000Y56171000D03*
X10114000Y58471000D03*
X10114000Y60671000D03*
D25*
X3914000Y58471000D03*
D26*
X26540000Y11471000D03*
X34798000Y11471000D03*
X26540000Y15789000D03*
X34798000Y15789000D03*
D16*
X11614000Y46121000D03*
X11614000Y44621000D03*
D14*
X12364000Y40631000D03*
X13864000Y40631000D03*
D27*
X6214000Y40821000D03*
X6214000Y41771000D03*
X6214000Y42721000D03*
X8814000Y42721000D03*
X8814000Y40821000D03*
X6214000Y47721000D03*
X6214000Y48671000D03*
X6214000Y49621000D03*
X8814000Y49621000D03*
X8814000Y47721000D03*
M02*
