M48
;DRILL file {KiCad 4.0.1-stable} date 12/11/2016 23:12:25
;FORMAT={-:-/ absolute / metric / decimal}
FMAT,2
METRIC,TZ
T1C0.400
T2C0.500
T3C0.635
T4C0.762
T5C0.889
T6C1.000
T7C1.016
T8C1.200
%
G90
G05
M71
T1
X13.734Y50.381
X15.114Y29.371
X16.914Y61.711
X17.614Y27.271
X21.039Y45.159
X21.339Y31.815
X21.339Y28.371
X21.914Y48.011
X22.014Y27.471
X22.224Y46.681
X22.754Y49.691
X22.944Y45.731
X24.672Y20.096
X25.134Y40.511
X26.353Y18.446
X27.104Y43.691
X33.13Y27.821
X33.229Y25.621
X34.084Y47.551
X34.114Y24.671
X34.114Y37.471
X34.114Y29.471
X35.504Y42.841
X35.858Y33.967
X36.082Y34.787
X36.714Y31.121
X37.304Y45.211
X37.514Y18.171
X37.846Y33.311
X38.154Y44.391
X38.854Y17.341
X38.862Y33.311
X38.863Y37.371
X38.894Y21.491
X40.014Y16.571
X41.114Y24.771
X41.514Y13.771
X41.614Y68.171
X41.744Y47.581
X42.114Y22.971
X42.914Y78.971
X42.934Y47.551
X43.014Y65.471
X43.714Y66.471
X43.724Y35.781
X43.814Y33.071
X44.314Y29.471
X44.384Y48.251
X44.423Y38.021
X44.57Y40.511
X44.904Y36.211
X45.084Y48.921
X45.084Y41.251
X45.593Y22.135
X45.824Y49.621
X46.014Y33.771
X46.217Y29.444
X46.314Y66.871
X46.314Y57.171
X46.504Y41.971
X46.714Y37.071
X46.714Y20.771
X47.414Y21.571
X48.073Y41.071
X48.214Y47.971
X48.314Y49.171
X48.614Y66.371
X48.707Y30.459
X48.814Y72.071
X48.914Y37.971
X49.114Y31.271
X49.16Y28.958
X49.714Y62.171
X49.886Y40.422
X50.038Y65.01
X50.164Y17.121
X50.487Y18.286
X50.514Y21.371
X50.914Y71.771
X51.614Y31.971
X52.014Y22.171
X52.514Y62.971
X52.544Y49.821
X52.714Y66.871
X52.814Y38.871
X53.014Y44.671
X53.414Y18.321
X53.814Y57.771
X54.414Y27.971
X55.014Y59.971
X55.714Y27.971
X56.114Y40.226
X56.714Y30.371
X57.114Y33.67
X57.414Y58.571
X58.414Y56.461
X58.414Y35.471
X58.924Y33.361
X59.314Y74.971
X60.114Y28.571
X60.814Y38.171
X61.014Y59.471
X62.014Y29.671
X62.103Y23.151
X62.214Y36.071
X62.614Y55.648
X62.614Y37.171
X63.5Y23.786
X63.514Y62.171
X63.514Y18.238
X64.164Y38.571
X64.214Y34.921
X65.114Y30.171
X65.629Y27.035
X66.114Y73.171
X67.31Y22.135
X68.014Y69.471
X68.714Y12.371
X68.889Y29.321
X69.514Y37.571
X70.034Y12.731
X70.104Y22.262
X70.214Y33.421
X71.114Y73.271
X71.214Y13.438
X72.198Y38.526
X73.508Y76.288
X74.914Y61.271
X75.814Y36.671
X76.214Y64.171
X76.302Y42.709
X76.454Y21.881
X79.214Y62.671
X82.184Y18.321
X83.214Y19.271
X84.014Y20.271
X97.942Y44.944
X105.614Y39.671
X105.874Y41.201
X106.614Y18.971
X108.306Y56.425
X109.503Y58.671
X111.709Y54.799
X111.914Y35.471
X113.132Y54.799
X113.564Y41.121
X113.578Y73.21
X113.64Y33.616
X113.648Y49.677
X115.004Y36.321
X115.468Y72.986
X115.903Y61.771
X115.903Y58.871
X117.597Y24.565
X117.714Y17.971
X117.814Y20.771
X118.466Y37.426
X119.024Y49.923
X119.736Y72.376
X120.193Y31.076
X121.768Y30.314
X123.544Y56.021
X145.414Y24.871
X147.214Y67.871
X147.414Y47.971
X148.416Y17.296
X149.356Y29.715
X150.315Y13.426
X150.614Y59.671
X151.384Y64.553
X151.414Y14.071
X151.638Y60.997
X152.214Y14.716
X153.268Y46.131
X154.303Y14.882
X156.514Y35.271
X156.667Y37.477
X157.114Y38.971
X157.324Y13.401
X161.224Y38.036
X162.464Y21.071
X164.014Y22.671
X164.794Y57.291
X165.514Y23.771
X168.314Y35.271
X169.926Y66.077
X170.384Y38.035
X170.84Y20.713
X174.625Y22.596
X175.014Y33.071
X175.914Y23.471
X176.022Y62.521
X177.135Y57.145
X177.209Y62.876
X177.614Y72.571
X178.511Y31.889
X178.514Y35.271
X178.614Y71.871
X180.289Y62.572
X180.34Y35.394
X180.836Y39.293
X182.329Y72.856
X182.339Y62.349
X182.778Y31.889
X184.048Y62.724
X190.014Y55.771
X190.044Y45.501
X190.504Y50.421
X190.564Y43.631
X191.214Y23.471
X191.414Y21.771
X192.114Y24.971
X192.414Y21.571
X193.014Y62.571
X193.614Y60.571
X194.314Y63.571
X194.314Y22.371
X195.214Y54.571
X195.834Y49.059
X196.134Y45.531
T2
X17.014Y60.221
X17.514Y69.471
X20.514Y29.671
X135.259Y77.027
X135.514Y73.071
X136.914Y64.971
X137.284Y41.061
X154.483Y72.681
X173.533Y44.233
T3
X56.514Y73.771
X56.514Y71.371
X109.474Y67.245
X109.503Y64.451
X109.997Y25.465
X109.997Y23.465
X167.814Y26.971
X167.814Y24.771
X185.928Y69.887
X186.014Y67.171
T4
X19.644Y67.531
X24.644Y67.531
X28.764Y38.721
X28.764Y33.721
X127.356Y74.991
X127.356Y72.451
X127.356Y69.911
X127.356Y67.371
X127.356Y62.291
X127.356Y59.751
X166.492Y77.159
X166.492Y74.619
X166.492Y72.079
X166.492Y69.539
X166.492Y64.459
X166.492Y61.919
T5
X68.434Y73.201
X73.514Y73.201
X78.594Y73.201
X81.134Y73.201
X129.134Y46.976
X129.134Y41.896
X129.134Y36.816
X129.134Y34.276
T7
X2.159Y77.126
X2.159Y74.586
X2.159Y72.046
X2.159Y69.506
X7.361Y19.699
X7.411Y23.611
X9.901Y19.699
X9.951Y23.611
X12.441Y19.699
X12.491Y23.611
X14.981Y19.699
X15.031Y23.611
X17.521Y19.699
X17.571Y23.611
X17.764Y55.471
X17.764Y52.931
X17.764Y50.391
X17.764Y47.851
X17.764Y45.311
X20.061Y19.699
X20.111Y23.611
X27.94Y64.807
X28.514Y54.971
X37.592Y75.729
X37.592Y73.189
X37.592Y70.649
X38.674Y54.971
X44.854Y52.471
X46.624Y13.021
X49.164Y13.021
X55.014Y52.471
X73.914Y68.871
X73.914Y26.453
X75.354Y44.971
X76.014Y48.471
X78.232Y26.453
X78.994Y68.871
X80.772Y26.453
X81.534Y68.871
X83.312Y26.453
X84.074Y68.871
X85.514Y44.971
X86.174Y48.471
X105.514Y52.971
X106.354Y44.471
X111.434Y44.471
X115.674Y52.971
X116.514Y44.471
X155.194Y69.125
X157.734Y69.125
X158.354Y54.471
X158.354Y41.971
X160.274Y69.125
X163.434Y41.971
X168.514Y54.471
X168.514Y41.971
X173.99Y73.443
X174.244Y16.547
X175.854Y41.971
X176.014Y50.471
X180.934Y41.971
X186.014Y41.971
X186.174Y50.471
X198.374Y57.187
X198.374Y54.647
X198.374Y52.107
X198.374Y48.043
X198.374Y45.503
X198.374Y42.963
T8
X31.414Y76.071
X33.914Y76.071
T6
X7.014Y13.471G85X8.014Y13.471
G05
X14.994Y75.983G85X15.994Y75.983
G05
X17.514Y13.221G85X18.514Y13.221
G05
X23.414Y76.071G85X22.414Y76.071
G05
X150.264Y76.221G85X151.264Y76.221
G05
X158.264Y75.971G85X159.264Y75.971
G05
T0
M30
