G04 #@! TF.FileFunction,Copper,L2,Bot,Signal*
%FSLAX46Y46*%
G04 Gerber Fmt 4.6, Leading zero omitted, Abs format (unit mm)*
G04 Created by KiCad (PCBNEW 4.0.1-stable) date 12/11/2016 23:12:02*
%MOMM*%
G01*
G04 APERTURE LIST*
%ADD10C,0.100000*%
%ADD11C,2.000000*%
%ADD12O,4.300000X3.000000*%
%ADD13R,1.727200X2.032000*%
%ADD14O,1.727200X2.032000*%
%ADD15R,2.032000X2.032000*%
%ADD16O,2.032000X2.032000*%
%ADD17C,1.143000*%
%ADD18R,2.235200X2.235200*%
%ADD19R,2.032000X1.727200*%
%ADD20O,2.032000X1.727200*%
%ADD21C,1.800000*%
%ADD22C,0.600000*%
%ADD23C,1.000000*%
%ADD24C,0.250000*%
%ADD25C,0.400000*%
G04 APERTURE END LIST*
D10*
D11*
X166492000Y61919000D03*
X166492000Y64459000D03*
X166492000Y69539000D03*
X166492000Y74619000D03*
X166492000Y72079000D03*
X166492000Y77159000D03*
X28764000Y38721000D03*
X28764000Y33721000D03*
X129133600Y34276200D03*
X129133600Y36816200D03*
X129133600Y41896200D03*
X129133600Y46976200D03*
D12*
X15494000Y75983000D03*
X158764000Y75971000D03*
D13*
X7360600Y19699200D03*
D14*
X9900600Y19699200D03*
X12440600Y19699200D03*
X14980600Y19699200D03*
X17520600Y19699200D03*
X20060600Y19699200D03*
D12*
X7514000Y13471000D03*
X18014000Y13221000D03*
D13*
X7411400Y23610800D03*
D14*
X9951400Y23610800D03*
X12491400Y23610800D03*
X15031400Y23610800D03*
X17571400Y23610800D03*
X20111400Y23610800D03*
D11*
X127355600Y59751000D03*
X127355600Y62291000D03*
X127355600Y67371000D03*
X127355600Y72451000D03*
X127355600Y69911000D03*
X127355600Y74991000D03*
D12*
X22914000Y76071000D03*
X150764000Y76221000D03*
D15*
X49164000Y13021000D03*
D16*
X46624000Y13021000D03*
D11*
X81134000Y73201000D03*
X78594000Y73201000D03*
X73514000Y73201000D03*
X68434000Y73201000D03*
D17*
X56514000Y71371000D03*
X56514000Y73771000D03*
D18*
X73914000Y68871000D03*
X73914000Y26453000D03*
D17*
X109474000Y67245400D03*
X109996800Y25464600D03*
X109503200Y64451400D03*
X109996800Y23464600D03*
D19*
X83312000Y26453000D03*
D20*
X80772000Y26453000D03*
X78232000Y26453000D03*
D19*
X78994000Y68871000D03*
D20*
X81534000Y68871000D03*
X84074000Y68871000D03*
D17*
X167814000Y26971000D03*
X167814000Y24771000D03*
D19*
X155194000Y69125000D03*
D20*
X157734000Y69125000D03*
X160274000Y69125000D03*
D17*
X186014000Y67171000D03*
X185928000Y69887000D03*
D19*
X37592000Y75729000D03*
D20*
X37592000Y73189000D03*
X37592000Y70649000D03*
D19*
X198374000Y42963000D03*
D20*
X198374000Y45503000D03*
X198374000Y48043000D03*
D18*
X174244000Y16547000D03*
D19*
X198374000Y52107000D03*
D20*
X198374000Y54647000D03*
X198374000Y57187000D03*
D18*
X173990000Y73443000D03*
X27940000Y64807000D03*
D21*
X31414000Y76071000D03*
X33914000Y76071000D03*
D14*
X55014000Y52471000D03*
X44854000Y52471000D03*
X28514000Y54971000D03*
X38674000Y54971000D03*
X76014000Y48471000D03*
X86174000Y48471000D03*
X85514000Y44971000D03*
X75354000Y44971000D03*
X105514000Y52971000D03*
X115674000Y52971000D03*
X116514000Y44471000D03*
X111434000Y44471000D03*
X106354000Y44471000D03*
X158354000Y54471000D03*
X168514000Y54471000D03*
X168514000Y41971000D03*
X163434000Y41971000D03*
X158354000Y41971000D03*
X176014000Y50471000D03*
X186174000Y50471000D03*
X186014000Y41971000D03*
X180934000Y41971000D03*
X175854000Y41971000D03*
D19*
X17764000Y55471000D03*
D20*
X17764000Y52931000D03*
X17764000Y50391000D03*
X17764000Y47851000D03*
X17764000Y45311000D03*
D11*
X19644000Y67531000D03*
X24644000Y67531000D03*
D19*
X2159000Y77126000D03*
D20*
X2159000Y74586000D03*
X2159000Y72046000D03*
X2159000Y69506000D03*
D22*
X76454000Y21881000D03*
X153267501Y46131000D03*
X70034000Y12731000D03*
X190044000Y45501000D03*
X123544000Y56021000D03*
X52814000Y38871000D03*
X51614000Y31971000D03*
X73507600Y76287798D03*
X162464000Y21071000D03*
X21038979Y45158747D03*
X55014000Y59971000D03*
X61014000Y59471000D03*
X48707160Y30459030D03*
X84014000Y20271000D03*
X192114000Y24971000D03*
X48914000Y37971000D03*
X182328810Y72856190D03*
X170840400Y20712600D03*
X21338978Y31815000D03*
X21338978Y28371000D03*
X177614000Y72571000D03*
X50914000Y71770994D03*
X52014000Y22171000D03*
X60814000Y38171000D03*
X115004000Y36321000D03*
D23*
X135514000Y73071000D03*
X154482800Y72681000D03*
D22*
X48614000Y66371000D03*
X156514000Y35271000D03*
X168314000Y35271000D03*
X178514000Y35271000D03*
X50038002Y65010200D03*
X49714000Y62171000D03*
X63514000Y62171000D03*
X66114000Y73171000D03*
X68014000Y69471000D03*
X71114000Y73271000D03*
X38863039Y37370999D03*
X40014000Y16571000D03*
X38894000Y21491000D03*
X38854000Y17341000D03*
X35858181Y33966896D03*
X121767600Y30313800D03*
X76301600Y42709000D03*
X113131600Y54799400D03*
X115468400Y72985800D03*
X169926000Y66077000D03*
X177209000Y62875659D03*
X45084000Y48921000D03*
X45084002Y41251000D03*
X22754000Y49691000D03*
X44384000Y48251000D03*
X44570021Y40510618D03*
X21914000Y48011002D03*
X27104000Y43691000D03*
X26352584Y18445980D03*
X44904000Y36211000D03*
X42114000Y22971000D03*
X22944000Y45731000D03*
X48214000Y47971000D03*
X48072980Y41071000D03*
X24671780Y20095970D03*
X33130036Y27821020D03*
X33229236Y25620972D03*
X34114000Y29471000D03*
X34113998Y24671000D03*
X22224000Y46681000D03*
X48314000Y49171000D03*
X49885917Y40422461D03*
X22013998Y27471000D03*
X17614000Y27271000D03*
X70104000Y22262000D03*
X157324000Y13401000D03*
X69514000Y37571000D03*
X190014000Y55771000D03*
X71214000Y13437696D03*
X150314729Y13425980D03*
X74914000Y61271000D03*
X70213999Y33420999D03*
X67310002Y22135000D03*
X190504000Y50421000D03*
X190564000Y43631000D03*
X68888980Y29321000D03*
X68714000Y12371000D03*
X35504000Y42841000D03*
X37513996Y18171000D03*
X46314000Y66871001D03*
X46314000Y57171000D03*
X52514000Y62971000D03*
X52714000Y66871000D03*
X65114000Y30171000D03*
X49114000Y31270986D03*
X56714000Y30371000D03*
X45593000Y22135000D03*
X97942400Y44944200D03*
X120192800Y31075800D03*
X111709200Y54799400D03*
X113577547Y73210091D03*
X111914000Y35471000D03*
X113639600Y33615800D03*
X119735600Y72376200D03*
X119024400Y49922600D03*
X164794000Y57291000D03*
X176022000Y62521000D03*
X182778400Y31888600D03*
X178511200Y31888600D03*
X50486597Y18286208D03*
X151384002Y64553000D03*
X151638000Y60997000D03*
X177134676Y57144503D03*
X182339352Y62349179D03*
X148416175Y17295980D03*
X53414000Y18321000D03*
X60114006Y28571000D03*
X58924000Y33361000D03*
X43724000Y35781000D03*
X52544000Y49821000D03*
X42934000Y47551000D03*
X56114000Y40225980D03*
X72198341Y38525980D03*
X191214000Y23471000D03*
X165514000Y23771000D03*
X175914000Y23471000D03*
X117596800Y24564600D03*
X53814000Y57771000D03*
X178614000Y71871000D03*
X48814000Y72071000D03*
X57114000Y33669980D03*
X109503200Y58671000D03*
X57414000Y58571000D03*
X75814000Y36671000D03*
X64164000Y38571000D03*
X64214000Y34921000D03*
X58414000Y35471000D03*
X108305600Y56425000D03*
X58414000Y56461180D03*
X55714000Y27971000D03*
X145414000Y24871000D03*
X106614000Y18971000D03*
X46014000Y33771000D03*
X62103000Y23151000D03*
X192414000Y21571000D03*
X193614000Y60571000D03*
X62014000Y29671000D03*
X63500000Y23786000D03*
X82184000Y18321000D03*
X62214000Y36071000D03*
X63514000Y18238020D03*
X43814000Y33071000D03*
X191414000Y21771000D03*
X193014000Y62571000D03*
X151414000Y14071000D03*
X47414000Y21571006D03*
X149356152Y29714758D03*
X154303463Y14881537D03*
X152214000Y14716020D03*
X175014000Y33071000D03*
X50164000Y17121000D03*
X180289200Y62571800D03*
D23*
X173532800Y44233000D03*
D22*
X184048400Y62724200D03*
X25134000Y40511000D03*
X36081617Y34787016D03*
X36714000Y31121000D03*
D23*
X17014000Y60221000D03*
D22*
X53014000Y44671000D03*
X46216836Y29444064D03*
X83214000Y19271000D03*
X194314000Y22371000D03*
X194314000Y63571000D03*
X46714000Y37071000D03*
X44423020Y38021000D03*
X41114000Y24771000D03*
D23*
X20514000Y29671000D03*
D22*
X117714000Y17971000D03*
X117814000Y20771000D03*
X164014000Y22671000D03*
X174625000Y22595980D03*
X62614000Y55648380D03*
X115903200Y58871000D03*
X115903200Y61771000D03*
X59314000Y74971000D03*
X41514000Y13771000D03*
X15114000Y29371000D03*
X44314000Y29471000D03*
X50514000Y21371000D03*
X62614000Y37171000D03*
X38154000Y44391000D03*
X38862000Y33311000D03*
X41744000Y47581000D03*
X34084000Y47551000D03*
X41614000Y68171000D03*
X34114000Y37471000D03*
X113648151Y49677151D03*
X180836000Y39293000D03*
X79214000Y62671000D03*
X147414000Y47971000D03*
X147214000Y67871000D03*
X195834000Y49059000D03*
D23*
X17514000Y69471000D03*
D22*
X150614000Y59671000D03*
X46714000Y20771004D03*
X196134000Y45531000D03*
X195214000Y54571000D03*
X49159658Y28957834D03*
X54414000Y27971000D03*
X65629221Y27034715D03*
X76214000Y64171000D03*
X45824000Y49621000D03*
X46504000Y41971000D03*
D23*
X137284000Y41061000D03*
D22*
X105874000Y41201000D03*
X113564000Y41121000D03*
X37304000Y45211000D03*
X43014000Y65471000D03*
X105614000Y39671000D03*
D23*
X136914000Y64971000D03*
X135259151Y77026953D03*
D22*
X156667200Y37476600D03*
X118465600Y37425800D03*
X170384257Y38034965D03*
X180340000Y35393798D03*
X43714000Y66471000D03*
X42914000Y78971000D03*
X157114000Y38971000D03*
X161224000Y38036119D03*
X37846000Y33311000D03*
X16914000Y61711000D03*
X13734000Y50381000D03*
D24*
X76753999Y22180999D02*
X76454000Y21881000D01*
X78232000Y23659000D02*
X76753999Y22180999D01*
X78232000Y26453000D02*
X78232000Y23659000D01*
X189894000Y45541000D02*
X189894000Y19341000D01*
X189824000Y19341000D02*
X183214000Y12731000D01*
X183214000Y12731000D02*
X153233116Y12731000D01*
X83216799Y71568201D02*
X82899598Y71251000D01*
X82899598Y71251000D02*
X78064000Y71251000D01*
X78064000Y71251000D02*
X75794000Y73521000D01*
X75794000Y73521000D02*
X75794000Y74001398D01*
X75794000Y74001398D02*
X73507600Y76287798D01*
X153233116Y44289727D02*
X153233116Y46096615D01*
X153233116Y12731000D02*
X153233116Y44289727D01*
X153233116Y44289727D02*
X153233116Y63035407D01*
X153184313Y63084210D02*
X155346810Y63084210D01*
X153233116Y63035407D02*
X153184313Y63084210D01*
X153233116Y12731000D02*
X70034000Y12731000D01*
X153233116Y46096615D02*
X153267501Y46131000D01*
X190044000Y45501000D02*
X189894000Y45351000D01*
X121724000Y76581000D02*
X88229598Y76581000D01*
X88229598Y76581000D02*
X83216799Y71568201D01*
X123544000Y74761000D02*
X121724000Y76581000D01*
X123544000Y56021000D02*
X123544000Y74761000D01*
X155346810Y63084210D02*
X160274000Y68011400D01*
X84074000Y68871000D02*
X83921600Y68871000D01*
X83921600Y68871000D02*
X70714000Y55663400D01*
X78232000Y27566600D02*
X78232000Y26453000D01*
X70714000Y55663400D02*
X70714000Y36226632D01*
X70714000Y36226632D02*
X78232000Y28708632D01*
X78232000Y28708632D02*
X78232000Y27566600D01*
X52814000Y33171000D02*
X52814000Y38446736D01*
X52814000Y38446736D02*
X52814000Y38871000D01*
X51614000Y31971000D02*
X52814000Y33171000D01*
X198374000Y48043000D02*
X198221600Y48043000D01*
X84074000Y68871000D02*
X84074000Y70711000D01*
X84074000Y70711000D02*
X83216799Y71568201D01*
X160274000Y68011400D02*
X160274000Y69125000D01*
X162464000Y21071000D02*
X162517600Y21017400D01*
X162517600Y21017400D02*
X170535600Y21017400D01*
X170535600Y21017400D02*
X170840400Y20712600D01*
X21038979Y60646021D02*
X21038979Y45158747D01*
X21038979Y45158747D02*
X21038979Y32114999D01*
X50914000Y71770994D02*
X55514000Y67170994D01*
X55514000Y67170994D02*
X55514000Y60895264D01*
X55514000Y60895264D02*
X55014000Y60395264D01*
X55014000Y60395264D02*
X55014000Y59971000D01*
X60814000Y38171000D02*
X60814000Y59271000D01*
X60814000Y59271000D02*
X61014000Y59471000D01*
X6793800Y72041600D02*
X9643400Y72041600D01*
X9643400Y72041600D02*
X21038979Y60646021D01*
X21038979Y32114999D02*
X21338978Y31815000D01*
X48407161Y30759029D02*
X48707160Y30459030D01*
X48914000Y37971000D02*
X48407161Y37464161D01*
X48407161Y37464161D02*
X48407161Y30759029D01*
X52014000Y22171000D02*
X53914000Y20271000D01*
X83589736Y20271000D02*
X84014000Y20271000D01*
X53914000Y20271000D02*
X83589736Y20271000D01*
X192114000Y25395264D02*
X192114000Y24971000D01*
X192114000Y59278988D02*
X192114000Y25395264D01*
X192214000Y59378988D02*
X192114000Y59278988D01*
X177614000Y72571000D02*
X181255630Y72571000D01*
X181255630Y72571000D02*
X182043620Y72571000D01*
X188114000Y72571000D02*
X181255630Y72571000D01*
X192214000Y68471000D02*
X188114000Y72571000D01*
X192214000Y59378988D02*
X192214000Y59646738D01*
X192214000Y59378988D02*
X192214000Y68471000D01*
X192214000Y59646738D02*
X192214000Y60071002D01*
X21389001Y28845287D02*
X21389001Y31340713D01*
X21338978Y28795264D02*
X21389001Y28845287D01*
X21338978Y28371000D02*
X21338978Y28795264D01*
X21338978Y31390736D02*
X21338978Y31815000D01*
X21389001Y31340713D02*
X21338978Y31390736D01*
X182043620Y72571000D02*
X182328810Y72856190D01*
X6793800Y72041600D02*
X2628200Y72041600D01*
X2628200Y72041600D02*
X2552000Y72117800D01*
D25*
X85814000Y77881000D02*
X85440000Y77507000D01*
X85440000Y77507000D02*
X83536050Y75603050D01*
D24*
X48614000Y66371000D02*
X48614000Y68471000D01*
X44814000Y75971000D02*
X46294000Y77451000D01*
X48614000Y68471000D02*
X44814000Y72271000D01*
X44814000Y72271000D02*
X44814000Y75971000D01*
X46294000Y77451000D02*
X85384000Y77451000D01*
X85384000Y77451000D02*
X85440000Y77507000D01*
D25*
X135514000Y73071000D02*
X135014001Y73570999D01*
X135014001Y73570999D02*
X135014001Y75540999D01*
X135014001Y75540999D02*
X132674000Y77881000D01*
X132674000Y77881000D02*
X85814000Y77881000D01*
X83536050Y75603050D02*
X81134000Y73201000D01*
D24*
X115004000Y36321000D02*
X115760401Y36321000D01*
X115760401Y36321000D02*
X117805201Y34276200D01*
X117805201Y34276200D02*
X129133600Y34276200D01*
X81134000Y73711000D02*
X81134000Y73201000D01*
D25*
X135514000Y73071000D02*
X135444000Y73141000D01*
X135444000Y73141000D02*
X135444000Y73171000D01*
X135444000Y73171000D02*
X135314000Y73041000D01*
X135314000Y73041000D02*
X135314000Y62071000D01*
X135314000Y62071000D02*
X135314000Y60553770D01*
X81134000Y73741000D02*
X81134000Y73201000D01*
X135314000Y60553770D02*
X135314000Y40456600D01*
X127355600Y59751000D02*
X134511230Y59751000D01*
X134511230Y59751000D02*
X135314000Y60553770D01*
D24*
X81134000Y73201000D02*
X81134000Y73641000D01*
D25*
X135314000Y40456600D02*
X129133600Y34276200D01*
X158764000Y75971000D02*
X158764000Y74071000D01*
X158764000Y74071000D02*
X157374000Y72681000D01*
X157374000Y72681000D02*
X154482800Y72681000D01*
X154635200Y72528600D02*
X154482800Y72681000D01*
X166492000Y61919000D02*
X165466000Y61919000D01*
X165466000Y61919000D02*
X163114000Y64271000D01*
X163114000Y64271000D02*
X163114000Y71371000D01*
X163114000Y71371000D02*
X158764000Y75721000D01*
X158764000Y75721000D02*
X158764000Y75971000D01*
D24*
X168314000Y35271000D02*
X156514000Y35271000D01*
X178514000Y35271000D02*
X168314000Y35271000D01*
X158764000Y75171000D02*
X158764000Y75971000D01*
X49738003Y64710201D02*
X50038002Y65010200D01*
X49714000Y64686198D02*
X49738003Y64710201D01*
X49714000Y62171000D02*
X49714000Y64686198D01*
X66114000Y73171000D02*
X65689736Y73171000D01*
X65689736Y73171000D02*
X63514000Y70995264D01*
X63514000Y70995264D02*
X63514000Y62595264D01*
X63514000Y62595264D02*
X63514000Y62171000D01*
X68313999Y69770999D02*
X68014000Y69471000D01*
X71114000Y72571000D02*
X68313999Y69770999D01*
X71114000Y73271000D02*
X71114000Y72571000D01*
X40014000Y36220038D02*
X39163038Y37071000D01*
X39163038Y37071000D02*
X38863039Y37370999D01*
X40014000Y16571000D02*
X40014000Y36220038D01*
X38894000Y21491000D02*
X38814000Y21411000D01*
X38814000Y21411000D02*
X38814000Y17381000D01*
X38814000Y17381000D02*
X38854000Y17341000D01*
X38894000Y21491000D02*
X38894000Y21955172D01*
X38894000Y21955172D02*
X35858181Y24990991D01*
X35858181Y24990991D02*
X35858181Y33542632D01*
X35858181Y33542632D02*
X35858181Y33966896D01*
X76301600Y42709000D02*
X100405388Y42709000D01*
X100405388Y42709000D02*
X112800588Y30313800D01*
X112800588Y30313800D02*
X121343336Y30313800D01*
X121343336Y30313800D02*
X121767600Y30313800D01*
X115468400Y72985800D02*
X114046000Y71563400D01*
X114046000Y71563400D02*
X114046000Y55713800D01*
X114046000Y55713800D02*
X113431599Y55099399D01*
X113431599Y55099399D02*
X113131600Y54799400D01*
X166492000Y69539000D02*
X169926000Y66105000D01*
X169926000Y66105000D02*
X169926000Y66077000D01*
X177209000Y62875659D02*
X177209000Y63366000D01*
X177209000Y63366000D02*
X175768000Y64807000D01*
X175768000Y64807000D02*
X172678000Y64807000D01*
X166492000Y71893000D02*
X166492000Y72079000D01*
X172678000Y64807000D02*
X168314000Y69171000D01*
X168314000Y69171000D02*
X168314000Y70071000D01*
X168314000Y70071000D02*
X166492000Y71893000D01*
X45084000Y48921000D02*
X45294000Y48711000D01*
X45294000Y48711000D02*
X45294000Y41460998D01*
X45294000Y41460998D02*
X45084002Y41251000D01*
X22754000Y61313800D02*
X22754000Y50115264D01*
X6870000Y77197800D02*
X22754000Y61313800D01*
X2552000Y77197800D02*
X6870000Y77197800D01*
X22754000Y50115264D02*
X22754000Y49691000D01*
X44384000Y48251000D02*
X44322981Y48189981D01*
X44322981Y48189981D02*
X44322981Y40757658D01*
X44322981Y40757658D02*
X44570021Y40510618D01*
X21914000Y60727400D02*
X21914000Y48435266D01*
X21914000Y48435266D02*
X21914000Y48011002D01*
X7983600Y74657800D02*
X21914000Y60727400D01*
X2552000Y74657800D02*
X7983600Y74657800D01*
X27104000Y43691000D02*
X26734008Y43691000D01*
X26734008Y43691000D02*
X26352584Y43309576D01*
X26352584Y43309576D02*
X26352584Y18445980D01*
X44904000Y36211000D02*
X44904000Y35861000D01*
X44904000Y35861000D02*
X42614000Y33571000D01*
X42614000Y33571000D02*
X42614000Y23471000D01*
X42614000Y23471000D02*
X42114000Y22971000D01*
X22944000Y45731000D02*
X22707600Y45494600D01*
X22707600Y45494600D02*
X22707600Y22060150D01*
X22707600Y22060150D02*
X24671780Y20095970D01*
X48072980Y41071000D02*
X48072980Y47829980D01*
X48072980Y47829980D02*
X48214000Y47971000D01*
X33130036Y25720172D02*
X33229236Y25620972D01*
X33130036Y27821020D02*
X33130036Y25720172D01*
X34113998Y24671000D02*
X34113998Y29470998D01*
X34113998Y29470998D02*
X34114000Y29471000D01*
X22224000Y46681000D02*
X22013998Y46470998D01*
X22013998Y46470998D02*
X22013998Y27471000D01*
X48613999Y48871001D02*
X48314000Y49171000D01*
X49885917Y47599083D02*
X48613999Y48871001D01*
X49885917Y40422461D02*
X49885917Y47599083D01*
X17571400Y23610800D02*
X17571400Y27228400D01*
X17571400Y27228400D02*
X17614000Y27271000D01*
X70104000Y22686264D02*
X70104000Y22262000D01*
X69514000Y32745998D02*
X70104000Y32155998D01*
X69514000Y37571000D02*
X69514000Y32745998D01*
X70104000Y32155998D02*
X70104000Y22686264D01*
X157324000Y13401000D02*
X157354000Y13371000D01*
X157354000Y13371000D02*
X182634000Y13371000D01*
X182634000Y13371000D02*
X189368999Y20105999D01*
X189368999Y20105999D02*
X189368999Y55125999D01*
X189368999Y55125999D02*
X189714001Y55471001D01*
X189714001Y55471001D02*
X190014000Y55771000D01*
X150303013Y13437696D02*
X150314729Y13425980D01*
X71214000Y13437696D02*
X150303013Y13437696D01*
X74914000Y61271000D02*
X70159001Y56516001D01*
X70159001Y56516001D02*
X70159001Y33900261D01*
X70159001Y33900261D02*
X70213999Y33845263D01*
X70213999Y33845263D02*
X70213999Y33420999D01*
X67310002Y22559264D02*
X67310002Y22135000D01*
X67310002Y27742022D02*
X67310002Y22559264D01*
X68888980Y29321000D02*
X67310002Y27742022D01*
X190564000Y43631000D02*
X190484000Y43551000D01*
X190484000Y43551000D02*
X190484000Y17891000D01*
X190484000Y17891000D02*
X188914000Y16321000D01*
X188914000Y16321000D02*
X188914000Y16291000D01*
X188914000Y16291000D02*
X184554000Y11931000D01*
X184554000Y11931000D02*
X69154000Y11931000D01*
X69154000Y11931000D02*
X68714000Y12371000D01*
X190504000Y50421000D02*
X190724000Y50201000D01*
X190724000Y50201000D02*
X190724000Y43791000D01*
X190724000Y43791000D02*
X190564000Y43631000D01*
X35504000Y42841000D02*
X35384000Y42841000D01*
X35384000Y42841000D02*
X35056801Y42513801D01*
X35056801Y42513801D02*
X35056801Y20628195D01*
X35056801Y20628195D02*
X37513996Y18171000D01*
X46314000Y57171000D02*
X46314000Y66871001D01*
X52714000Y63171000D02*
X52514000Y62971000D01*
X52714000Y66871000D02*
X52714000Y63171000D01*
X65114000Y30595264D02*
X65114000Y30171000D01*
X64914001Y58503401D02*
X64914001Y30795263D01*
X73914000Y68871000D02*
X73914000Y67503400D01*
X64914001Y30795263D02*
X65114000Y30595264D01*
X73914000Y67503400D02*
X64914001Y58503401D01*
X49538264Y31270986D02*
X49114000Y31270986D01*
X55814014Y31270986D02*
X49538264Y31270986D01*
X56714000Y30371000D02*
X55814014Y31270986D01*
X45593000Y22135000D02*
X46990000Y23532000D01*
X46990000Y23532000D02*
X54483000Y23532000D01*
X54483000Y23532000D02*
X56769000Y21246000D01*
X56769000Y21246000D02*
X72771000Y21246000D01*
X72771000Y21246000D02*
X73914000Y22389000D01*
X73914000Y22389000D02*
X73914000Y25085400D01*
X73914000Y25085400D02*
X73914000Y26453000D01*
X120192800Y31075800D02*
X112703282Y31075800D01*
X112703282Y31075800D02*
X98834882Y44944200D01*
X98834882Y44944200D02*
X98366664Y44944200D01*
X98366664Y44944200D02*
X97942400Y44944200D01*
X113577547Y73210091D02*
X113385600Y73018144D01*
X113385600Y73018144D02*
X113385600Y56577400D01*
X113385600Y56577400D02*
X111709200Y54901000D01*
X111709200Y54901000D02*
X111709200Y54799400D01*
X111914000Y35341400D02*
X111914000Y35471000D01*
X113639600Y33615800D02*
X111914000Y35341400D01*
X119024400Y49922600D02*
X119735600Y50633800D01*
X119735600Y50633800D02*
X119735600Y71309400D01*
X119735600Y71309400D02*
X119735600Y72376200D01*
X164794000Y57291000D02*
X166468000Y58965000D01*
X166468000Y58965000D02*
X172466000Y58965000D01*
X172466000Y58965000D02*
X176022000Y62521000D01*
X178511200Y31888600D02*
X182778400Y31888600D01*
X151614000Y61021000D02*
X151614000Y16009799D01*
X151614000Y16009799D02*
X150875213Y15271012D01*
X150875213Y15271012D02*
X53501793Y15271012D01*
X53501793Y15271012D02*
X50786596Y17986209D01*
X50786596Y17986209D02*
X50486597Y18286208D01*
X173990000Y73443000D02*
X173990000Y74810600D01*
X173990000Y74810600D02*
X170023600Y78777000D01*
X151384000Y72071400D02*
X151384000Y70356941D01*
X170023600Y78777000D02*
X156108400Y78777000D01*
X151384000Y70356941D02*
X151384000Y69257377D01*
X156108400Y78777000D02*
X154432000Y77100600D01*
X154432000Y77100600D02*
X154432000Y75119400D01*
X154432000Y75119400D02*
X151384000Y72071400D01*
X151384000Y69257377D02*
X151384000Y69125000D01*
X151384000Y69257377D02*
X151384002Y69257375D01*
X151384002Y69257375D02*
X151384002Y64553000D01*
X177134676Y57144503D02*
X182039353Y62049180D01*
X182039353Y62049180D02*
X182339352Y62349179D01*
X147991911Y17295980D02*
X148416175Y17295980D01*
X53414000Y18321000D02*
X54426000Y17309000D01*
X117390018Y17295980D02*
X147991911Y17295980D01*
X117376998Y17309000D02*
X117390018Y17295980D01*
X54426000Y17309000D02*
X117376998Y17309000D01*
X60114000Y30298133D02*
X60114006Y30298127D01*
X60114006Y30298127D02*
X60114006Y28995264D01*
X60114006Y28995264D02*
X60114006Y28571000D01*
X60114000Y70171000D02*
X60114000Y30298133D01*
X56514000Y73771000D02*
X60114000Y70171000D01*
X58924000Y33361000D02*
X59517256Y33954256D01*
X59517256Y33954256D02*
X59517256Y68367744D01*
X59517256Y68367744D02*
X56514000Y71371000D01*
X43724000Y35781000D02*
X42814000Y36691000D01*
X42814000Y36691000D02*
X42814000Y47431000D01*
X42814000Y47431000D02*
X42934000Y47551000D01*
X52544000Y49821000D02*
X51524000Y50841000D01*
X51524000Y50841000D02*
X51524000Y56608565D01*
X51524000Y56608565D02*
X53214000Y58298565D01*
X52544000Y49821000D02*
X53164000Y49821000D01*
X53164000Y49821000D02*
X56114000Y46871000D01*
X56114000Y46871000D02*
X56114000Y40650244D01*
X56114000Y40650244D02*
X56114000Y40225980D01*
X48814000Y72071000D02*
X49214000Y72071000D01*
X49214000Y72071000D02*
X54514000Y66771000D01*
X54514000Y66771000D02*
X54514000Y61471000D01*
X54514000Y61471000D02*
X53214000Y60171000D01*
X53214000Y60171000D02*
X53214000Y58298565D01*
X117596800Y24564600D02*
X116420400Y24564600D01*
X116420400Y24564600D02*
X102459020Y38525980D01*
X102459020Y38525980D02*
X72622605Y38525980D01*
X72622605Y38525980D02*
X72198341Y38525980D01*
X191214000Y31288152D02*
X191214000Y26302614D01*
X191214000Y26302614D02*
X191214000Y26171000D01*
X191214000Y23471000D02*
X191214000Y26302614D01*
X178614000Y71871000D02*
X187514000Y71871000D01*
X187514000Y71871000D02*
X191214000Y68171000D01*
X191214000Y68171000D02*
X191214000Y55587946D01*
X175714000Y23271000D02*
X166014000Y23271000D01*
X175914000Y23471000D02*
X175714000Y23271000D01*
X166014000Y23271000D02*
X165514000Y23771000D01*
X191214000Y31288152D02*
X191214000Y31071000D01*
X191214000Y55587946D02*
X191214000Y31288152D01*
X53214000Y58298565D02*
X53286435Y58298565D01*
X53286435Y58298565D02*
X53514001Y58070999D01*
X53514001Y58070999D02*
X53814000Y57771000D01*
X191214000Y55771000D02*
X191214000Y55587946D01*
X57413999Y33969979D02*
X57114000Y33669980D01*
X57414000Y58571000D02*
X57413999Y33969979D01*
X109474000Y64451400D02*
X109503200Y64422200D01*
X109503200Y64422200D02*
X109503200Y58871000D01*
X109503200Y58871000D02*
X109503200Y58671000D01*
X109996800Y25464600D02*
X109996800Y26272823D01*
X109996800Y26272823D02*
X110014000Y26290023D01*
X110014000Y26290023D02*
X110014000Y29971000D01*
X110014000Y29971000D02*
X103314000Y36671000D01*
X103314000Y36671000D02*
X75814000Y36671000D01*
X64214000Y38521000D02*
X64164000Y38571000D01*
X64214000Y34921000D02*
X64214000Y38521000D01*
X58206987Y35563987D02*
X58299974Y35471000D01*
X58299974Y35471000D02*
X58414000Y35471000D01*
X58414000Y56461180D02*
X58414000Y35471000D01*
X108305600Y56425000D02*
X108305600Y66889800D01*
X108305600Y66889800D02*
X108661200Y67245400D01*
X108661200Y67245400D02*
X109474000Y67245400D01*
X46014000Y33771000D02*
X46838413Y32946587D01*
X46838413Y32946587D02*
X46838413Y31146587D01*
X46838413Y31146587D02*
X48268999Y29716001D01*
X48268999Y29716001D02*
X53968999Y29716001D01*
X53968999Y29716001D02*
X55414001Y28270999D01*
X55414001Y28270999D02*
X55714000Y27971000D01*
X106614000Y18971000D02*
X106714000Y18971000D01*
X106714000Y18971000D02*
X109314000Y21571000D01*
X109314000Y21571000D02*
X128014000Y21571000D01*
X128014000Y21571000D02*
X131314000Y24871000D01*
X131314000Y24871000D02*
X145414000Y24871000D01*
X62014000Y29671000D02*
X62014000Y23240000D01*
X62014000Y23240000D02*
X62103000Y23151000D01*
X193614000Y60571000D02*
X193614000Y22771000D01*
X193614000Y22771000D02*
X192713999Y21870999D01*
X192713999Y21870999D02*
X192414000Y21571000D01*
X63500000Y24210264D02*
X63500000Y23786000D01*
X63500000Y28335294D02*
X63500000Y24210264D01*
X63630696Y28465990D02*
X63500000Y28335294D01*
X82184000Y18321000D02*
X82134000Y18271000D01*
X82134000Y18271000D02*
X63546980Y18271000D01*
X63546980Y18271000D02*
X63514000Y18238020D01*
X62513999Y35771001D02*
X62214000Y36071000D01*
X63313999Y34971001D02*
X62513999Y35771001D01*
X63630696Y28465990D02*
X63313999Y28782687D01*
X63313999Y28782687D02*
X63313999Y34971001D01*
X63630696Y28087696D02*
X63630696Y28465990D01*
X43514001Y22744568D02*
X43514001Y32771001D01*
X52175853Y14082716D02*
X43514001Y22744568D01*
X150082830Y14071000D02*
X150071114Y14082716D01*
X43514001Y32771001D02*
X43814000Y33071000D01*
X150071114Y14082716D02*
X52175853Y14082716D01*
X151414000Y14071000D02*
X150082830Y14071000D01*
X191713999Y22070999D02*
X191414000Y21771000D01*
X192943990Y62076726D02*
X192943990Y23300990D01*
X193014000Y62146736D02*
X192943990Y62076726D01*
X193014000Y62571000D02*
X193014000Y62146736D01*
X192943990Y23300990D02*
X191713999Y22070999D01*
X48778688Y21571006D02*
X47838264Y21571006D01*
X53802694Y16547000D02*
X48778688Y21571006D01*
X149356152Y17202995D02*
X148700157Y16547000D01*
X149356152Y29714758D02*
X149356152Y17202995D01*
X148700157Y16547000D02*
X53802694Y16547000D01*
X47838264Y21571006D02*
X47414000Y21571006D01*
X175014000Y33071000D02*
X170194000Y33071000D01*
X170194000Y33071000D02*
X154603462Y17480462D01*
X154603462Y17480462D02*
X154603462Y15181536D01*
X154603462Y15181536D02*
X154303463Y14881537D01*
X52568980Y14716020D02*
X151789736Y14716020D01*
X50164000Y17121000D02*
X52568980Y14716020D01*
X151789736Y14716020D02*
X152214000Y14716020D01*
X180289200Y62571800D02*
X180289200Y64765800D01*
X180289200Y64765800D02*
X178424000Y66631000D01*
X178424000Y66631000D02*
X175254000Y66631000D01*
X175254000Y66631000D02*
X167266000Y74619000D01*
X167266000Y74619000D02*
X166492000Y74619000D01*
X180934000Y41971000D02*
X180934000Y43237000D01*
X180934000Y43237000D02*
X179938000Y44233000D01*
X179938000Y44233000D02*
X174239906Y44233000D01*
X174239906Y44233000D02*
X173532800Y44233000D01*
X184048400Y62724200D02*
X179251600Y67521000D01*
X179251600Y67521000D02*
X175264000Y67521000D01*
X175264000Y67521000D02*
X168314000Y74471000D01*
X168314000Y74471000D02*
X168314000Y75337000D01*
X168314000Y75337000D02*
X167491999Y76159001D01*
X167491999Y76159001D02*
X166492000Y77159000D01*
X25134000Y40935264D02*
X25134000Y40511000D01*
X23954321Y49145281D02*
X25134000Y47965602D01*
X27940000Y63439400D02*
X23954321Y59453721D01*
X25134000Y47965602D02*
X25134000Y40935264D01*
X27940000Y64807000D02*
X27940000Y63439400D01*
X23954321Y59453721D02*
X23954321Y49145281D01*
X36381616Y34487017D02*
X36081617Y34787016D01*
X36714000Y34154633D02*
X36381616Y34487017D01*
X36714000Y31121000D02*
X36714000Y34154633D01*
X2552000Y69577800D02*
X10807200Y69577800D01*
X10807200Y69577800D02*
X20014000Y60371000D01*
X20014000Y60371000D02*
X20014000Y52971000D01*
D25*
X20014001Y46191680D02*
X20014001Y45435199D01*
D24*
X17764000Y45311000D02*
X19889802Y45311000D01*
D25*
X20014001Y45435199D02*
X20014001Y43468460D01*
D24*
X19889802Y45311000D02*
X20014001Y45435199D01*
D25*
X17014000Y60221000D02*
X20014000Y57221000D01*
X20014000Y57221000D02*
X20014000Y52971000D01*
X20014001Y52970999D02*
X20014001Y46191680D01*
D24*
X19984681Y46221000D02*
X20014001Y46191680D01*
D25*
X20014001Y43468460D02*
X20014001Y43196714D01*
X20014001Y43196714D02*
X20014001Y30170999D01*
X20014000Y52971000D02*
X20014001Y52970999D01*
X20014001Y30170999D02*
X20514000Y29671000D01*
D24*
X53014000Y44246736D02*
X53014000Y44671000D01*
X50714000Y38971000D02*
X53014000Y41271000D01*
X47641762Y38971000D02*
X50714000Y38971000D01*
X45808587Y37137825D02*
X47641762Y38971000D01*
X53014000Y41271000D02*
X53014000Y44246736D01*
X45808587Y37137825D02*
X44901731Y38044681D01*
X45897070Y37049342D02*
X45808587Y37137825D01*
X44267319Y29444064D02*
X45792572Y29444064D01*
X44240383Y29471000D02*
X44267319Y29444064D01*
X45792572Y29444064D02*
X46216836Y29444064D01*
X82789736Y19271000D02*
X83214000Y19271000D01*
X52614000Y19271000D02*
X82789736Y19271000D01*
X50514000Y21371000D02*
X52614000Y19271000D01*
X194314000Y63571000D02*
X194314000Y22371000D01*
X44239010Y29469627D02*
X44240383Y29471000D01*
X44239010Y29469627D02*
X45014000Y30244617D01*
X45014000Y30244617D02*
X45014000Y35009588D01*
X45014000Y35009588D02*
X45989011Y35984599D01*
X45989011Y35984599D02*
X45989011Y36957401D01*
X45989011Y36957401D02*
X45897070Y37049342D01*
X46714000Y37071000D02*
X45918728Y37071000D01*
X45918728Y37071000D02*
X45897070Y37049342D01*
X41114000Y24346736D02*
X41114000Y24771000D01*
X41114000Y14171000D02*
X41114000Y24346736D01*
X41514000Y13771000D02*
X41114000Y14171000D01*
X117814000Y18071000D02*
X117714000Y17971000D01*
X117814000Y20771000D02*
X117814000Y18071000D01*
X164089020Y22595980D02*
X164014000Y22671000D01*
X174625000Y22595980D02*
X164089020Y22595980D01*
X62314001Y55948379D02*
X62614000Y55648380D01*
X62238999Y56023381D02*
X62314001Y55948379D01*
X62614000Y37171000D02*
X62614000Y55648380D01*
X62238999Y72046001D02*
X62238999Y56023381D01*
X59314000Y74971000D02*
X62238999Y72046001D01*
X115903200Y61771000D02*
X115903200Y58871000D01*
X44901731Y38044681D02*
X44224217Y38044681D01*
X15031400Y23610800D02*
X15031400Y29288400D01*
X15031400Y29288400D02*
X15114000Y29371000D01*
X44240383Y29471000D02*
X44314000Y29471000D01*
X38862000Y33311000D02*
X38154000Y34019000D01*
X38154000Y43966736D02*
X38154000Y44391000D01*
X38154000Y34019000D02*
X38154000Y43966736D01*
X41744000Y47581000D02*
X41614000Y47711000D01*
X41614000Y47711000D02*
X41614000Y68171000D01*
X34084000Y47551000D02*
X34114000Y47521000D01*
X34114000Y47521000D02*
X34114000Y37471000D01*
X105514000Y52971000D02*
X105514000Y50936200D01*
X105514000Y50936200D02*
X106473050Y49977150D01*
X106473050Y49977150D02*
X113348152Y49977150D01*
X113348152Y49977150D02*
X113648151Y49677151D01*
X180836000Y39293000D02*
X183488400Y39293000D01*
X183488400Y39293000D02*
X186014000Y41818600D01*
X186014000Y41818600D02*
X186014000Y41971000D01*
X37592000Y75729000D02*
X37439600Y75729000D01*
X37439600Y75729000D02*
X31014000Y69303400D01*
X31014000Y69303400D02*
X26431600Y69303400D01*
X26431600Y69303400D02*
X26364000Y69371000D01*
X26364000Y69371000D02*
X26364000Y69251000D01*
X26364000Y69251000D02*
X24644000Y67531000D01*
X198374000Y42963000D02*
X196522000Y42963000D01*
X196522000Y42963000D02*
X195114000Y44371000D01*
X195114000Y44371000D02*
X195114000Y48999400D01*
X195114000Y48999400D02*
X195834000Y49719400D01*
X78914001Y62371001D02*
X79214000Y62671000D01*
X71314000Y54771000D02*
X78914001Y62371001D01*
X71314000Y38298600D02*
X71314000Y54771000D01*
X83159600Y26453000D02*
X71314000Y38298600D01*
X83312000Y26453000D02*
X83159600Y26453000D01*
X147414000Y47971000D02*
X147414000Y67671000D01*
X147414000Y67671000D02*
X147214000Y67871000D01*
X147320000Y67765000D02*
X147214000Y67871000D01*
X195834000Y49059000D02*
X195834000Y49719400D01*
X195834000Y49719400D02*
X198221600Y52107000D01*
X198221600Y52107000D02*
X198374000Y52107000D01*
X78994000Y68871000D02*
X79146400Y68871000D01*
D25*
X33914000Y76071000D02*
X33914000Y77471000D01*
X33914000Y77471000D02*
X32914000Y78471000D01*
X32914000Y78471000D02*
X28714000Y78471000D01*
X28714000Y78471000D02*
X27514000Y77271000D01*
X27514000Y77271000D02*
X27514000Y74471000D01*
X27514000Y74471000D02*
X26414000Y73371000D01*
X26414000Y73371000D02*
X21414000Y73371000D01*
X21414000Y73371000D02*
X17514000Y69471000D01*
D24*
X150614000Y17121734D02*
X150614000Y59246736D01*
X149363266Y15871000D02*
X150614000Y17121734D01*
X53814000Y15871000D02*
X149363266Y15871000D01*
X48913996Y20771004D02*
X53814000Y15871000D01*
X46714000Y20771004D02*
X48913996Y20771004D01*
X150614000Y59246736D02*
X150614000Y59671000D01*
X150614000Y59010848D02*
X150614000Y59671000D01*
X196134000Y45531000D02*
X197154000Y45531000D01*
X197154000Y45531000D02*
X197182000Y45503000D01*
X197182000Y45503000D02*
X198374000Y45503000D01*
X195214000Y54571000D02*
X198298000Y54571000D01*
X198298000Y54571000D02*
X198374000Y54647000D01*
X65959001Y27364495D02*
X65929220Y27334714D01*
X65959001Y53916001D02*
X65959001Y27364495D01*
X65929220Y27334714D02*
X65629221Y27034715D01*
X76214000Y64171000D02*
X65959001Y53916001D01*
X54414000Y27971000D02*
X53427166Y28957834D01*
X53427166Y28957834D02*
X49583922Y28957834D01*
X49583922Y28957834D02*
X49159658Y28957834D01*
X45824000Y49621000D02*
X46224000Y49221000D01*
X46224000Y49221000D02*
X46224000Y42251000D01*
X46224000Y42251000D02*
X46504000Y41971000D01*
X44854000Y52471000D02*
X44874000Y52491000D01*
X44874000Y52491000D02*
X44874000Y54221000D01*
X44874000Y54221000D02*
X43714000Y55381000D01*
X43714000Y55381000D02*
X43714000Y59155744D01*
D25*
X137284000Y41061000D02*
X136914000Y41431000D01*
X136914000Y41431000D02*
X136914000Y64971000D01*
D24*
X113564000Y41121000D02*
X114013086Y41121000D01*
X114013086Y41121000D02*
X114353086Y40781000D01*
X114353086Y40781000D02*
X125168800Y40781000D01*
X125168800Y40781000D02*
X126775220Y39174580D01*
X105874000Y41201000D02*
X105991600Y41083400D01*
X105991600Y41083400D02*
X113526400Y41083400D01*
X113526400Y41083400D02*
X113564000Y41121000D01*
X37304000Y45211000D02*
X37236400Y45143400D01*
X37236400Y45143400D02*
X37236400Y33920600D01*
X37236400Y33920600D02*
X37846000Y33311000D01*
X42914000Y67271000D02*
X42914000Y65571000D01*
X42914000Y65571000D02*
X43014000Y65471000D01*
X43714000Y66471000D02*
X43714000Y59155744D01*
X43714000Y59155744D02*
X43714001Y58670999D01*
X119727501Y38271000D02*
X119123134Y38271000D01*
X118971723Y38119589D02*
X119123134Y38271000D01*
X119123134Y38271000D02*
X117299519Y38271000D01*
X118465600Y37425800D02*
X118971723Y37931923D01*
X118971723Y37931923D02*
X118971723Y38119589D01*
X129133600Y36816200D02*
X127719387Y36816200D01*
X127719387Y36816200D02*
X127664587Y36871000D01*
X121127501Y36871000D02*
X119727501Y38271000D01*
X127664587Y36871000D02*
X121127501Y36871000D01*
X117299519Y38271000D02*
X115999519Y39571000D01*
X115999519Y39571000D02*
X106038264Y39571000D01*
X129133600Y36816200D02*
X126775220Y39174580D01*
X126775220Y39174580D02*
X126378800Y39571000D01*
X129133600Y36816200D02*
X127978800Y37971000D01*
X106038264Y39571000D02*
X105938264Y39671000D01*
X105938264Y39671000D02*
X105614000Y39671000D01*
X106314000Y39571000D02*
X106038264Y39571000D01*
D25*
X135259151Y77026953D02*
X136914000Y75372104D01*
X136914000Y75372104D02*
X136914000Y65678106D01*
X136914000Y65678106D02*
X136914000Y64971000D01*
D24*
X176507700Y38034965D02*
X171782486Y38034965D01*
X177698833Y38034965D02*
X176507700Y38034965D01*
X176507700Y38034965D02*
X175854000Y38688665D01*
X175854000Y38688665D02*
X175854000Y41971000D01*
X171782486Y37707486D02*
X171551600Y37476600D01*
X171551600Y37476600D02*
X156667200Y37476600D01*
X171782486Y38034965D02*
X170808521Y38034965D01*
X171782486Y38034965D02*
X171782486Y37707486D01*
X170383103Y38036119D02*
X170384257Y38034965D01*
X161224000Y38036119D02*
X170383103Y38036119D01*
X180340000Y35393798D02*
X177698833Y38034965D01*
X170808521Y38034965D02*
X170384257Y38034965D01*
X42914000Y78971000D02*
X42914000Y67271000D01*
X157114000Y38801238D02*
X157114000Y38971000D01*
X157879119Y38036119D02*
X157114000Y38801238D01*
X161224000Y38036119D02*
X157879119Y38036119D01*
X14524000Y53763998D02*
X14524000Y59321000D01*
X14524000Y59321000D02*
X16914000Y61711000D01*
X14524000Y51171000D02*
X14524000Y53763998D01*
X13734000Y50381000D02*
X14524000Y51171000D01*
M02*
