G04 #@! TF.FileFunction,Soldermask,Bot*
%FSLAX46Y46*%
G04 Gerber Fmt 4.6, Leading zero omitted, Abs format (unit mm)*
G04 Created by KiCad (PCBNEW 4.0.1-stable) date 12/11/2016 23:12:02*
%MOMM*%
G01*
G04 APERTURE LIST*
%ADD10C,0.100000*%
%ADD11C,2.000000*%
%ADD12O,4.300000X3.000000*%
%ADD13R,1.727200X2.032000*%
%ADD14O,1.727200X2.032000*%
%ADD15R,2.032000X2.032000*%
%ADD16O,2.032000X2.032000*%
%ADD17C,1.143000*%
%ADD18R,2.235200X2.235200*%
%ADD19R,2.032000X1.727200*%
%ADD20O,2.032000X1.727200*%
%ADD21C,1.800000*%
G04 APERTURE END LIST*
D10*
D11*
X166492000Y61919000D03*
X166492000Y64459000D03*
X166492000Y69539000D03*
X166492000Y74619000D03*
X166492000Y72079000D03*
X166492000Y77159000D03*
X28764000Y38721000D03*
X28764000Y33721000D03*
X129133600Y34276200D03*
X129133600Y36816200D03*
X129133600Y41896200D03*
X129133600Y46976200D03*
D12*
X15494000Y75983000D03*
X158764000Y75971000D03*
D13*
X7360600Y19699200D03*
D14*
X9900600Y19699200D03*
X12440600Y19699200D03*
X14980600Y19699200D03*
X17520600Y19699200D03*
X20060600Y19699200D03*
D12*
X7514000Y13471000D03*
X18014000Y13221000D03*
D13*
X7411400Y23610800D03*
D14*
X9951400Y23610800D03*
X12491400Y23610800D03*
X15031400Y23610800D03*
X17571400Y23610800D03*
X20111400Y23610800D03*
D11*
X127355600Y59751000D03*
X127355600Y62291000D03*
X127355600Y67371000D03*
X127355600Y72451000D03*
X127355600Y69911000D03*
X127355600Y74991000D03*
D12*
X22914000Y76071000D03*
X150764000Y76221000D03*
D15*
X49164000Y13021000D03*
D16*
X46624000Y13021000D03*
D11*
X81134000Y73201000D03*
X78594000Y73201000D03*
X73514000Y73201000D03*
X68434000Y73201000D03*
D17*
X56514000Y71371000D03*
X56514000Y73771000D03*
D18*
X73914000Y68871000D03*
X73914000Y26453000D03*
D17*
X109474000Y67245400D03*
X109996800Y25464600D03*
X109503200Y64451400D03*
X109996800Y23464600D03*
D19*
X83312000Y26453000D03*
D20*
X80772000Y26453000D03*
X78232000Y26453000D03*
D19*
X78994000Y68871000D03*
D20*
X81534000Y68871000D03*
X84074000Y68871000D03*
D17*
X167814000Y26971000D03*
X167814000Y24771000D03*
D19*
X155194000Y69125000D03*
D20*
X157734000Y69125000D03*
X160274000Y69125000D03*
D17*
X186014000Y67171000D03*
X185928000Y69887000D03*
D19*
X37592000Y75729000D03*
D20*
X37592000Y73189000D03*
X37592000Y70649000D03*
D19*
X198374000Y42963000D03*
D20*
X198374000Y45503000D03*
X198374000Y48043000D03*
D18*
X174244000Y16547000D03*
D19*
X198374000Y52107000D03*
D20*
X198374000Y54647000D03*
X198374000Y57187000D03*
D18*
X173990000Y73443000D03*
X27940000Y64807000D03*
D21*
X31414000Y76071000D03*
X33914000Y76071000D03*
D14*
X55014000Y52471000D03*
X44854000Y52471000D03*
X28514000Y54971000D03*
X38674000Y54971000D03*
X76014000Y48471000D03*
X86174000Y48471000D03*
X85514000Y44971000D03*
X75354000Y44971000D03*
X105514000Y52971000D03*
X115674000Y52971000D03*
X116514000Y44471000D03*
X111434000Y44471000D03*
X106354000Y44471000D03*
X158354000Y54471000D03*
X168514000Y54471000D03*
X168514000Y41971000D03*
X163434000Y41971000D03*
X158354000Y41971000D03*
X176014000Y50471000D03*
X186174000Y50471000D03*
X186014000Y41971000D03*
X180934000Y41971000D03*
X175854000Y41971000D03*
D19*
X17764000Y55471000D03*
D20*
X17764000Y52931000D03*
X17764000Y50391000D03*
X17764000Y47851000D03*
X17764000Y45311000D03*
D11*
X19644000Y67531000D03*
X24644000Y67531000D03*
D19*
X2159000Y77126000D03*
D20*
X2159000Y74586000D03*
X2159000Y72046000D03*
X2159000Y69506000D03*
M02*
