G04 #@! TF.FileFunction,Profile,NP*
%FSLAX46Y46*%
G04 Gerber Fmt 4.6, Leading zero omitted, Abs format (unit mm)*
G04 Created by KiCad (PCBNEW 4.0.1-stable) date 12/11/2016 23:12:02*
%MOMM*%
G01*
G04 APERTURE LIST*
%ADD10C,0.100000*%
G04 APERTURE END LIST*
D10*
X-473333334Y234000000D02*
G75*
G03X-473333334Y234000000I-1666666J0D01*
G01*
X-477500000Y234000000D02*
X-472500000Y234000000D01*
X-475000000Y236500000D02*
X-475000000Y231500000D01*
X101500000Y85000000D02*
G75*
G03X101500000Y85000000I-1500000J0D01*
G01*
X101500000Y5000000D02*
G75*
G03X101500000Y5000000I-1500000J0D01*
G01*
X176500000Y85000000D02*
G75*
G03X176500000Y85000000I-1500000J0D01*
G01*
X176500000Y5000000D02*
G75*
G03X176500000Y5000000I-1500000J0D01*
G01*
X26500000Y5000000D02*
G75*
G03X26500000Y5000000I-1500000J0D01*
G01*
X26500000Y85000000D02*
G75*
G03X26500000Y85000000I-1500000J0D01*
G01*
X87245161Y22252554D02*
X91309161Y22252554D01*
X87245161Y31904554D02*
X87245161Y22252554D01*
X87245161Y31904554D02*
X91309161Y31904554D01*
X105025161Y31904554D02*
X105025161Y22252554D01*
X100961161Y31904554D02*
X105025161Y31904554D01*
X100961161Y31904554D02*
G75*
G03X91309161Y31904554I-4826000J-4826000D01*
G01*
X91309161Y22252554D02*
G75*
G03X100961161Y22252554I4826000J4826000D01*
G01*
X105025161Y22252554D02*
X100961161Y22252554D01*
X91172000Y62296000D02*
G75*
G03X100824000Y62296000I4826000J4826000D01*
G01*
X100824000Y71948000D02*
G75*
G03X91172000Y71948000I-4826000J-4826000D01*
G01*
X104888000Y62296000D02*
X100824000Y62296000D01*
X104888000Y71948000D02*
X104888000Y62296000D01*
X100824000Y71948000D02*
X104888000Y71948000D01*
X87108000Y71948000D02*
X91172000Y71948000D01*
X87108000Y62296000D02*
X91172000Y62296000D01*
X87108000Y71948000D02*
X87108000Y62296000D01*
X200000000Y90000000D02*
X0Y90000000D01*
X200000000Y0D02*
X200000000Y90000000D01*
X0Y0D02*
X200000000Y0D01*
X0Y90000000D02*
X0Y0D01*
M02*
