G04 #@! TF.FileFunction,Copper,L1,Top,Signal*
%FSLAX46Y46*%
G04 Gerber Fmt 4.6, Leading zero omitted, Abs format (unit mm)*
G04 Created by KiCad (PCBNEW 4.0.1-stable) date 12/11/2016 23:12:02*
%MOMM*%
G01*
G04 APERTURE LIST*
%ADD10C,0.100000*%
%ADD11C,2.000000*%
%ADD12R,0.500000X0.900000*%
%ADD13R,0.600000X1.500000*%
%ADD14R,0.700000X1.000000*%
%ADD15R,0.800000X0.750000*%
%ADD16R,0.900000X0.500000*%
%ADD17R,0.750000X0.800000*%
%ADD18R,0.797560X0.797560*%
%ADD19R,0.450000X0.590000*%
%ADD20O,4.300000X3.000000*%
%ADD21R,1.727200X2.032000*%
%ADD22O,1.727200X2.032000*%
%ADD23R,0.650000X1.060000*%
%ADD24R,8.890000X10.668000*%
%ADD25R,2.286000X1.778000*%
%ADD26R,1.000000X0.250000*%
%ADD27R,0.250000X1.000000*%
%ADD28R,2.032000X2.032000*%
%ADD29O,2.032000X2.032000*%
%ADD30C,1.143000*%
%ADD31R,2.235200X2.235200*%
%ADD32R,2.032000X1.727200*%
%ADD33O,2.032000X1.727200*%
%ADD34C,1.800000*%
%ADD35R,2.200000X1.200000*%
%ADD36R,2.200000X3.500000*%
%ADD37R,2.540000X1.270000*%
%ADD38R,1.100000X0.660000*%
%ADD39C,1.000000*%
%ADD40C,0.600000*%
%ADD41C,0.250000*%
%ADD42C,0.400000*%
G04 APERTURE END LIST*
D10*
D11*
X166492000Y61919000D03*
X166492000Y64459000D03*
X166492000Y69539000D03*
X166492000Y74619000D03*
X166492000Y72079000D03*
X166492000Y77159000D03*
D12*
X116828000Y49871800D03*
X115328000Y49871800D03*
D13*
X112058200Y65471000D03*
X113328200Y65471000D03*
X114598200Y65471000D03*
X115868200Y65471000D03*
X117138200Y65471000D03*
X118408200Y65471000D03*
X119678200Y65471000D03*
X120948200Y65471000D03*
X120948200Y70871000D03*
X119678200Y70871000D03*
X118408200Y70871000D03*
X117138200Y70871000D03*
X115868200Y70871000D03*
X114598200Y70871000D03*
X113328200Y70871000D03*
X112058200Y70871000D03*
D14*
X30564000Y69271000D03*
X32464000Y69271000D03*
X31514000Y71671000D03*
D13*
X53959000Y73671000D03*
X52689000Y73671000D03*
X51419000Y73671000D03*
X50149000Y73671000D03*
X48879000Y73671000D03*
X47609000Y73671000D03*
X46339000Y73671000D03*
X45069000Y73671000D03*
X45069000Y68271000D03*
X46339000Y68271000D03*
X47609000Y68271000D03*
X48879000Y68271000D03*
X50149000Y68271000D03*
X51419000Y68271000D03*
X52689000Y68271000D03*
X53959000Y68271000D03*
D15*
X20264000Y71971000D03*
X18764000Y71971000D03*
D11*
X28764000Y38721000D03*
X28764000Y33721000D03*
D16*
X34514000Y32821000D03*
X34514000Y31321000D03*
D11*
X129133600Y34276200D03*
X129133600Y36816200D03*
X129133600Y41896200D03*
X129133600Y46976200D03*
D17*
X30814000Y33471000D03*
X30814000Y31971000D03*
X32514000Y33471000D03*
X32514000Y31971000D03*
D15*
X45478000Y65569000D03*
X46978000Y65569000D03*
D17*
X137210800Y35940600D03*
X137210800Y34440600D03*
X85014000Y76221000D03*
X85014000Y74721000D03*
X135839200Y62051800D03*
X135839200Y60551800D03*
D15*
X173240000Y20611000D03*
X174740000Y20611000D03*
X114653200Y74971000D03*
X113153200Y74971000D03*
X172454000Y33311000D03*
X170954000Y33311000D03*
X180074000Y33311000D03*
X178574000Y33311000D03*
X181920000Y61151000D03*
X183420000Y61151000D03*
D17*
X23494000Y39691000D03*
X23494000Y41191000D03*
X23514000Y29721000D03*
X23514000Y31221000D03*
X34514000Y70221000D03*
X34514000Y71721000D03*
D18*
X43114000Y11921700D03*
X43114000Y13420300D03*
D19*
X38100000Y26160000D03*
X38100000Y28270000D03*
D20*
X15494000Y75983000D03*
X158764000Y75971000D03*
D21*
X7360600Y19699200D03*
D22*
X9900600Y19699200D03*
X12440600Y19699200D03*
X14980600Y19699200D03*
X17520600Y19699200D03*
X20060600Y19699200D03*
D20*
X7514000Y13471000D03*
X18014000Y13221000D03*
D21*
X7411400Y23610800D03*
D22*
X9951400Y23610800D03*
X12491400Y23610800D03*
X15031400Y23610800D03*
X17571400Y23610800D03*
X20111400Y23610800D03*
D12*
X66664000Y35471000D03*
X68164000Y35471000D03*
X66714000Y37571000D03*
X68214000Y37571000D03*
X66714000Y33171000D03*
X68214000Y33171000D03*
X66714000Y31321000D03*
X68214000Y31321000D03*
D16*
X12514000Y15471000D03*
X12514000Y13971000D03*
X22865080Y14294720D03*
X22865080Y12794720D03*
D12*
X41664000Y41471000D03*
X40164000Y41471000D03*
D16*
X43114000Y16671000D03*
X43114000Y15171000D03*
D12*
X33064000Y57371000D03*
X31564000Y57371000D03*
D16*
X45466000Y19099000D03*
X45466000Y20599000D03*
D12*
X90259600Y44944200D03*
X88759600Y44944200D03*
X80530000Y50837000D03*
X82030000Y50837000D03*
X168503600Y39661000D03*
X167003600Y39661000D03*
X163174000Y57251000D03*
X161674000Y57251000D03*
D16*
X186029600Y38301400D03*
X186029600Y39801400D03*
D12*
X51664000Y16871000D03*
X53164000Y16871000D03*
X51664000Y19371000D03*
X53164000Y19371000D03*
D11*
X127355600Y59751000D03*
X127355600Y62291000D03*
X127355600Y67371000D03*
X127355600Y72451000D03*
X127355600Y69911000D03*
X127355600Y74991000D03*
D13*
X112551800Y23264600D03*
X113821800Y23264600D03*
X115091800Y23264600D03*
X116361800Y23264600D03*
X117631800Y23264600D03*
X118901800Y23264600D03*
X120171800Y23264600D03*
X121441800Y23264600D03*
X121441800Y28664600D03*
X120171800Y28664600D03*
X118901800Y28664600D03*
X117631800Y28664600D03*
X116361800Y28664600D03*
X115091800Y28664600D03*
X113821800Y28664600D03*
X112551800Y28664600D03*
X170815000Y25023000D03*
X172085000Y25023000D03*
X173355000Y25023000D03*
X174625000Y25023000D03*
X175895000Y25023000D03*
X177165000Y25023000D03*
X178435000Y25023000D03*
X179705000Y25023000D03*
X179705000Y30423000D03*
X178435000Y30423000D03*
X177165000Y30423000D03*
X175895000Y30423000D03*
X174625000Y30423000D03*
X173355000Y30423000D03*
X172085000Y30423000D03*
X170815000Y30423000D03*
D23*
X110149600Y38510200D03*
X111099600Y38510200D03*
X112049600Y38510200D03*
X112049600Y40710200D03*
X110149600Y40710200D03*
D24*
X9849800Y31815000D03*
D25*
X18612800Y31815000D03*
X18612800Y29275000D03*
X18612800Y34355000D03*
D13*
X183559000Y69693000D03*
X182289000Y69693000D03*
X181019000Y69693000D03*
X179749000Y69693000D03*
X178479000Y69693000D03*
X177209000Y69693000D03*
X175939000Y69693000D03*
X174669000Y69693000D03*
X174669000Y64293000D03*
X175939000Y64293000D03*
X177209000Y64293000D03*
X178479000Y64293000D03*
X179749000Y64293000D03*
X181019000Y64293000D03*
X182289000Y64293000D03*
X183559000Y64293000D03*
D23*
X174664000Y34371000D03*
X175614000Y34371000D03*
X176564000Y34371000D03*
X176564000Y36571000D03*
X174664000Y36571000D03*
X159324000Y33481000D03*
X160274000Y33481000D03*
X161224000Y33481000D03*
X161224000Y35681000D03*
X159324000Y35681000D03*
D26*
X41798000Y37315000D03*
X41798000Y36815000D03*
X41798000Y36315000D03*
X41798000Y35815000D03*
X41798000Y35315000D03*
X41798000Y34815000D03*
X41798000Y34315000D03*
X41798000Y33815000D03*
X41798000Y33315000D03*
X41798000Y32815000D03*
X41798000Y32315000D03*
X41798000Y31815000D03*
X41798000Y31315000D03*
X41798000Y30815000D03*
X41798000Y30315000D03*
X41798000Y29815000D03*
D27*
X43748000Y27865000D03*
X44248000Y27865000D03*
X44748000Y27865000D03*
X45248000Y27865000D03*
X45748000Y27865000D03*
X46248000Y27865000D03*
X46748000Y27865000D03*
X47248000Y27865000D03*
X47748000Y27865000D03*
X48248000Y27865000D03*
X48748000Y27865000D03*
X49248000Y27865000D03*
X49748000Y27865000D03*
X50248000Y27865000D03*
X50748000Y27865000D03*
X51248000Y27865000D03*
D26*
X53198000Y29815000D03*
X53198000Y30315000D03*
X53198000Y30815000D03*
X53198000Y31315000D03*
X53198000Y31815000D03*
X53198000Y32315000D03*
X53198000Y32815000D03*
X53198000Y33315000D03*
X53198000Y33815000D03*
X53198000Y34315000D03*
X53198000Y34815000D03*
X53198000Y35315000D03*
X53198000Y35815000D03*
X53198000Y36315000D03*
X53198000Y36815000D03*
X53198000Y37315000D03*
D27*
X51248000Y39265000D03*
X50748000Y39265000D03*
X50248000Y39265000D03*
X49748000Y39265000D03*
X49248000Y39265000D03*
X48748000Y39265000D03*
X48248000Y39265000D03*
X47748000Y39265000D03*
X47248000Y39265000D03*
X46748000Y39265000D03*
X46248000Y39265000D03*
X45748000Y39265000D03*
X45248000Y39265000D03*
X44748000Y39265000D03*
X44248000Y39265000D03*
X43748000Y39265000D03*
D15*
X43192000Y24929000D03*
X44692000Y24929000D03*
X40132000Y39661000D03*
X41632000Y39661000D03*
X50564600Y23407600D03*
X52064600Y23407600D03*
D17*
X55976200Y38825400D03*
X55976200Y37325400D03*
D15*
X114746800Y20964600D03*
X116246800Y20964600D03*
X115953200Y63071000D03*
X114453200Y63071000D03*
X47264000Y76471000D03*
X48764000Y76471000D03*
D17*
X39992300Y14350600D03*
X39992300Y12850600D03*
X37673280Y14350600D03*
X37673280Y12850600D03*
D15*
X121005600Y32803000D03*
X119505600Y32803000D03*
D17*
X115011200Y33475400D03*
X115011200Y34975400D03*
X123240800Y70876200D03*
X123240800Y72376200D03*
D15*
X175062000Y61151000D03*
X176562000Y61151000D03*
X180564000Y73871000D03*
X179064000Y73871000D03*
D20*
X22914000Y76071000D03*
X150764000Y76221000D03*
D28*
X49164000Y13021000D03*
D29*
X46624000Y13021000D03*
D12*
X48864000Y57171000D03*
X50364000Y57171000D03*
D16*
X116433600Y40079400D03*
X116433600Y41579400D03*
X177614000Y54901000D03*
X177614000Y53401000D03*
D11*
X81134000Y73201000D03*
X78594000Y73201000D03*
X73514000Y73201000D03*
X68434000Y73201000D03*
D30*
X56514000Y71371000D03*
X56514000Y73771000D03*
D31*
X73914000Y68871000D03*
X73914000Y26453000D03*
D30*
X109474000Y67245400D03*
X109996800Y25464600D03*
X109503200Y64451400D03*
X109996800Y23464600D03*
D32*
X83312000Y26453000D03*
D33*
X80772000Y26453000D03*
X78232000Y26453000D03*
D32*
X78994000Y68871000D03*
D33*
X81534000Y68871000D03*
X84074000Y68871000D03*
D30*
X167814000Y26971000D03*
X167814000Y24771000D03*
D32*
X155194000Y69125000D03*
D33*
X157734000Y69125000D03*
X160274000Y69125000D03*
D30*
X186014000Y67171000D03*
X185928000Y69887000D03*
D32*
X37592000Y75729000D03*
D33*
X37592000Y73189000D03*
X37592000Y70649000D03*
D32*
X198374000Y42963000D03*
D33*
X198374000Y45503000D03*
X198374000Y48043000D03*
D31*
X174244000Y16547000D03*
D32*
X198374000Y52107000D03*
D33*
X198374000Y54647000D03*
X198374000Y57187000D03*
D31*
X173990000Y73443000D03*
X27940000Y64807000D03*
D12*
X31614000Y35121000D03*
X33114000Y35121000D03*
D34*
X31414000Y76071000D03*
X33914000Y76071000D03*
D22*
X55014000Y52471000D03*
X44854000Y52471000D03*
X28514000Y54971000D03*
X38674000Y54971000D03*
X76014000Y48471000D03*
X86174000Y48471000D03*
X85514000Y44971000D03*
X75354000Y44971000D03*
X105514000Y52971000D03*
X115674000Y52971000D03*
X116514000Y44471000D03*
X111434000Y44471000D03*
X106354000Y44471000D03*
X158354000Y54471000D03*
X168514000Y54471000D03*
X168514000Y41971000D03*
X163434000Y41971000D03*
X158354000Y41971000D03*
X176014000Y50471000D03*
X186174000Y50471000D03*
X186014000Y41971000D03*
X180934000Y41971000D03*
X175854000Y41971000D03*
D15*
X51714000Y65071000D03*
X53214000Y65071000D03*
D17*
X11634000Y50521000D03*
X11634000Y52021000D03*
D16*
X81814000Y63621000D03*
X81814000Y65121000D03*
X84114000Y63621000D03*
X84114000Y65121000D03*
D12*
X74664000Y29871000D03*
X73164000Y29871000D03*
X74664000Y32271000D03*
X73164000Y32271000D03*
D16*
X157714000Y64321000D03*
X157714000Y65821000D03*
X160114000Y64321000D03*
X160114000Y65821000D03*
D12*
X192274000Y43801000D03*
X193774000Y43801000D03*
X192364000Y50471000D03*
X193864000Y50471000D03*
D16*
X40814000Y71021000D03*
X40814000Y69521000D03*
X40814000Y72721000D03*
X40814000Y74221000D03*
D12*
X192164000Y54571000D03*
X193664000Y54571000D03*
X193664000Y56871000D03*
X192164000Y56871000D03*
D16*
X54114000Y43421000D03*
X54114000Y41921000D03*
X51814000Y43421000D03*
X51814000Y41921000D03*
D35*
X10114000Y56171000D03*
X10114000Y58471000D03*
X10114000Y60671000D03*
D36*
X3914000Y58471000D03*
D37*
X26540000Y11471000D03*
X34798000Y11471000D03*
X26540000Y15789000D03*
X34798000Y15789000D03*
D17*
X11614000Y46121000D03*
X11614000Y44621000D03*
D15*
X12364000Y40631000D03*
X13864000Y40631000D03*
D38*
X6214000Y40821000D03*
X6214000Y41771000D03*
X6214000Y42721000D03*
X8814000Y42721000D03*
X8814000Y40821000D03*
X6214000Y47721000D03*
X6214000Y48671000D03*
X6214000Y49621000D03*
X8814000Y49621000D03*
X8814000Y47721000D03*
D32*
X17764000Y55471000D03*
D33*
X17764000Y52931000D03*
X17764000Y50391000D03*
X17764000Y47851000D03*
X17764000Y45311000D03*
D11*
X19644000Y67531000D03*
X24644000Y67531000D03*
D32*
X2159000Y77126000D03*
D33*
X2159000Y74586000D03*
X2159000Y72046000D03*
X2159000Y69506000D03*
D39*
X5000000Y5000000D03*
X5000000Y85000000D03*
X195000000Y5000000D03*
D40*
X76454000Y21881000D03*
X153267501Y46131000D03*
X70034000Y12731000D03*
X190044000Y45501000D03*
X123544000Y56021000D03*
X52814000Y38871000D03*
X51614000Y31971000D03*
X73507600Y76287798D03*
X162464000Y21071000D03*
X21038979Y45158747D03*
X55014000Y59971000D03*
X61014000Y59471000D03*
X48707160Y30459030D03*
X84014000Y20271000D03*
X192114000Y24971000D03*
X48914000Y37971000D03*
X182328810Y72856190D03*
X170840400Y20712600D03*
X21338978Y31815000D03*
X21338978Y28371000D03*
X177614000Y72571000D03*
X50914000Y71770994D03*
X52014000Y22171000D03*
X60814000Y38171000D03*
X115004000Y36321000D03*
D39*
X135514000Y73071000D03*
X154482800Y72681000D03*
D40*
X48614000Y66371000D03*
X156514000Y35271000D03*
X168314000Y35271000D03*
X178514000Y35271000D03*
X50038002Y65010200D03*
X49714000Y62171000D03*
X63514000Y62171000D03*
X66114000Y73171000D03*
X68014000Y69471000D03*
X71114000Y73271000D03*
X38863039Y37370999D03*
X40014000Y16571000D03*
X38894000Y21491000D03*
X38854000Y17341000D03*
X35858181Y33966896D03*
X121767600Y30313800D03*
X76301600Y42709000D03*
X113131600Y54799400D03*
X115468400Y72985800D03*
X169926000Y66077000D03*
X177209000Y62875659D03*
X45084000Y48921000D03*
X45084002Y41251000D03*
X22754000Y49691000D03*
X44384000Y48251000D03*
X44570021Y40510618D03*
X21914000Y48011002D03*
X27104000Y43691000D03*
X26352584Y18445980D03*
X44904000Y36211000D03*
X42114000Y22971000D03*
X22944000Y45731000D03*
X48214000Y47971000D03*
X48072980Y41071000D03*
X24671780Y20095970D03*
X33130036Y27821020D03*
X33229236Y25620972D03*
X34114000Y29471000D03*
X34113998Y24671000D03*
X22224000Y46681000D03*
X48314000Y49171000D03*
X49885917Y40422461D03*
X22013998Y27471000D03*
X17614000Y27271000D03*
X70104000Y22262000D03*
X157324000Y13401000D03*
X69514000Y37571000D03*
X190014000Y55771000D03*
X71214000Y13437696D03*
X150314729Y13425980D03*
X74914000Y61271000D03*
X70213999Y33420999D03*
X67310002Y22135000D03*
X190504000Y50421000D03*
X190564000Y43631000D03*
X68888980Y29321000D03*
X68714000Y12371000D03*
X35504000Y42841000D03*
X37513996Y18171000D03*
X46314000Y66871001D03*
X46314000Y57171000D03*
X52514000Y62971000D03*
X52714000Y66871000D03*
X65114000Y30171000D03*
X49114000Y31270986D03*
X56714000Y30371000D03*
X45593000Y22135000D03*
X97942400Y44944200D03*
X120192800Y31075800D03*
X111709200Y54799400D03*
X113577547Y73210091D03*
X111914000Y35471000D03*
X113639600Y33615800D03*
X119735600Y72376200D03*
X119024400Y49922600D03*
X164794000Y57291000D03*
X176022000Y62521000D03*
X182778400Y31888600D03*
X178511200Y31888600D03*
X50486597Y18286208D03*
X151384002Y64553000D03*
X151638000Y60997000D03*
X177134676Y57144503D03*
X182339352Y62349179D03*
X148416175Y17295980D03*
X53414000Y18321000D03*
X60114006Y28571000D03*
X58924000Y33361000D03*
X43724000Y35781000D03*
X52544000Y49821000D03*
X42934000Y47551000D03*
X56114000Y40225980D03*
X72198341Y38525980D03*
X191214000Y23471000D03*
X165514000Y23771000D03*
X175914000Y23471000D03*
X117596800Y24564600D03*
X53814000Y57771000D03*
X178614000Y71871000D03*
X48814000Y72071000D03*
X57114000Y33669980D03*
X109503200Y58671000D03*
X57414000Y58571000D03*
X75814000Y36671000D03*
X64164000Y38571000D03*
X64214000Y34921000D03*
X58414000Y35471000D03*
X108305600Y56425000D03*
X58414000Y56461180D03*
X55714000Y27971000D03*
X145414000Y24871000D03*
X106614000Y18971000D03*
X46014000Y33771000D03*
X62103000Y23151000D03*
X192414000Y21571000D03*
X193614000Y60571000D03*
X62014000Y29671000D03*
X63500000Y23786000D03*
X82184000Y18321000D03*
X62214000Y36071000D03*
X63514000Y18238020D03*
X43814000Y33071000D03*
X191414000Y21771000D03*
X193014000Y62571000D03*
X151414000Y14071000D03*
X47414000Y21571006D03*
X149356152Y29714758D03*
X154303463Y14881537D03*
X152214000Y14716020D03*
X175014000Y33071000D03*
X50164000Y17121000D03*
X180289200Y62571800D03*
D39*
X173532800Y44233000D03*
D40*
X184048400Y62724200D03*
X25134000Y40511000D03*
X36081617Y34787016D03*
X36714000Y31121000D03*
D39*
X17014000Y60221000D03*
D40*
X53014000Y44671000D03*
X46216836Y29444064D03*
X83214000Y19271000D03*
X194314000Y22371000D03*
X194314000Y63571000D03*
X46714000Y37071000D03*
X44423020Y38021000D03*
X41114000Y24771000D03*
D39*
X20514000Y29671000D03*
D40*
X117714000Y17971000D03*
X117814000Y20771000D03*
X164014000Y22671000D03*
X174625000Y22595980D03*
X62614000Y55648380D03*
X115903200Y58871000D03*
X115903200Y61771000D03*
X59314000Y74971000D03*
X41514000Y13771000D03*
X15114000Y29371000D03*
X44314000Y29471000D03*
X50514000Y21371000D03*
X62614000Y37171000D03*
X38154000Y44391000D03*
X38862000Y33311000D03*
X41744000Y47581000D03*
X34084000Y47551000D03*
X41614000Y68171000D03*
X34114000Y37471000D03*
X113648151Y49677151D03*
X180836000Y39293000D03*
X79214000Y62671000D03*
X147414000Y47971000D03*
X147214000Y67871000D03*
X195834000Y49059000D03*
D39*
X17514000Y69471000D03*
D40*
X150614000Y59671000D03*
X46714000Y20771004D03*
X196134000Y45531000D03*
X195214000Y54571000D03*
X49159658Y28957834D03*
X54414000Y27971000D03*
X65629221Y27034715D03*
X76214000Y64171000D03*
X45824000Y49621000D03*
X46504000Y41971000D03*
D39*
X137284000Y41061000D03*
D40*
X105874000Y41201000D03*
X113564000Y41121000D03*
X37304000Y45211000D03*
X43014000Y65471000D03*
X105614000Y39671000D03*
D39*
X136914000Y64971000D03*
X135259151Y77026953D03*
D40*
X156667200Y37476600D03*
X118465600Y37425800D03*
X170384257Y38034965D03*
X180340000Y35393798D03*
X43714000Y66471000D03*
X42914000Y78971000D03*
X157114000Y38971000D03*
X161224000Y38036119D03*
X37846000Y33311000D03*
X16914000Y61711000D03*
X13734000Y50381000D03*
D41*
X38003138Y64550138D02*
X38044000Y64591000D01*
X76454000Y21881000D02*
X72009000Y21881000D01*
X72009000Y21881000D02*
X70347999Y23542001D01*
X70347999Y23542001D02*
X69723000Y23542001D01*
X70034000Y12731000D02*
X68834000Y13931000D01*
X68834000Y13931000D02*
X68834000Y22897000D01*
X68834000Y22897000D02*
X69479001Y23542001D01*
X69479001Y23542001D02*
X69723000Y23542001D01*
X69723000Y23542001D02*
X69397601Y23542001D01*
X69397601Y23542001D02*
X68508600Y24431002D01*
X56153998Y24431002D02*
X54569458Y26015542D01*
X68508600Y24431002D02*
X56153998Y24431002D01*
X153267501Y46131000D02*
X145934000Y46131000D01*
X145934000Y46131000D02*
X137344000Y54721000D01*
X137344000Y54721000D02*
X124164000Y54721000D01*
X124164000Y54721000D02*
X123544000Y55341000D01*
X123544000Y55341000D02*
X123544000Y56021000D01*
X189965137Y46131000D02*
X153267501Y46131000D01*
X189965137Y46131000D02*
X189965137Y45579863D01*
X194574000Y46131000D02*
X189965137Y46131000D01*
X189965137Y45579863D02*
X190044000Y45501000D01*
X198374000Y48043000D02*
X196486000Y48043000D01*
X196486000Y48043000D02*
X194574000Y46131000D01*
X11716217Y52931000D02*
X11521056Y52931000D01*
X11521056Y52931000D02*
X11511056Y52921000D01*
X11511056Y52921000D02*
X9954000Y52921000D01*
X9954000Y52921000D02*
X7602262Y50569262D01*
X7602262Y50569262D02*
X7602262Y48082738D01*
X11634000Y52021000D02*
X11634000Y52798056D01*
X11634000Y52798056D02*
X11511056Y52921000D01*
X7602262Y48082738D02*
X7602262Y43688873D01*
X7602262Y43688873D02*
X7602262Y41771000D01*
X11614000Y43901000D02*
X11401873Y43688873D01*
X11401873Y43688873D02*
X7602262Y43688873D01*
X11614000Y44621000D02*
X11614000Y43901000D01*
X6214000Y48671000D02*
X7602262Y48671000D01*
X7602262Y48671000D02*
X7602262Y48082738D01*
X24554000Y38001000D02*
X23482521Y38001000D01*
X23494000Y39691000D02*
X23494000Y38012479D01*
X23482521Y38001000D02*
X22484000Y38001000D01*
X23494000Y38012479D02*
X23482521Y38001000D01*
X30814000Y33471000D02*
X30814000Y34121000D01*
X30814000Y34121000D02*
X30199645Y34735355D01*
X30199645Y34735355D02*
X30179045Y34735355D01*
X30179045Y34735355D02*
X29343400Y35571000D01*
X29343400Y35571000D02*
X26984000Y35571000D01*
X26984000Y35571000D02*
X24554000Y38001000D01*
X22484000Y38001000D02*
X21034001Y39450999D01*
X21034001Y39450999D02*
X15907029Y39450999D01*
X15187028Y40171000D02*
X15293021Y40065007D01*
X15293021Y40065007D02*
X15907029Y39450999D01*
X13864000Y40631000D02*
X14727028Y40631000D01*
X14727028Y40631000D02*
X15293021Y40065007D01*
X15907029Y39450999D02*
X14203999Y39450999D01*
X8244001Y39450999D02*
X7602262Y40092738D01*
X7602262Y40092738D02*
X7602262Y41771000D01*
X14203999Y39450999D02*
X8244001Y39450999D01*
X6214000Y41771000D02*
X7602262Y41771000D01*
X51814000Y41971000D02*
X51814000Y39871000D01*
X51814000Y39871000D02*
X52514001Y39170999D01*
X52514001Y39170999D02*
X52814000Y38871000D01*
X41798000Y31815000D02*
X41827999Y31844999D01*
X41827999Y31844999D02*
X42574001Y31844999D01*
X42574001Y31844999D02*
X43000002Y32271000D01*
X43000002Y32271000D02*
X49514000Y32271000D01*
X49514000Y32271000D02*
X50614000Y31171000D01*
X50614000Y31171000D02*
X51814010Y29970990D01*
X51814010Y29970990D02*
X51814010Y28770990D01*
X51814010Y28770990D02*
X54569458Y26015542D01*
X50614000Y31171000D02*
X50814000Y31171000D01*
X50814000Y31171000D02*
X51614000Y31971000D01*
X196596000Y51427506D02*
X196614000Y51445506D01*
X196614000Y51445506D02*
X196614000Y55571000D01*
X196614000Y55571000D02*
X195314000Y56871000D01*
X195314000Y56871000D02*
X193664000Y56871000D01*
X198374000Y57187000D02*
X198130000Y57187000D01*
X198130000Y57187000D02*
X196614000Y55671000D01*
X196596000Y51427506D02*
X196596000Y50934600D01*
X193864000Y50471000D02*
X194364000Y50471000D01*
X194364000Y50471000D02*
X195320506Y51427506D01*
X195320506Y51427506D02*
X196596000Y51427506D01*
X198221600Y48043000D02*
X198374000Y48043000D01*
X160274000Y69125000D02*
X160274000Y65981000D01*
X160274000Y65981000D02*
X160114000Y65821000D01*
X40814000Y69521000D02*
X41014000Y69521000D01*
X41014000Y69521000D02*
X43714000Y72221000D01*
X43714000Y72221000D02*
X43714000Y76371000D01*
X43714000Y76371000D02*
X44564001Y77221001D01*
X73207601Y76587797D02*
X73507600Y76287798D01*
X44564001Y77221001D02*
X72574397Y77221001D01*
X72574397Y77221001D02*
X73207601Y76587797D01*
X37592000Y70649000D02*
X38858000Y70649000D01*
X38858000Y70649000D02*
X39986000Y69521000D01*
X39986000Y69521000D02*
X40814000Y69521000D01*
X77114000Y29871000D02*
X78232000Y28753000D01*
X78232000Y28753000D02*
X78232000Y26453000D01*
X74664000Y29871000D02*
X77114000Y29871000D01*
X84074000Y68871000D02*
X84074000Y65161000D01*
X84074000Y65161000D02*
X84114000Y65121000D01*
X83964000Y68761000D02*
X84074000Y68871000D01*
X37592000Y70649000D02*
X37744400Y70649000D01*
X53731616Y16888616D02*
X53814000Y16806232D01*
X45466000Y18419000D02*
X45466000Y19099000D01*
X53814000Y16806232D02*
X53814000Y16371000D01*
X53814000Y16371000D02*
X53438999Y15995999D01*
X53438999Y15995999D02*
X47889001Y15995999D01*
X47889001Y15995999D02*
X45466000Y18419000D01*
X54342521Y17499521D02*
X53731616Y16888616D01*
X53164000Y16871000D02*
X53714000Y16871000D01*
X53714000Y16871000D02*
X53731616Y16888616D01*
X53164000Y19371000D02*
X53664000Y19371000D01*
X53664000Y19371000D02*
X54342521Y18692479D01*
X54342521Y18692479D02*
X54342521Y17499521D01*
X196596000Y50934600D02*
X198374000Y49156600D01*
X198374000Y49156600D02*
X198374000Y48043000D01*
X34514000Y32821000D02*
X35214000Y32821000D01*
X35214000Y32821000D02*
X35289001Y32745999D01*
X35289001Y32745999D02*
X37339001Y32745999D01*
X37339001Y32745999D02*
X38270000Y31815000D01*
X38270000Y31815000D02*
X41183098Y31815000D01*
X34514000Y32821000D02*
X33164000Y32821000D01*
X33164000Y32821000D02*
X32514000Y33471000D01*
X32514000Y33471000D02*
X30814000Y33471000D01*
X33114000Y35121000D02*
X33114000Y34071000D01*
X33114000Y34071000D02*
X32514000Y33471000D01*
X33114000Y34812600D02*
X33114000Y35121000D01*
X53164000Y19371000D02*
X53164000Y24610084D01*
X53164000Y24610084D02*
X54569458Y26015542D01*
X41048000Y31815000D02*
X41183098Y31815000D01*
X41183098Y31815000D02*
X41798000Y31815000D01*
X33689998Y28270000D02*
X32598180Y29361818D01*
X32598180Y29361818D02*
X32514000Y29445998D01*
X30814000Y31971000D02*
X30814000Y31145998D01*
X30814000Y31145998D02*
X32598180Y29361818D01*
X38100000Y28270000D02*
X33689998Y28270000D01*
X32514000Y29445998D02*
X32514000Y31921000D01*
X41798000Y31315000D02*
X37820000Y31315000D01*
X37820000Y31315000D02*
X37114000Y32021000D01*
X37114000Y32021000D02*
X32514000Y32021000D01*
X32564000Y32021000D02*
X32514000Y31971000D01*
X35860400Y32021000D02*
X32564000Y32021000D01*
X30814000Y31971000D02*
X30464000Y31971000D01*
X28764000Y33671000D02*
X28764000Y33721000D01*
X30464000Y31971000D02*
X28764000Y33671000D01*
X18612800Y31815000D02*
X9849800Y31815000D01*
X44692000Y24929000D02*
X44692000Y24205408D01*
X44692000Y24205408D02*
X44145592Y23659000D01*
X44914000Y26949000D02*
X44914000Y25151000D01*
X44914000Y25151000D02*
X44692000Y24929000D01*
X45069000Y73671000D02*
X45069000Y72570000D01*
X45069000Y72570000D02*
X46298000Y71341000D01*
X46298000Y71341000D02*
X50484006Y71341000D01*
X50484006Y71341000D02*
X50614001Y71470995D01*
X50614001Y71470995D02*
X50914000Y71770994D01*
X162464000Y21071000D02*
X162410400Y21017400D01*
X162410400Y21017400D02*
X124714000Y21017400D01*
X124714000Y21017400D02*
X123167600Y19471000D01*
X123167600Y19471000D02*
X115014000Y19471000D01*
X115014000Y19471000D02*
X113514000Y20971000D01*
X113514000Y20971000D02*
X112846037Y20971000D01*
X17764000Y47851000D02*
X18346726Y47851000D01*
X18346726Y47851000D02*
X21038979Y45158747D01*
X17514000Y48221000D02*
X17976726Y48221000D01*
X20976726Y45221000D02*
X21038979Y45158747D01*
X55313999Y59671001D02*
X55014000Y59971000D01*
X55514000Y59471000D02*
X55313999Y59671001D01*
X61014000Y59471000D02*
X55514000Y59471000D01*
X114428200Y63071000D02*
X110828200Y59471000D01*
X61438264Y59471000D02*
X61014000Y59471000D01*
X114453200Y63071000D02*
X114428200Y63071000D01*
X110828200Y59471000D02*
X61438264Y59471000D01*
X53198000Y37315000D02*
X53168001Y37285001D01*
X53168001Y37285001D02*
X52421999Y37285001D01*
X52236000Y37471000D02*
X49414000Y37471000D01*
X52421999Y37285001D02*
X52236000Y37471000D01*
X49414000Y37471000D02*
X49213999Y37671001D01*
X49213999Y37671001D02*
X48914000Y37971000D01*
X45206852Y29477170D02*
X46188712Y30459030D01*
X46188712Y30459030D02*
X48282896Y30459030D01*
X48282896Y30459030D02*
X48707160Y30459030D01*
X44748000Y27865000D02*
X44748000Y28615000D01*
X49131424Y30459030D02*
X48707160Y30459030D01*
X45206852Y29073852D02*
X45206852Y29477170D01*
X51248000Y27865000D02*
X51248000Y28829880D01*
X51248000Y28829880D02*
X49618850Y30459030D01*
X44748000Y28615000D02*
X45206852Y29073852D01*
X49618850Y30459030D02*
X49131424Y30459030D01*
X86214000Y18071000D02*
X84313999Y19971001D01*
X84313999Y19971001D02*
X84014000Y20271000D01*
X107859000Y18071000D02*
X86214000Y18071000D01*
X108907196Y19119196D02*
X107859000Y18071000D01*
X192062000Y25023000D02*
X192114000Y24971000D01*
X179705000Y25023000D02*
X192062000Y25023000D01*
X48489736Y37971000D02*
X48914000Y37971000D01*
X46154747Y37971000D02*
X48489736Y37971000D01*
X44244837Y37154269D02*
X45338016Y37154269D01*
X43748000Y37651106D02*
X44244837Y37154269D01*
X43748000Y39265000D02*
X43748000Y37651106D01*
X45338016Y37154269D02*
X46154747Y37971000D01*
X37080000Y25615000D02*
X37625000Y26160000D01*
X22714460Y28371000D02*
X24724439Y26361021D01*
X24724439Y26361021D02*
X35810793Y26361021D01*
X37625000Y26160000D02*
X38100000Y26160000D01*
X36556814Y25615000D02*
X37080000Y25615000D01*
X21338978Y28371000D02*
X22714460Y28371000D01*
X35810793Y26361021D02*
X36556814Y25615000D01*
X38100000Y26160000D02*
X38575000Y26160000D01*
X41076000Y23659000D02*
X44145592Y23659000D01*
X38575000Y26160000D02*
X41076000Y23659000D01*
X44914000Y26949000D02*
X44748000Y27115000D01*
X44748000Y27115000D02*
X44748000Y27865000D01*
X9849800Y31815000D02*
X9849800Y28606800D01*
X7411400Y23763200D02*
X7411400Y23610800D01*
X9849800Y28606800D02*
X7314000Y26071000D01*
X7314000Y26071000D02*
X7314000Y23860600D01*
X7314000Y23860600D02*
X7411400Y23763200D01*
X182028811Y72556191D02*
X182328810Y72856190D01*
X181019000Y69693000D02*
X181019000Y71546380D01*
X181019000Y71546380D02*
X182028811Y72556191D01*
X112846037Y20971000D02*
X110759000Y20971000D01*
X113542592Y20955826D02*
X112846037Y20955826D01*
X112846037Y20955826D02*
X110743826Y20955826D01*
X112846037Y20971000D02*
X112846037Y20955826D01*
X110759000Y20971000D02*
X108907196Y19119196D01*
X110743826Y20955826D02*
X108907196Y19119196D01*
X173240000Y20611000D02*
X170942000Y20611000D01*
X170942000Y20611000D02*
X170840400Y20712600D01*
X114088026Y20955826D02*
X113542592Y20955826D01*
X114657400Y21830200D02*
X114416966Y21830200D01*
X114416966Y21830200D02*
X113542592Y20955826D01*
X115091800Y23264600D02*
X115091800Y22264600D01*
X115091800Y22264600D02*
X114657400Y21830200D01*
X18612800Y31815000D02*
X21338978Y31815000D01*
X21638977Y31515001D02*
X21338978Y31815000D01*
X21932978Y31221000D02*
X21638977Y31515001D01*
X23514000Y31221000D02*
X21932978Y31221000D01*
X114746800Y20964600D02*
X114096800Y20964600D01*
X114096800Y20964600D02*
X114088026Y20955826D01*
X120948200Y65471000D02*
X120948200Y65921000D01*
X120948200Y65921000D02*
X119471400Y67397800D01*
X119471400Y67397800D02*
X115525000Y67397800D01*
X115525000Y67397800D02*
X115126707Y66999507D01*
X115091800Y23264600D02*
X115091800Y22814600D01*
X114598200Y66471000D02*
X115126707Y66999507D01*
X115126707Y66999507D02*
X115298200Y67171000D01*
X114598200Y65471000D02*
X114598200Y63216000D01*
X114598200Y63216000D02*
X114453200Y63071000D01*
X177614000Y72598786D02*
X177614000Y72571000D01*
X177786214Y72771000D02*
X177614000Y72598786D01*
X178589000Y72771000D02*
X177786214Y72771000D01*
X177786214Y72771000D02*
X177394000Y72771000D01*
X177394000Y72771000D02*
X177304000Y72681000D01*
X179064000Y73871000D02*
X179064000Y73246000D01*
X179064000Y73246000D02*
X178589000Y72771000D01*
X45069000Y74671000D02*
X45069000Y73671000D01*
X45069000Y74926000D02*
X45069000Y74671000D01*
X47264000Y76471000D02*
X46614000Y76471000D01*
X46614000Y76471000D02*
X45069000Y74926000D01*
X51213999Y72070993D02*
X50914000Y71770994D01*
X51419000Y72275994D02*
X51213999Y72070993D01*
X51419000Y73671000D02*
X51419000Y72275994D01*
X174669000Y69693000D02*
X174669000Y69243000D01*
X51248000Y27865000D02*
X51248000Y24837000D01*
X51248000Y24837000D02*
X52064600Y24020400D01*
X52064600Y24020400D02*
X52064600Y23407600D01*
X51419000Y73671000D02*
X51308000Y73560000D01*
X51308000Y73560000D02*
X51308000Y73443000D01*
X121441800Y23264600D02*
X121441800Y24129600D01*
X121441800Y24129600D02*
X120281799Y25289601D01*
X120281799Y25289601D02*
X116331801Y25289601D01*
X116331801Y25289601D02*
X115091800Y24049600D01*
X115091800Y24049600D02*
X115091800Y23264600D01*
X7360600Y19699200D02*
X7360600Y23560000D01*
X7360600Y23560000D02*
X7411400Y23610800D01*
X41814000Y39721000D02*
X42917000Y39721000D01*
X42917000Y39721000D02*
X43264000Y39374000D01*
X7411400Y23610800D02*
X7411400Y24876800D01*
X179705000Y25473000D02*
X179705000Y25023000D01*
X177981999Y27196001D02*
X179705000Y25473000D01*
X175078001Y27196001D02*
X177981999Y27196001D01*
X173355000Y25473000D02*
X175078001Y27196001D01*
X52064600Y23407600D02*
X52064600Y22221600D01*
X52064600Y22221600D02*
X52014000Y22171000D01*
X173355000Y25473000D02*
X173355000Y25023000D01*
X173240000Y20611000D02*
X173240000Y24908000D01*
X173240000Y24908000D02*
X173355000Y25023000D01*
X173215000Y20611000D02*
X173240000Y20611000D01*
X173355000Y25023000D02*
X173355000Y24573000D01*
X43748000Y39265000D02*
X43373000Y39265000D01*
X43373000Y39265000D02*
X43264000Y39374000D01*
X60814000Y38171000D02*
X60159600Y38825400D01*
X60159600Y38825400D02*
X55976200Y38825400D01*
X114598200Y65471000D02*
X114598200Y66471000D01*
X53198000Y37315000D02*
X54490800Y37315000D01*
X54490800Y37315000D02*
X55976200Y38800400D01*
X55976200Y38800400D02*
X55976200Y38825400D01*
X177304000Y72681000D02*
X176654000Y72681000D01*
X176654000Y72681000D02*
X174669000Y70696000D01*
X174669000Y70696000D02*
X174669000Y70693000D01*
X174669000Y70693000D02*
X174669000Y69693000D01*
X135890000Y59371400D02*
X135839200Y59422200D01*
X135839200Y59422200D02*
X135839200Y60551800D01*
X84344000Y73201000D02*
X82804000Y73201000D01*
X82804000Y73201000D02*
X81134000Y73201000D01*
X85029040Y73886040D02*
X85014000Y73901080D01*
X85014000Y73901080D02*
X85014000Y74721000D01*
X85014000Y74721000D02*
X85029040Y74705960D01*
X85029040Y73886040D02*
X84344000Y73201000D01*
X115004000Y36321000D02*
X115004000Y34982600D01*
X115004000Y34982600D02*
X115011200Y34975400D01*
X112551800Y34052000D02*
X114242008Y35742208D01*
X114242008Y35742208D02*
X114406401Y35906601D01*
X115004000Y36321000D02*
X114820800Y36321000D01*
X114820800Y36321000D02*
X114242008Y35742208D01*
X112551800Y28664600D02*
X112551800Y34052000D01*
X47609000Y68271000D02*
X47609000Y66200000D01*
D42*
X135904000Y72681000D02*
X135514000Y73071000D01*
X154482800Y72681000D02*
X135904000Y72681000D01*
D41*
X137835800Y34440600D02*
X137210800Y34440600D01*
X155683600Y34440600D02*
X137835800Y34440600D01*
X156514000Y35271000D02*
X155683600Y34440600D01*
X135839200Y60551800D02*
X135890000Y60501000D01*
X135890000Y59371400D02*
X135534400Y59015800D01*
X128090800Y59015800D02*
X127355600Y59751000D01*
X135534400Y59015800D02*
X128090800Y59015800D01*
X137210800Y34440600D02*
X129298000Y34440600D01*
X129298000Y34440600D02*
X129133600Y34276200D01*
X127263200Y59751000D02*
X127896800Y59117400D01*
X47609000Y66352027D02*
X47609000Y66200000D01*
X47609000Y68271000D02*
X47609000Y66352027D01*
X47609000Y66352027D02*
X48595027Y66352027D01*
X48595027Y66352027D02*
X48614000Y66371000D01*
X170954000Y33311000D02*
X170274000Y33311000D01*
X170274000Y33311000D02*
X168314000Y35271000D01*
X178574000Y33311000D02*
X178574000Y35211000D01*
X178574000Y35211000D02*
X178514000Y35271000D01*
X170954000Y33311000D02*
X170954000Y30562000D01*
X170954000Y30562000D02*
X170815000Y30423000D01*
X178574000Y33311000D02*
X177924000Y33311000D01*
X177924000Y33311000D02*
X177165000Y32552000D01*
X177165000Y32552000D02*
X177165000Y31423000D01*
X177165000Y31423000D02*
X177165000Y30423000D01*
X112551800Y29114600D02*
X112551800Y28664600D01*
X47609000Y66200000D02*
X46978000Y65569000D01*
X63514000Y62171000D02*
X63314000Y61971000D01*
X63314000Y61971000D02*
X49914000Y61971000D01*
X49914000Y61971000D02*
X49839001Y62045999D01*
X49839001Y62045999D02*
X49714000Y62171000D01*
X50038002Y65010200D02*
X51419000Y66391198D01*
X51419000Y66391198D02*
X51419000Y66508877D01*
X51614000Y65071000D02*
X50098802Y65071000D01*
X50098802Y65071000D02*
X50038002Y65010200D01*
X38674000Y54971000D02*
X38674000Y61022990D01*
X38674000Y61022990D02*
X39822010Y62171000D01*
X39822010Y62171000D02*
X49214000Y62171000D01*
X39622010Y61971000D02*
X39822010Y62171000D01*
X49214000Y62171000D02*
X49714000Y62171000D01*
X51419000Y68271000D02*
X51419000Y68721000D01*
X66989787Y73171000D02*
X66114000Y73171000D01*
X68434000Y73201000D02*
X67019787Y73201000D01*
X67019787Y73201000D02*
X66989787Y73171000D01*
X51419000Y66441000D02*
X51419000Y66508877D01*
X51419000Y66508877D02*
X51419000Y67271000D01*
X51419000Y67271000D02*
X51419000Y68271000D01*
X68014000Y69471000D02*
X66814000Y68271000D01*
X66814000Y68271000D02*
X54509000Y68271000D01*
X54509000Y68271000D02*
X53959000Y68271000D01*
X53214000Y65071000D02*
X53864000Y65071000D01*
X53864000Y65071000D02*
X53959000Y65166000D01*
X53959000Y65166000D02*
X53959000Y68271000D01*
X73514000Y73201000D02*
X71184000Y73201000D01*
X71184000Y73201000D02*
X71114000Y73271000D01*
X39992300Y14350600D02*
X39992300Y16549300D01*
X39992300Y16549300D02*
X40014000Y16571000D01*
X41798000Y37315000D02*
X38919038Y37315000D01*
X38919038Y37315000D02*
X38863039Y37370999D01*
X38894000Y21491000D02*
X38751590Y21348590D01*
X38751590Y21348590D02*
X37445950Y21348590D01*
X37445950Y21348590D02*
X37776410Y21348590D01*
X19017590Y21348590D02*
X37445950Y21348590D01*
X17520600Y19699200D02*
X17520600Y19851600D01*
X17520600Y19851600D02*
X19017590Y21348590D01*
X37776410Y21348590D02*
X37784000Y21341000D01*
X38854000Y17341000D02*
X38854000Y17050467D01*
X38854000Y17050467D02*
X37592533Y15789000D01*
X26540000Y15789000D02*
X26548000Y15781000D01*
X26548000Y15781000D02*
X34790000Y15781000D01*
X34790000Y15781000D02*
X34798000Y15789000D01*
X37592533Y15789000D02*
X34798000Y15789000D01*
X37673280Y14350600D02*
X37673280Y15708253D01*
X37673280Y15708253D02*
X37592533Y15789000D01*
X41798000Y34315000D02*
X36579955Y34315000D01*
X36231851Y33966896D02*
X35858181Y33966896D01*
X36579955Y34315000D02*
X36231851Y33966896D01*
X129133600Y41896200D02*
X122634000Y35396600D01*
X122634000Y35396600D02*
X122634000Y32811000D01*
X122634000Y32811000D02*
X122626000Y32803000D01*
X122626000Y32803000D02*
X121005600Y32803000D01*
X122634000Y32803000D02*
X122634000Y31180200D01*
X122634000Y31180200D02*
X121767600Y30313800D01*
X121013600Y32811000D02*
X121005600Y32803000D01*
X121467601Y30013801D02*
X121767600Y30313800D01*
X121441800Y28664600D02*
X121441800Y29988000D01*
X121441800Y29988000D02*
X121467601Y30013801D01*
X76001601Y43008999D02*
X76301600Y42709000D01*
X75354000Y44971000D02*
X75354000Y43656600D01*
X75354000Y43656600D02*
X76001601Y43008999D01*
X118901800Y28664600D02*
X118901800Y31574200D01*
X118901800Y31574200D02*
X119505600Y32178000D01*
X119505600Y32178000D02*
X119505600Y32803000D01*
X119505600Y34859000D02*
X119505600Y32803000D01*
X122224800Y37578200D02*
X122224800Y40067400D01*
X122224800Y40067400D02*
X129133600Y46976200D01*
X122224800Y37578200D02*
X119505600Y34859000D01*
X118901800Y29114600D02*
X118901800Y28664600D01*
X115997644Y74971000D02*
X114678200Y74971000D01*
X124743200Y74971000D02*
X115997644Y74971000D01*
X114653200Y73641130D02*
X114653200Y72992241D01*
X115997644Y74971000D02*
X115983070Y74971000D01*
X115983070Y74971000D02*
X114653200Y73641130D01*
X106803200Y48471000D02*
X112831601Y54499401D01*
X86174000Y48471000D02*
X106803200Y48471000D01*
X112831601Y54499401D02*
X113131600Y54799400D01*
X114659641Y72985800D02*
X115044136Y72985800D01*
X114653200Y72992241D02*
X114659641Y72985800D01*
X115044136Y72985800D02*
X115468400Y72985800D01*
X127263200Y72451000D02*
X124743200Y74971000D01*
X114678200Y74971000D02*
X114653200Y74971000D01*
X114653200Y72992241D02*
X114653200Y70926000D01*
X114653200Y70926000D02*
X114598200Y70871000D01*
X114598200Y71321000D02*
X114598200Y70871000D01*
X115674000Y52971000D02*
X116787600Y52971000D01*
X116787600Y52971000D02*
X118014000Y54197400D01*
X123703200Y67116000D02*
X122126695Y68692505D01*
X118014000Y54197400D02*
X118014000Y57971000D01*
X118014000Y57971000D02*
X123703200Y63660200D01*
X123703200Y63660200D02*
X123703200Y67116000D01*
X110693200Y42455000D02*
X110461690Y42223490D01*
X110461690Y42223490D02*
X109646490Y42223490D01*
X109646490Y42223490D02*
X109122503Y41699503D01*
X109122503Y41699503D02*
X109122503Y40942497D01*
X109122503Y40942497D02*
X109354800Y40710200D01*
X109354800Y40710200D02*
X110149600Y40710200D01*
X110693200Y42455000D02*
X110693200Y42464200D01*
X110693200Y42464200D02*
X111434000Y43205000D01*
X111434000Y43205000D02*
X111434000Y44471000D01*
X127355600Y67371000D02*
X125941387Y67371000D01*
X125941387Y67371000D02*
X123505777Y69806610D01*
X123505777Y69806610D02*
X123240800Y69806610D01*
X122126695Y68692505D02*
X120948200Y69871000D01*
X123240800Y70876200D02*
X123240800Y69806610D01*
X123240800Y69806610D02*
X122126695Y68692505D01*
X110642400Y42404200D02*
X110693200Y42455000D01*
X120948200Y69871000D02*
X120948200Y70871000D01*
X127150389Y67323811D02*
X127003200Y67471000D01*
X123178758Y73341400D02*
X123832800Y73341400D01*
X119227600Y73341400D02*
X123178758Y73341400D01*
X123178758Y73341400D02*
X123240800Y73279358D01*
X123240800Y73279358D02*
X123240800Y72376200D01*
X118408200Y70871000D02*
X118567200Y71030000D01*
X118567200Y71030000D02*
X118567200Y72681000D01*
X118567200Y72681000D02*
X119227600Y73341400D01*
X123832800Y73341400D02*
X124938669Y72235531D01*
X124938669Y72235531D02*
X126263201Y70910999D01*
X124798000Y72376200D02*
X124938669Y72235531D01*
X126263201Y70910999D02*
X127263200Y69911000D01*
X168514000Y54471000D02*
X168494000Y54491000D01*
X168494000Y54491000D02*
X168494000Y56201000D01*
X168494000Y56201000D02*
X173444000Y61151000D01*
X173444000Y61151000D02*
X175062000Y61151000D01*
X174669000Y64293000D02*
X174464000Y64088000D01*
X174464000Y64088000D02*
X174464000Y61151000D01*
X174464000Y61151000D02*
X175062000Y61151000D01*
X159324000Y39695617D02*
X159324000Y36461000D01*
X159324000Y39695617D02*
X161599383Y41971000D01*
X161599383Y41971000D02*
X163434000Y41971000D01*
X171710000Y64293000D02*
X170225999Y65777001D01*
X170225999Y65777001D02*
X169926000Y66077000D01*
X174669000Y64293000D02*
X171710000Y64293000D01*
X159324000Y36461000D02*
X159324000Y35681000D01*
X177209000Y62875659D02*
X177209000Y63293000D01*
X177209000Y62423000D02*
X177209000Y62875659D01*
X176562000Y61151000D02*
X176562000Y61776000D01*
X176562000Y61776000D02*
X177209000Y62423000D01*
X177209000Y63293000D02*
X177209000Y64293000D01*
X23494000Y42001000D02*
X10864000Y42001000D01*
X10864000Y42001000D02*
X10144000Y42721000D01*
X10144000Y42721000D02*
X8814000Y42721000D01*
X23494000Y42001000D02*
X26898213Y42001000D01*
X26898213Y42001000D02*
X28764000Y40135213D01*
X28764000Y40135213D02*
X28764000Y38721000D01*
X23494000Y41191000D02*
X23494000Y42001000D01*
X8814000Y42721000D02*
X9614000Y42721000D01*
X43114000Y13420300D02*
X43114000Y14286275D01*
X43114000Y14286275D02*
X43114000Y15171000D01*
X45914000Y13021000D02*
X44648725Y14286275D01*
X44648725Y14286275D02*
X43114000Y14286275D01*
X46624000Y13021000D02*
X45914000Y13021000D01*
D42*
X18358800Y34355000D02*
X18612800Y34355000D01*
X9369703Y38471000D02*
X14242800Y38471000D01*
X14242800Y38471000D02*
X18358800Y34355000D01*
X4514000Y42723471D02*
X4514000Y40862260D01*
X6214000Y40821000D02*
X4555260Y40821000D01*
X4514000Y40862260D02*
X4514000Y39871000D01*
X4555260Y40821000D02*
X4514000Y40862260D01*
X4514000Y47720491D02*
X4514000Y42723471D01*
X6214000Y42721000D02*
X5264000Y42721000D01*
X5264000Y42721000D02*
X5261529Y42723471D01*
X5261529Y42723471D02*
X4514000Y42723471D01*
X4514000Y49558902D02*
X4514000Y47720491D01*
X6214000Y47721000D02*
X5264000Y47721000D01*
X5264000Y47721000D02*
X5263491Y47720491D01*
X5263491Y47720491D02*
X4514000Y47720491D01*
X4514000Y51871000D02*
X4514000Y49558902D01*
X6214000Y49621000D02*
X4576098Y49621000D01*
X4576098Y49621000D02*
X4514000Y49558902D01*
X9014000Y38471000D02*
X9369703Y38471000D01*
X4514000Y39871000D02*
X5914000Y38471000D01*
X5914000Y38471000D02*
X9369703Y38471000D01*
X5805155Y53162155D02*
X4514000Y51871000D01*
X7514000Y53162155D02*
X5805155Y53162155D01*
X7514000Y62971000D02*
X7514000Y60676587D01*
X7514000Y60676587D02*
X7514000Y60196374D01*
X10114000Y60671000D02*
X8614000Y60671000D01*
X8614000Y60671000D02*
X8608413Y60676587D01*
X8608413Y60676587D02*
X7514000Y60676587D01*
X7514000Y60196374D02*
X7514000Y53162155D01*
X15494000Y75983000D02*
X15494000Y70951000D01*
X15494000Y70951000D02*
X7514000Y62971000D01*
X15494000Y75983000D02*
X15494000Y72050011D01*
X18764000Y71971000D02*
X15573011Y71971000D01*
X15573011Y71971000D02*
X15494000Y72050011D01*
X15514000Y75471000D02*
X16164000Y75471000D01*
D41*
X22754000Y49691000D02*
X21911311Y49691000D01*
X21911311Y49691000D02*
X18631311Y52971000D01*
X18631311Y52971000D02*
X17804000Y52971000D01*
X17804000Y52971000D02*
X17764000Y52931000D01*
X45084000Y48921000D02*
X44884000Y49121000D01*
X44884000Y49121000D02*
X25634000Y49121000D01*
X25634000Y49121000D02*
X25064000Y49691000D01*
X25064000Y49691000D02*
X22754000Y49691000D01*
X45248000Y39265000D02*
X45248000Y41087002D01*
X45248000Y41087002D02*
X45084002Y41251000D01*
X22828684Y48011000D02*
X20144000Y48011000D01*
X20144000Y48011000D02*
X17764000Y50391000D01*
X44384000Y48251000D02*
X44284000Y48351000D01*
X44284000Y48351000D02*
X24004000Y48351000D01*
X24004000Y48351000D02*
X23664000Y48011000D01*
X23664000Y48011000D02*
X22828684Y48011000D01*
X44748000Y39265000D02*
X44748000Y40332639D01*
X44748000Y40332639D02*
X44570021Y40510618D01*
X22828682Y48011002D02*
X22338264Y48011002D01*
X22828684Y48011000D02*
X22828682Y48011002D01*
X22338264Y48011002D02*
X21914000Y48011002D01*
X27104000Y43691000D02*
X47572000Y43691000D01*
X47572000Y43691000D02*
X51248000Y40015000D01*
X51248000Y40015000D02*
X51248000Y39265000D01*
X9900600Y19699200D02*
X9900600Y19546800D01*
X9900600Y19546800D02*
X11301389Y18146011D01*
X11301389Y18146011D02*
X25628351Y18146011D01*
X25628351Y18146011D02*
X25928320Y18445980D01*
X25928320Y18445980D02*
X26352584Y18445980D01*
X44904000Y36211000D02*
X44943999Y36171001D01*
X44943999Y36171001D02*
X52304001Y36171001D01*
X52304001Y36171001D02*
X52448000Y36315000D01*
X52448000Y36315000D02*
X53198000Y36315000D01*
X14980600Y19699200D02*
X14980600Y20965200D01*
X14980600Y20965200D02*
X15846400Y21831000D01*
X15846400Y21831000D02*
X37374000Y21831000D01*
X37374000Y21831000D02*
X38514000Y22971000D01*
X38514000Y22971000D02*
X42114000Y22971000D01*
X14980600Y19699200D02*
X14980600Y19546800D01*
X22944000Y45731000D02*
X23194000Y45981000D01*
X23194000Y45981000D02*
X46224000Y45981000D01*
X46224000Y45981000D02*
X47914001Y47671001D01*
X47914001Y47671001D02*
X48214000Y47971000D01*
X48248000Y40895980D02*
X48072980Y41071000D01*
X48248000Y39265000D02*
X48248000Y40895980D01*
X20060600Y19699200D02*
X24275010Y19699200D01*
X24275010Y19699200D02*
X24371781Y19795971D01*
X24371781Y19795971D02*
X24671780Y20095970D01*
X7514000Y13471000D02*
X12014000Y13471000D01*
X12014000Y13471000D02*
X12514000Y13971000D01*
X22865080Y14294720D02*
X22814000Y14345800D01*
X22466671Y16071000D02*
X20214000Y16071000D01*
X22814000Y14345800D02*
X22814000Y15723671D01*
X18014000Y13871000D02*
X18014000Y13221000D01*
X22814000Y15723671D02*
X22466671Y16071000D01*
X20214000Y16071000D02*
X18014000Y13871000D01*
X33305046Y27646010D02*
X33130036Y27821020D01*
X38601001Y27629999D02*
X37598999Y27629999D01*
X43748000Y27865000D02*
X38836002Y27865000D01*
X37582988Y27646010D02*
X33305046Y27646010D01*
X32709924Y25716020D02*
X32804972Y25620972D01*
X11904220Y25716020D02*
X32709924Y25716020D01*
X9951400Y23763200D02*
X11904220Y25716020D01*
X32804972Y25620972D02*
X33229236Y25620972D01*
X38836002Y27865000D02*
X38601001Y27629999D01*
X9951400Y23610800D02*
X9951400Y23763200D01*
X37598999Y27629999D02*
X37582988Y27646010D01*
X32874399Y25071000D02*
X13799200Y25071000D01*
X13799200Y25071000D02*
X12491400Y23763200D01*
X12491400Y23763200D02*
X12491400Y23610800D01*
X33274399Y24671000D02*
X32874399Y25071000D01*
X34113998Y24671000D02*
X33274399Y24671000D01*
X34413999Y29770999D02*
X34114000Y29471000D01*
X34458000Y29815000D02*
X34413999Y29770999D01*
X41798000Y29815000D02*
X34458000Y29815000D01*
X22224000Y46681000D02*
X22528264Y46681000D01*
X22528264Y46681000D02*
X22628264Y46781000D01*
X22628264Y46781000D02*
X45924000Y46781000D01*
X45924000Y46781000D02*
X48314000Y49171000D01*
X50248000Y40060378D02*
X50185916Y40122462D01*
X50185916Y40122462D02*
X49885917Y40422461D01*
X50248000Y39265000D02*
X50248000Y40060378D01*
X17614000Y27271000D02*
X21813998Y27271000D01*
X21813998Y27271000D02*
X22013998Y27471000D01*
X65702950Y37159950D02*
X65702950Y35424827D01*
X65702950Y35424827D02*
X65702950Y34771000D01*
X66664000Y35471000D02*
X66164000Y35471000D01*
X66164000Y35471000D02*
X66117827Y35424827D01*
X66117827Y35424827D02*
X65702950Y35424827D01*
X65702950Y34771000D02*
X65314000Y34771000D01*
X66114000Y37571000D02*
X65702950Y37159950D01*
X66714000Y37571000D02*
X66114000Y37571000D01*
X65314000Y34771000D02*
X62214000Y31671000D01*
X56058000Y31315000D02*
X53198000Y31315000D01*
X66664000Y35471000D02*
X66664000Y35271000D01*
X56414000Y31671000D02*
X56058000Y31315000D01*
X62214000Y31671000D02*
X56414000Y31671000D01*
X71962322Y33672678D02*
X72014000Y33621000D01*
X72014000Y33621000D02*
X72014000Y31588232D01*
X70764000Y34871000D02*
X71962322Y33672678D01*
X72014000Y31771000D02*
X72014000Y31588232D01*
X72014000Y31588232D02*
X72014000Y30171000D01*
X73164000Y32271000D02*
X72514000Y32271000D01*
X72514000Y32271000D02*
X72014000Y31771000D01*
X72314000Y29871000D02*
X73164000Y29871000D01*
X72014000Y30171000D02*
X72314000Y29871000D01*
X68164000Y35471000D02*
X68664000Y35471000D01*
X68664000Y35471000D02*
X69264000Y34871000D01*
X69264000Y34871000D02*
X70764000Y34871000D01*
X73164000Y32471000D02*
X73164000Y32271000D01*
X70403999Y21962001D02*
X70104000Y22262000D01*
X71214000Y21152000D02*
X70403999Y21962001D01*
X71214000Y13437696D02*
X71214000Y21152000D01*
X157324000Y13401000D02*
X157294000Y13371000D01*
X157294000Y13371000D02*
X150369709Y13371000D01*
X150369709Y13371000D02*
X150314729Y13425980D01*
X68164000Y37471000D02*
X68264000Y37571000D01*
X69089736Y37571000D02*
X69514000Y37571000D01*
X68264000Y37571000D02*
X69089736Y37571000D01*
X191114000Y56871000D02*
X190313999Y56070999D01*
X192164000Y56871000D02*
X191114000Y56871000D01*
X190313999Y56070999D02*
X190014000Y55771000D01*
X190313999Y55471001D02*
X190014000Y55771000D01*
X191214000Y54571000D02*
X190313999Y55471001D01*
X192164000Y54571000D02*
X191214000Y54571000D01*
X65084126Y33271000D02*
X65826459Y33271000D01*
X65826459Y33271000D02*
X65950189Y33271000D01*
X66714000Y33171000D02*
X66214000Y33171000D01*
X66214000Y33171000D02*
X66114000Y33271000D01*
X66114000Y33271000D02*
X65826459Y33271000D01*
X53822916Y30815000D02*
X56222694Y30815000D01*
X56222694Y30815000D02*
X56478694Y31071000D01*
X56478694Y31071000D02*
X62884126Y31071000D01*
X62884126Y31071000D02*
X65084126Y33271000D01*
X65950189Y33271000D02*
X65950189Y31584811D01*
X65950189Y31584811D02*
X66214000Y31321000D01*
X66214000Y31321000D02*
X66714000Y31321000D01*
X53822916Y30815000D02*
X53948000Y30815000D01*
X53198000Y30815000D02*
X53822916Y30815000D01*
X81814000Y63621000D02*
X81614000Y63621000D01*
X81614000Y63621000D02*
X79164000Y61171000D01*
X79164000Y61171000D02*
X75014000Y61171000D01*
X75014000Y61171000D02*
X74914000Y61271000D01*
X84114000Y63621000D02*
X81814000Y63621000D01*
X68264000Y33271000D02*
X70064000Y33271000D01*
X70064000Y33271000D02*
X70213999Y33420999D01*
X68117400Y33161200D02*
X68219000Y33262800D01*
X67310002Y21710736D02*
X67310002Y22135000D01*
X67310002Y13774998D02*
X67310002Y21710736D01*
X68714000Y12371000D02*
X67310002Y13774998D01*
X190504000Y50421000D02*
X192314000Y50421000D01*
X192314000Y50421000D02*
X192364000Y50471000D01*
X190564000Y43631000D02*
X190734000Y43801000D01*
X190734000Y43801000D02*
X192274000Y43801000D01*
X68214000Y31321000D02*
X69214000Y31321000D01*
X69214000Y31321000D02*
X69214000Y29646020D01*
X69214000Y29646020D02*
X68888980Y29321000D01*
X68314000Y31221000D02*
X68214000Y31321000D01*
X12514000Y15471000D02*
X13214000Y15471000D01*
X13214000Y15471000D02*
X15324000Y17581000D01*
X15324000Y17581000D02*
X36923996Y17581000D01*
X36923996Y17581000D02*
X37213997Y17871001D01*
X37213997Y17871001D02*
X37513996Y18171000D01*
X35504000Y42841000D02*
X47269002Y42841000D01*
X47269002Y42841000D02*
X48748000Y41362002D01*
X48748000Y41362002D02*
X48748000Y39265000D01*
X45748000Y39265000D02*
X45748000Y41897000D01*
X45748000Y41897000D02*
X45474000Y42171000D01*
X45474000Y42171000D02*
X42864000Y42171000D01*
X42864000Y42171000D02*
X42164000Y41471000D01*
X42164000Y41471000D02*
X41664000Y41471000D01*
X43114000Y16671000D02*
X43114000Y21221000D01*
X43114000Y21221000D02*
X45748000Y23855000D01*
X45748000Y23855000D02*
X45748000Y27115000D01*
X45748000Y27115000D02*
X45748000Y27865000D01*
X46339000Y66896001D02*
X46314000Y66871001D01*
X46339000Y68271000D02*
X46339000Y66896001D01*
X48814000Y57171000D02*
X46314000Y57171000D01*
X48864000Y57171000D02*
X48364000Y57171000D01*
X52089736Y62971000D02*
X52514000Y62971000D01*
X51751925Y62971000D02*
X52089736Y62971000D01*
X51551925Y63171000D02*
X51751925Y62971000D01*
X51551925Y63171000D02*
X39714000Y63171000D01*
X39714000Y63171000D02*
X37614000Y61071000D01*
X37614000Y61071000D02*
X37614000Y57971000D01*
X37614000Y57971000D02*
X37014000Y57371000D01*
X37014000Y57371000D02*
X33064000Y57371000D01*
X52689000Y66896000D02*
X52714000Y66871000D01*
X52689000Y68271000D02*
X52689000Y66896000D01*
X64914000Y30371000D02*
X65114000Y30171000D01*
X56714000Y30371000D02*
X64914000Y30371000D01*
X43103398Y30315000D02*
X44059384Y31270986D01*
X41798000Y30315000D02*
X43103398Y30315000D01*
X48689736Y31270986D02*
X49114000Y31270986D01*
X44059384Y31270986D02*
X48689736Y31270986D01*
X41798000Y30315000D02*
X36220000Y30315000D01*
X36220000Y30315000D02*
X35214000Y31321000D01*
X35214000Y31321000D02*
X34514000Y31321000D01*
X45877704Y21754000D02*
X46248000Y22124296D01*
X45466000Y21342296D02*
X45877704Y21754000D01*
X45877704Y21754000D02*
X45877704Y21850296D01*
X45877704Y21850296D02*
X45593000Y22135000D01*
X45466000Y20599000D02*
X45466000Y21342296D01*
X46248000Y22124296D02*
X46248000Y27115000D01*
X46248000Y27115000D02*
X46248000Y27865000D01*
X90259600Y44944200D02*
X97182921Y44944200D01*
X97182921Y44944200D02*
X97434400Y44944200D01*
X97942400Y44944200D02*
X97182921Y44944200D01*
X120171800Y30239600D02*
X120171800Y31054800D01*
X120171800Y31054800D02*
X120192800Y31075800D01*
X120171800Y28664600D02*
X120171800Y28214600D01*
X120171800Y28664600D02*
X120171800Y30239600D01*
X82030000Y50837000D02*
X88646000Y50837000D01*
X88646000Y50837000D02*
X90119200Y49363800D01*
X90119200Y49363800D02*
X106273600Y49363800D01*
X106273600Y49363800D02*
X111409201Y54499401D01*
X111409201Y54499401D02*
X111709200Y54799400D01*
X113328200Y72960744D02*
X113577547Y73210091D01*
X113328200Y70871000D02*
X113328200Y72960744D01*
X113503200Y71046000D02*
X113328200Y70871000D01*
X116433600Y40079400D02*
X116233600Y40079400D01*
X116233600Y40079400D02*
X111914000Y35759800D01*
X111914000Y35759800D02*
X111914000Y35471000D01*
X113821800Y33433600D02*
X113639600Y33615800D01*
X113821800Y28664600D02*
X113821800Y33433600D01*
X113821800Y28664600D02*
X113821800Y29114600D01*
X113821800Y29114600D02*
X114021799Y29314599D01*
X119678200Y72318800D02*
X119735600Y72376200D01*
X119678200Y70871000D02*
X119678200Y72318800D01*
X119024400Y49922600D02*
X118973600Y49871800D01*
X118973600Y49871800D02*
X117551200Y49871800D01*
X117551200Y49871800D02*
X116828000Y49871800D01*
X168503600Y39661000D02*
X168503600Y38961000D01*
X168503600Y38961000D02*
X171704000Y35760600D01*
X171704000Y35760600D02*
X171704000Y34069799D01*
X172085000Y30423000D02*
X172085000Y31423000D01*
X172085000Y31423000D02*
X171704000Y31804000D01*
X171704000Y31804000D02*
X171704000Y34019801D01*
X164794000Y57291000D02*
X163214000Y57291000D01*
X163214000Y57291000D02*
X163174000Y57251000D01*
X175939000Y64293000D02*
X175939000Y62604000D01*
X175939000Y62604000D02*
X176022000Y62521000D01*
X186029600Y38301400D02*
X186029600Y37801400D01*
X186029600Y37801400D02*
X183884000Y35655800D01*
X183884000Y35655800D02*
X183884000Y32966998D01*
X183884000Y32966998D02*
X183856798Y32966998D01*
X183856798Y32966998D02*
X182778400Y31888600D01*
X178435000Y30423000D02*
X178435000Y31812400D01*
X178435000Y31812400D02*
X178511200Y31888600D01*
X178435000Y29973000D02*
X178435000Y30423000D01*
X48248000Y22862886D02*
X48529010Y22581876D01*
X48529010Y22581876D02*
X48529010Y20243795D01*
X48248000Y27865000D02*
X48248000Y22862886D01*
X48529010Y20243795D02*
X50186598Y18586207D01*
X50186598Y18586207D02*
X50486597Y18286208D01*
X51614000Y16871000D02*
X51614000Y17158805D01*
X51614000Y17158805D02*
X50786596Y17986209D01*
X50786596Y17986209D02*
X50486597Y18286208D01*
X151638000Y64299002D02*
X151384002Y64553000D01*
X151638000Y60997000D02*
X151638000Y64299002D01*
X177614000Y54901000D02*
X177614000Y56665179D01*
X177614000Y56665179D02*
X177134676Y57144503D01*
X182289000Y62399531D02*
X182339352Y62349179D01*
X182289000Y64293000D02*
X182289000Y62399531D01*
X174244000Y16547000D02*
X173990000Y16801000D01*
X173990000Y16801000D02*
X148911155Y16801000D01*
X148911155Y16801000D02*
X148416175Y17295980D01*
X51564000Y19471000D02*
X51064000Y19471000D01*
X51064000Y19471000D02*
X48999020Y21535982D01*
X48999020Y21535982D02*
X48999020Y22776560D01*
X48748000Y27115000D02*
X48748000Y27865000D01*
X48748000Y23027580D02*
X48748000Y27115000D01*
X48999020Y22776560D02*
X48748000Y23027580D01*
X51664000Y19371000D02*
X51564000Y19471000D01*
X51564000Y19471000D02*
X51014000Y19471000D01*
X51014000Y19471000D02*
X51014000Y18871000D01*
X51014000Y18871000D02*
X51564000Y18321000D01*
X52989736Y18321000D02*
X53414000Y18321000D01*
X51564000Y18321000D02*
X52989736Y18321000D01*
X53198000Y29815000D02*
X53948000Y29815000D01*
X53948000Y29815000D02*
X55092000Y28671000D01*
X55092000Y28671000D02*
X60014006Y28671000D01*
X60014006Y28671000D02*
X60114006Y28571000D01*
X53198000Y29815000D02*
X53573000Y29815000D01*
X56514000Y73771000D02*
X54059000Y73771000D01*
X54059000Y73771000D02*
X53959000Y73671000D01*
X58924000Y33361000D02*
X58378000Y32815000D01*
X58378000Y32815000D02*
X53198000Y32815000D01*
X56514000Y70971000D02*
X55914000Y71571000D01*
X55914000Y71571000D02*
X53614000Y71571000D01*
X53614000Y71571000D02*
X52689000Y72496000D01*
X52689000Y72496000D02*
X52689000Y73671000D01*
X43724000Y35781000D02*
X42758000Y34815000D01*
X42758000Y34815000D02*
X41798000Y34815000D01*
X52544000Y49821000D02*
X52484000Y49761000D01*
X52484000Y49761000D02*
X49174000Y49761000D01*
X49174000Y49761000D02*
X48844000Y50091000D01*
X48844000Y50091000D02*
X47964000Y50091000D01*
X47964000Y50091000D02*
X45404000Y47531000D01*
X45404000Y47531000D02*
X42954000Y47531000D01*
X42954000Y47531000D02*
X42934000Y47551000D01*
X72198341Y38525980D02*
X71153321Y39571000D01*
X71153321Y39571000D02*
X56768980Y39571000D01*
X56768980Y39571000D02*
X56413999Y39925981D01*
X56413999Y39925981D02*
X56114000Y40225980D01*
X177214000Y23171000D02*
X190914000Y23171000D01*
X190914000Y23171000D02*
X191214000Y23471000D01*
X177213999Y23171001D02*
X177214000Y23171000D01*
X175914000Y23471000D02*
X176213999Y23171001D01*
X176213999Y23171001D02*
X177213999Y23171001D01*
X165514000Y23771000D02*
X165414000Y23671000D01*
X165414000Y23671000D02*
X124714000Y23671000D01*
X124714000Y23671000D02*
X122771600Y21728600D01*
X122771600Y21728600D02*
X118156400Y21728600D01*
X118156400Y21728600D02*
X117631800Y22253200D01*
X117631800Y22253200D02*
X117631800Y23264600D01*
X175895000Y25023000D02*
X175895000Y23490000D01*
X175895000Y23490000D02*
X175914000Y23471000D01*
X117138200Y65471000D02*
X117138200Y61600000D01*
X117138200Y61600000D02*
X115824000Y60285800D01*
X115824000Y60285800D02*
X112725200Y60285800D01*
X112725200Y60285800D02*
X109575600Y57136200D01*
X109575600Y57136200D02*
X54873064Y57136200D01*
X54873064Y57136200D02*
X54238264Y57771000D01*
X54238264Y57771000D02*
X53814000Y57771000D01*
X117596800Y24564600D02*
X117596800Y23299600D01*
X117596800Y23299600D02*
X117631800Y23264600D01*
X178479000Y69693000D02*
X178479000Y71736000D01*
X178479000Y71736000D02*
X178614000Y71871000D01*
X48814000Y72071000D02*
X48814000Y73606000D01*
X48814000Y73606000D02*
X48879000Y73671000D01*
X56689736Y33669980D02*
X57114000Y33669980D01*
X55660024Y33669980D02*
X56689736Y33669980D01*
X55515004Y33815000D02*
X55660024Y33669980D01*
X53198000Y33815000D02*
X55515004Y33815000D01*
X112058200Y65471000D02*
X110522800Y65471000D01*
X110522800Y65471000D02*
X109503200Y64451400D01*
X109503200Y58671000D02*
X108679600Y57847400D01*
X108679600Y57847400D02*
X63324985Y57847400D01*
X63324985Y57847400D02*
X62601385Y58571000D01*
X62601385Y58571000D02*
X57414000Y58571000D01*
X53198000Y34815000D02*
X62512602Y34815000D01*
X62512602Y34815000D02*
X66168602Y38471000D01*
X66168602Y38471000D02*
X69914000Y38471000D01*
X69914000Y38471000D02*
X71714000Y36671000D01*
X71714000Y36671000D02*
X75389736Y36671000D01*
X75389736Y36671000D02*
X75814000Y36671000D01*
X109996800Y25464600D02*
X112486800Y25464600D01*
X112486800Y25464600D02*
X113821800Y24129600D01*
X113821800Y24129600D02*
X113821800Y23264600D01*
X109996800Y23464600D02*
X108514000Y24947400D01*
X64988264Y38971000D02*
X64588264Y38571000D01*
X108514000Y24947400D02*
X108514000Y31471000D01*
X108514000Y31471000D02*
X102104021Y37880979D01*
X102104021Y37880979D02*
X71504021Y37880979D01*
X71504021Y37880979D02*
X70414000Y38971000D01*
X70414000Y38971000D02*
X64988264Y38971000D01*
X64588264Y38571000D02*
X64164000Y38571000D01*
X53948000Y34315000D02*
X53198000Y34315000D01*
X62205306Y34315000D02*
X53948000Y34315000D01*
X62219315Y34300991D02*
X62205306Y34315000D01*
X63593991Y34300991D02*
X62219315Y34300991D01*
X64214000Y34921000D02*
X63593991Y34300991D01*
X112551800Y23264600D02*
X110196800Y23264600D01*
X110196800Y23264600D02*
X109996800Y23464600D01*
X58258000Y35315000D02*
X58414000Y35471000D01*
X53198000Y35315000D02*
X58258000Y35315000D01*
X113328200Y65471000D02*
X113328200Y66471000D01*
X113328200Y66471000D02*
X112553800Y67245400D01*
X112553800Y67245400D02*
X109474000Y67245400D01*
X108269420Y56461180D02*
X108305600Y56425000D01*
X58414000Y56461180D02*
X108269420Y56461180D01*
X113328200Y65021000D02*
X113303200Y64996000D01*
X113328200Y65471000D02*
X113328200Y65021000D01*
X113328200Y65471000D02*
X113328200Y65921000D01*
X106614000Y18971000D02*
X106414000Y18771000D01*
X106414000Y18771000D02*
X87314000Y18771000D01*
X87314000Y18771000D02*
X84614000Y21471000D01*
X84614000Y21471000D02*
X79345384Y21471000D01*
X79345384Y21471000D02*
X77411384Y23405000D01*
X77411384Y23405000D02*
X72517000Y23405000D01*
X72517000Y23405000D02*
X67951000Y27971000D01*
X61268602Y27971000D02*
X60968603Y27671001D01*
X67951000Y27971000D02*
X61268602Y27971000D01*
X60968603Y27671001D02*
X56013999Y27671001D01*
X56013999Y27671001D02*
X55714000Y27971000D01*
X45589736Y33771000D02*
X45544735Y33816001D01*
X46014000Y33771000D02*
X45589736Y33771000D01*
X42549001Y33816001D02*
X42548000Y33815000D01*
X45544735Y33816001D02*
X42549001Y33816001D01*
X42548000Y33815000D02*
X41798000Y33815000D01*
X167814000Y24771000D02*
X145514000Y24771000D01*
X145514000Y24771000D02*
X145414000Y24871000D01*
X170815000Y25023000D02*
X170265000Y25023000D01*
X170815000Y25023000D02*
X168066000Y25023000D01*
X168066000Y25023000D02*
X167814000Y24771000D01*
X170815000Y25023000D02*
X170815000Y24573000D01*
X62103000Y22726736D02*
X62103000Y23151000D01*
X62103000Y15592800D02*
X62103000Y22726736D01*
X66424800Y11271000D02*
X62103000Y15592800D01*
X192114001Y21271001D02*
X192414000Y21571000D01*
X182114000Y11271000D02*
X192114001Y21271001D01*
X66424800Y11271000D02*
X182114000Y11271000D01*
X193014000Y61171000D02*
X193614000Y60571000D01*
X182289000Y69693000D02*
X182289000Y68796000D01*
X182289000Y68796000D02*
X182814000Y68271000D01*
X182814000Y68271000D02*
X184914000Y68271000D01*
X184914000Y68271000D02*
X186014000Y67171000D01*
X188415051Y65769949D02*
X192714001Y61470999D01*
X186014000Y67171000D02*
X187014000Y67171000D01*
X187014000Y67171000D02*
X188415051Y65769949D01*
X192714001Y61470999D02*
X193014000Y61171000D01*
X62014000Y29671000D02*
X61914000Y29571000D01*
X61914000Y29571000D02*
X55614000Y29571000D01*
X54870000Y30315000D02*
X53948000Y30315000D01*
X55614000Y29571000D02*
X54870000Y30315000D01*
X53948000Y30315000D02*
X53198000Y30315000D01*
X66014000Y11271000D02*
X66424800Y11271000D01*
X63514000Y18238020D02*
X63514000Y23772000D01*
X63514000Y23772000D02*
X63500000Y23786000D01*
X82184000Y18321000D02*
X82184000Y18225264D01*
X82184000Y18225264D02*
X83506664Y16902600D01*
X83506664Y16902600D02*
X145152598Y16902600D01*
X145152598Y16902600D02*
X146995999Y18746001D01*
X146995999Y18746001D02*
X166258001Y18746001D01*
X166258001Y18746001D02*
X172085000Y24573000D01*
X172085000Y24573000D02*
X172085000Y25023000D01*
X61914001Y36370999D02*
X62214000Y36071000D01*
X56758000Y35815000D02*
X57313999Y36370999D01*
X53198000Y35815000D02*
X56758000Y35815000D01*
X57313999Y36370999D02*
X61914001Y36370999D01*
X172085000Y25023000D02*
X172014000Y25094000D01*
X172014000Y25094000D02*
X172014000Y26071000D01*
X171114000Y26971000D02*
X167814000Y26971000D01*
X172014000Y26071000D02*
X171114000Y26971000D01*
X41798000Y33315000D02*
X43570000Y33315000D01*
X43570000Y33315000D02*
X43814000Y33071000D01*
X191114001Y21471001D02*
X191414000Y21771000D01*
X183714000Y14071000D02*
X191114001Y21471001D01*
X151414000Y14071000D02*
X183714000Y14071000D01*
X193014000Y62801000D02*
X193014000Y62571000D01*
X185928000Y69887000D02*
X193014000Y62801000D01*
X185928000Y69887000D02*
X183753000Y69887000D01*
X183753000Y69887000D02*
X183559000Y69693000D01*
X47248000Y21737006D02*
X47414000Y21571006D01*
X47248000Y27865000D02*
X47248000Y21737006D01*
X149812073Y29714758D02*
X149356152Y29714758D01*
X154982758Y29714758D02*
X149812073Y29714758D01*
X158749000Y33481000D02*
X154982758Y29714758D01*
X159324000Y33481000D02*
X158749000Y33481000D01*
X152214000Y14716020D02*
X154137946Y14716020D01*
X154137946Y14716020D02*
X154303463Y14881537D01*
X47748000Y22591602D02*
X48059001Y22280601D01*
X47748000Y27865000D02*
X47748000Y22591602D01*
X49864001Y17420999D02*
X50164000Y17121000D01*
X48059001Y19225999D02*
X49864001Y17420999D01*
X48059001Y22280601D02*
X48059001Y19225999D01*
X174714000Y34471000D02*
X174714000Y33371000D01*
X174714000Y33371000D02*
X175014000Y33071000D01*
X175014000Y33071000D02*
X174664000Y33421000D01*
X174664000Y33421000D02*
X174664000Y34371000D01*
X181920000Y61151000D02*
X181920000Y60526000D01*
X181920000Y60526000D02*
X181931894Y60514106D01*
X181931894Y60514106D02*
X181931894Y59608306D01*
X181931894Y59608306D02*
X183997600Y57542600D01*
X183997600Y57542600D02*
X184008840Y57542600D01*
X186174000Y52353000D02*
X186174000Y50471000D01*
X184008840Y57542600D02*
X186436000Y55115440D01*
X186436000Y55115440D02*
X186436000Y52615000D01*
X186436000Y52615000D02*
X186174000Y52353000D01*
X180307621Y62553379D02*
X180289200Y62571800D01*
X181019000Y62553379D02*
X180307621Y62553379D01*
X181019000Y64293000D02*
X181019000Y62553379D01*
X181019000Y62553379D02*
X181019000Y62027000D01*
X173532800Y43525894D02*
X173532800Y44233000D01*
X173532800Y38482200D02*
X173532800Y43525894D01*
X174664000Y37351000D02*
X173532800Y38482200D01*
X174664000Y36571000D02*
X174664000Y37351000D01*
X181019000Y64743000D02*
X181019000Y64293000D01*
X181019000Y62027000D02*
X181895000Y61151000D01*
X181895000Y61151000D02*
X181920000Y61151000D01*
X183559000Y62759346D02*
X183559000Y62604000D01*
X183559000Y64293000D02*
X183559000Y62759346D01*
X183559000Y62759346D02*
X184013254Y62759346D01*
X184013254Y62759346D02*
X184048400Y62724200D01*
X183559000Y64293000D02*
X183559000Y64743000D01*
X183559000Y64293000D02*
X183559000Y61290000D01*
X183559000Y61290000D02*
X183420000Y61151000D01*
X111508200Y74715200D02*
X111832414Y75039414D01*
X111832414Y75039414D02*
X112674400Y75881400D01*
X113153200Y74971000D02*
X111900828Y74971000D01*
X111900828Y74971000D02*
X111832414Y75039414D01*
X112674400Y75881400D02*
X113588800Y75881400D01*
X111508200Y74015398D02*
X111508200Y71871000D01*
X111508200Y74015398D02*
X111508200Y74715200D01*
X111508200Y74207200D02*
X111508200Y74015398D01*
X113030000Y75881400D02*
X113588800Y75881400D01*
X111508200Y71871000D02*
X112058200Y71321000D01*
X112058200Y71321000D02*
X112058200Y70871000D01*
X127263200Y74991000D02*
X126372800Y75881400D01*
X126372800Y75881400D02*
X113588800Y75881400D01*
X31549384Y36271000D02*
X28364000Y36271000D01*
X28364000Y36271000D02*
X25094000Y39541000D01*
X25094000Y39541000D02*
X25094000Y40471000D01*
X25094000Y40471000D02*
X25134000Y40511000D01*
X34597633Y36271000D02*
X35781618Y35087015D01*
X31549384Y36271000D02*
X34597633Y36271000D01*
X35781618Y35087015D02*
X36081617Y34787016D01*
X41798000Y30815000D02*
X37020000Y30815000D01*
X37020000Y30815000D02*
X37013999Y30821001D01*
X37013999Y30821001D02*
X36714000Y31121000D01*
X31614000Y35121000D02*
X31614000Y36206384D01*
X31614000Y36206384D02*
X31549384Y36271000D01*
X53014000Y44671000D02*
X53483723Y44201277D01*
X53483723Y44201277D02*
X54114000Y44201277D01*
X54114000Y44201277D02*
X54114000Y43371000D01*
D42*
X21514000Y71962967D02*
X21514000Y64721000D01*
X21514000Y64721000D02*
X17014000Y60221000D01*
X10114000Y56171000D02*
X12964000Y56171000D01*
X12964000Y56171000D02*
X16764000Y59971000D01*
X16764000Y59971000D02*
X17014000Y60221000D01*
D41*
X39123838Y40471000D02*
X39116000Y40478838D01*
X44248000Y39919386D02*
X43696386Y40471000D01*
X44248000Y39265000D02*
X44248000Y39919386D01*
X43696386Y40471000D02*
X39123838Y40471000D01*
X26540000Y11471000D02*
X23414000Y11471000D01*
X23414000Y11471000D02*
X22865080Y12019920D01*
X22865080Y12019920D02*
X22865080Y12794720D01*
X34798000Y11471000D02*
X33278000Y11471000D01*
X33278000Y11471000D02*
X26540000Y11471000D01*
X39967433Y11471000D02*
X37620473Y11471000D01*
X37620473Y11471000D02*
X34798000Y11471000D01*
X37673280Y12850600D02*
X37673280Y12200600D01*
X37673280Y12200600D02*
X37620473Y12147793D01*
X37620473Y12147793D02*
X37620473Y11471000D01*
X40312600Y11471000D02*
X39967433Y11471000D01*
X39992300Y12850600D02*
X39992300Y12200600D01*
X39992300Y12200600D02*
X39967433Y12175733D01*
X39967433Y12175733D02*
X39967433Y11471000D01*
X40763300Y11921700D02*
X40312600Y11471000D01*
X43114000Y11921700D02*
X41476193Y11921700D01*
X41476193Y11921700D02*
X40763300Y11921700D01*
X41514000Y13771000D02*
X41514000Y13346736D01*
X41514000Y13346736D02*
X41476193Y13308929D01*
X41476193Y13308929D02*
X41476193Y11921700D01*
X62614000Y55648380D02*
X109691380Y55648380D01*
X109691380Y55648380D02*
X112914000Y58871000D01*
X112914000Y58871000D02*
X115903200Y58871000D01*
D42*
X21514000Y74621000D02*
X21514000Y71962967D01*
X20264000Y71971000D02*
X21505967Y71971000D01*
X21505967Y71971000D02*
X21514000Y71962967D01*
X23514000Y75971000D02*
X22864000Y75971000D01*
X22864000Y75971000D02*
X21514000Y74621000D01*
X32764000Y70471000D02*
X31064000Y70471000D01*
X31064000Y70471000D02*
X25464000Y76071000D01*
X25464000Y76071000D02*
X22914000Y76071000D01*
X34514000Y70221000D02*
X33739000Y70221000D01*
X33739000Y70221000D02*
X33489000Y70471000D01*
X33489000Y70471000D02*
X32764000Y70471000D01*
X32464000Y69271000D02*
X32464000Y70171000D01*
X32464000Y70171000D02*
X32764000Y70471000D01*
D41*
X51914000Y43471000D02*
X51914000Y44343904D01*
X51914000Y44343904D02*
X52686904Y44343904D01*
X52686904Y44343904D02*
X53014000Y44671000D01*
X51814000Y43371000D02*
X51914000Y43471000D01*
X47138264Y37071000D02*
X46714000Y37071000D01*
X53183990Y36800990D02*
X47408274Y36800990D01*
X53198000Y36815000D02*
X53183990Y36800990D01*
X47408274Y36800990D02*
X47138264Y37071000D01*
X50748000Y27865000D02*
X50748000Y28615000D01*
X50748000Y28615000D02*
X49592000Y29771000D01*
X49592000Y29771000D02*
X46543772Y29771000D01*
X46543772Y29771000D02*
X46216836Y29444064D01*
X117214001Y17471001D02*
X85013999Y17471001D01*
X117714000Y17971000D02*
X117214001Y17471001D01*
X83513999Y18971001D02*
X83214000Y19271000D01*
X85013999Y17471001D02*
X83513999Y18971001D01*
X194089020Y22595980D02*
X194314000Y22371000D01*
X174625000Y22595980D02*
X194089020Y22595980D01*
X184214000Y73771000D02*
X184214000Y73671000D01*
X194014001Y63870999D02*
X194314000Y63571000D01*
X184214000Y73671000D02*
X194014001Y63870999D01*
X44248000Y39265000D02*
X44248000Y38196020D01*
X44248000Y38196020D02*
X44423020Y38021000D01*
X41114000Y25195264D02*
X41114000Y24771000D01*
X41114000Y25771000D02*
X41114000Y25195264D01*
X40974087Y25910913D02*
X41114000Y25771000D01*
D42*
X40974087Y25910913D02*
X41956000Y24929000D01*
X39830011Y27054989D02*
X40974087Y25910913D01*
D41*
X43192000Y24929000D02*
X43192000Y25554000D01*
X43192000Y25554000D02*
X44248000Y26610000D01*
X44248000Y26610000D02*
X44248000Y27115000D01*
X44248000Y27115000D02*
X44248000Y27865000D01*
D42*
X23514000Y29721000D02*
X24289000Y29721000D01*
X24289000Y29721000D02*
X26939000Y27071000D01*
X41956000Y24929000D02*
X43192000Y24929000D01*
X26939000Y27071000D02*
X37344812Y27071000D01*
X37344812Y27071000D02*
X37360823Y27054989D01*
X37360823Y27054989D02*
X39830011Y27054989D01*
X20514000Y29671000D02*
X23464000Y29671000D01*
X23464000Y29671000D02*
X23514000Y29721000D01*
X20514000Y29671000D02*
X19008800Y29671000D01*
X19008800Y29671000D02*
X18612800Y29275000D01*
D41*
X181314000Y73771000D02*
X182214000Y73771000D01*
X182214000Y73771000D02*
X182251499Y73733501D01*
X182251499Y73733501D02*
X181322095Y72804097D01*
X182288998Y73771000D02*
X184214000Y73771000D01*
X181322095Y72804097D02*
X182288998Y73771000D01*
X179749000Y71231002D02*
X181322095Y72804097D01*
X117807048Y20964600D02*
X123207600Y20964600D01*
X116246800Y20964600D02*
X117807048Y20964600D01*
X117807048Y20964600D02*
X117807048Y20777952D01*
X117807048Y20777952D02*
X117814000Y20771000D01*
X123207600Y20964600D02*
X124914000Y22671000D01*
X124914000Y22671000D02*
X163589736Y22671000D01*
X163589736Y22671000D02*
X164014000Y22671000D01*
X174740000Y20611000D02*
X174740000Y22480980D01*
X174625000Y25023000D02*
X174625000Y22595980D01*
X174740000Y22480980D02*
X174625000Y22595980D01*
X39116000Y40931000D02*
X39116000Y40478838D01*
X39116000Y40478838D02*
X39116000Y40118200D01*
X40164000Y41471000D02*
X39664000Y41471000D01*
X39664000Y41471000D02*
X39581200Y41388200D01*
X39581200Y41388200D02*
X39573200Y41388200D01*
X39573200Y41388200D02*
X39116000Y40931000D01*
X39116000Y40118200D02*
X39573200Y39661000D01*
X39573200Y39661000D02*
X40132000Y39661000D01*
X51627635Y74971000D02*
X58889736Y74971000D01*
X50127635Y76471000D02*
X51627635Y74971000D01*
X58889736Y74971000D02*
X59314000Y74971000D01*
X116361800Y23264600D02*
X116361800Y21079600D01*
X116361800Y21079600D02*
X116246800Y20964600D01*
X115953200Y63071000D02*
X115953200Y61821000D01*
X115953200Y61821000D02*
X115903200Y61771000D01*
X115868200Y65471000D02*
X115868200Y63156000D01*
X115868200Y63156000D02*
X115953200Y63071000D01*
X179749000Y69693000D02*
X179749000Y71231002D01*
X181314000Y73771000D02*
X184214000Y73771000D01*
X180564000Y73871000D02*
X181214000Y73871000D01*
X181214000Y73871000D02*
X181314000Y73771000D01*
X40039000Y12646000D02*
X40014000Y12621000D01*
X50149000Y73671000D02*
X50149000Y74570000D01*
X50699000Y75899635D02*
X50471001Y76127634D01*
X50149000Y74570000D02*
X50699000Y75120000D01*
X50471001Y76127634D02*
X50171002Y76427633D01*
X50699000Y75120000D02*
X50699000Y75899635D01*
X43114000Y11921700D02*
X43762780Y11921700D01*
X43762780Y11921700D02*
X44563480Y11121000D01*
X48530000Y11121000D02*
X49164000Y11755000D01*
X44563480Y11121000D02*
X48530000Y11121000D01*
X49164000Y11755000D02*
X49164000Y13021000D01*
X12440600Y19699200D02*
X12440600Y21020000D01*
X12440600Y21020000D02*
X13765400Y22344800D01*
X13765400Y22344800D02*
X13917800Y22344800D01*
X13917800Y22344800D02*
X15031400Y23458400D01*
X15031400Y23458400D02*
X15031400Y23610800D01*
X40164000Y39771000D02*
X40264000Y39671000D01*
X40289000Y39671000D02*
X40264000Y39671000D01*
X15114000Y29371000D02*
X18516800Y29371000D01*
X18516800Y29371000D02*
X18612800Y29275000D01*
X50127635Y76471000D02*
X50171002Y76427633D01*
X48764000Y76471000D02*
X50127635Y76471000D01*
X44248000Y27865000D02*
X44248000Y29405000D01*
X44248000Y29405000D02*
X44314000Y29471000D01*
X42950000Y25171000D02*
X43192000Y24929000D01*
X50514000Y21371000D02*
X50514000Y23357000D01*
X50514000Y23357000D02*
X50564600Y23407600D01*
X174740000Y20611000D02*
X174715000Y20611000D01*
X116361800Y20699600D02*
X116361800Y21085131D01*
X62614000Y37171000D02*
X56130600Y37171000D01*
X56130600Y37171000D02*
X55976200Y37325400D01*
X50564600Y23407600D02*
X50564600Y24032600D01*
X50564600Y24032600D02*
X50748000Y24216000D01*
X50748000Y24216000D02*
X50748000Y27115000D01*
X50748000Y27115000D02*
X50748000Y27865000D01*
X43217000Y24929000D02*
X43192000Y24929000D01*
X53198000Y36815000D02*
X55465800Y36815000D01*
X55465800Y36815000D02*
X55976200Y37325400D01*
X19058800Y29721000D02*
X18612800Y29275000D01*
X23514000Y29696000D02*
X23514000Y29721000D01*
X110149600Y38510200D02*
X110149600Y38305200D01*
X110149600Y38305200D02*
X109305400Y37461000D01*
X109305400Y37461000D02*
X109134000Y37461000D01*
X109134000Y37461000D02*
X106224000Y40371000D01*
X106224000Y40371000D02*
X72214000Y40371000D01*
X72214000Y40371000D02*
X64394000Y48191000D01*
X64394000Y48191000D02*
X50934000Y48191000D01*
X50934000Y48191000D02*
X47134000Y44391000D01*
X47134000Y44391000D02*
X38578264Y44391000D01*
X38578264Y44391000D02*
X38154000Y44391000D01*
X39161999Y33011001D02*
X38862000Y33311000D01*
X39358000Y32815000D02*
X39161999Y33011001D01*
X41798000Y32815000D02*
X39358000Y32815000D01*
D42*
X31514000Y71471000D02*
X31414000Y71571000D01*
X31414000Y71571000D02*
X31414000Y76071000D01*
D41*
X41744000Y47581000D02*
X41724000Y47601000D01*
X41724000Y47601000D02*
X34134000Y47601000D01*
X34134000Y47601000D02*
X34084000Y47551000D01*
X30564000Y69271000D02*
X30514000Y69221000D01*
X30514000Y69221000D02*
X30514000Y68471000D01*
X30514000Y68471000D02*
X30814000Y68171000D01*
X30814000Y68171000D02*
X41189736Y68171000D01*
X41189736Y68171000D02*
X41614000Y68171000D01*
X36694264Y35315000D02*
X41048000Y35315000D01*
X41048000Y35315000D02*
X41798000Y35315000D01*
X34538264Y37471000D02*
X36694264Y35315000D01*
X34114000Y37471000D02*
X34538264Y37471000D01*
X55014000Y53737000D02*
X55014000Y52471000D01*
X55014000Y53737000D02*
X54191280Y54559720D01*
X52484000Y55601000D02*
X53150000Y55601000D01*
X54191280Y54559720D02*
X53877706Y54873294D01*
X53150000Y55601000D02*
X54191280Y54559720D01*
X52494000Y55601000D02*
X52484000Y55601000D01*
X52484000Y55601000D02*
X50914000Y57171000D01*
X50914000Y57171000D02*
X50364000Y57171000D01*
X31564000Y57371000D02*
X29952800Y57371000D01*
X29952800Y57371000D02*
X29057600Y56475800D01*
X29057600Y56475800D02*
X29057600Y55514600D01*
X29057600Y55514600D02*
X28514000Y54971000D01*
X80530000Y50837000D02*
X78227600Y50837000D01*
X78227600Y50837000D02*
X76014000Y48623400D01*
X76014000Y48623400D02*
X76014000Y48471000D01*
X88759600Y44944200D02*
X85540800Y44944200D01*
X85540800Y44944200D02*
X85514000Y44971000D01*
X115316000Y49821000D02*
X113639600Y49821000D01*
X113639600Y49821000D02*
X113588800Y49770200D01*
X113588800Y49770200D02*
X113588800Y49736502D01*
X113588800Y49736502D02*
X113648151Y49677151D01*
X116514000Y44471000D02*
X116514000Y43205000D01*
X116514000Y43205000D02*
X116433600Y43124600D01*
X116433600Y43124600D02*
X116433600Y41579400D01*
X116433600Y41579400D02*
X115733600Y41579400D01*
X115733600Y41579400D02*
X113690400Y39536200D01*
X113690400Y39536200D02*
X113690400Y38492600D01*
X113690400Y38492600D02*
X112471200Y37273400D01*
X112471200Y37273400D02*
X112049600Y37695000D01*
X112049600Y37695000D02*
X112049600Y38510200D01*
X161674000Y57251000D02*
X160164000Y57251000D01*
X160164000Y57251000D02*
X158354000Y55441000D01*
X158354000Y55441000D02*
X158354000Y54471000D01*
X164994022Y36676022D02*
X161799000Y33481000D01*
X167003600Y39661000D02*
X167003600Y39461000D01*
X167003600Y39461000D02*
X164994022Y37451422D01*
X164994022Y37451422D02*
X164994022Y36676022D01*
X168514000Y41971000D02*
X168514000Y41371400D01*
X168514000Y41371400D02*
X167003600Y39861000D01*
X167003600Y39861000D02*
X167003600Y39661000D01*
X161799000Y33481000D02*
X161224000Y33481000D01*
X177614000Y53401000D02*
X177614000Y52071000D01*
X177614000Y52071000D02*
X176014000Y50471000D01*
X186014000Y41971000D02*
X186014000Y39817000D01*
X186014000Y39817000D02*
X186029600Y39801400D01*
X177007000Y35464000D02*
X180836000Y39293000D01*
X176972000Y35429000D02*
X176564000Y35021000D01*
X176564000Y35021000D02*
X176564000Y34371000D01*
X78994000Y68871000D02*
X78994000Y70491000D01*
X78994000Y70491000D02*
X78424000Y70491000D01*
X78424000Y70491000D02*
X76818989Y72096011D01*
X76818989Y72096011D02*
X76818989Y74966011D01*
X76818989Y74966011D02*
X73328782Y78456218D01*
X73328782Y78456218D02*
X43599218Y78456218D01*
X43599218Y78456218D02*
X40872000Y75729000D01*
X40872000Y75729000D02*
X38858000Y75729000D01*
X38858000Y75729000D02*
X37592000Y75729000D01*
X78994000Y68871000D02*
X78994000Y70531000D01*
X78994000Y70531000D02*
X79514000Y71051000D01*
X133514000Y75271000D02*
X133514000Y69771000D01*
X79514000Y71051000D02*
X84794000Y71051000D01*
X84794000Y71051000D02*
X91514000Y77771000D01*
X91514000Y77771000D02*
X131014000Y77771000D01*
X131014000Y77771000D02*
X133514000Y75271000D01*
X133514000Y69771000D02*
X134160000Y69125000D01*
X134160000Y69125000D02*
X147243171Y69125000D01*
X190847398Y49059000D02*
X189759398Y47971000D01*
X195834000Y49059000D02*
X190847398Y49059000D01*
X189759398Y47971000D02*
X147838264Y47971000D01*
X147838264Y47971000D02*
X147414000Y47971000D01*
X78994000Y62891000D02*
X79214000Y62671000D01*
X78994000Y68871000D02*
X78994000Y62891000D01*
X147243171Y69125000D02*
X155194000Y69125000D01*
X147214000Y67871000D02*
X147214000Y69095829D01*
X147214000Y69095829D02*
X147243171Y69125000D01*
X198374000Y42963000D02*
X198221600Y42963000D01*
D42*
X14036162Y60393162D02*
X12114159Y58471159D01*
X10114000Y58471000D02*
X12114000Y58471000D01*
X12114000Y58471000D02*
X12114159Y58471159D01*
X34514000Y71721000D02*
X34514000Y75471000D01*
X34514000Y75471000D02*
X33914000Y76071000D01*
X17514000Y63871000D02*
X14036162Y60393162D01*
X17514000Y69471000D02*
X17514000Y63871000D01*
D41*
X151038264Y59671000D02*
X150614000Y59671000D01*
X154914000Y59671000D02*
X151038264Y59671000D01*
X158314000Y63071000D02*
X154914000Y59671000D01*
X154714000Y59671000D02*
X150614000Y59671000D01*
X160114000Y64321000D02*
X160114000Y63771000D01*
X160114000Y63771000D02*
X159414000Y63071000D01*
X159414000Y63071000D02*
X158314000Y63071000D01*
X158314000Y63071000D02*
X157714000Y63671000D01*
X157714000Y63671000D02*
X157714000Y64321000D01*
X46748000Y27865000D02*
X46748000Y20805004D01*
X46748000Y20805004D02*
X46714000Y20771004D01*
X77814000Y32271000D02*
X80772000Y29313000D01*
X80772000Y29313000D02*
X80772000Y26453000D01*
X74664000Y32271000D02*
X77814000Y32271000D01*
X80772000Y26453000D02*
X80619600Y26453000D01*
X81814000Y65121000D02*
X81814000Y68591000D01*
X81814000Y68591000D02*
X81534000Y68871000D01*
X157734000Y69125000D02*
X157734000Y65841000D01*
X157734000Y65841000D02*
X157714000Y65821000D01*
X193774000Y43801000D02*
X194404000Y43801000D01*
X194404000Y43801000D02*
X196134000Y45531000D01*
X193664000Y54571000D02*
X195214000Y54571000D01*
X40814000Y74221000D02*
X39764000Y74221000D01*
X39764000Y74221000D02*
X38732000Y73189000D01*
X38732000Y73189000D02*
X37592000Y73189000D01*
X65629221Y27034715D02*
X64920506Y26326000D01*
X64920506Y26326000D02*
X56059000Y26326000D01*
X56059000Y26326000D02*
X54713999Y27671001D01*
X54713999Y27671001D02*
X54414000Y27971000D01*
X49248000Y27865000D02*
X49248000Y28869492D01*
X49248000Y28869492D02*
X49159658Y28957834D01*
X42814000Y74021000D02*
X42814000Y76578120D01*
X42814000Y76578120D02*
X44192088Y77956208D01*
X41514000Y72721000D02*
X42814000Y74021000D01*
X40814000Y72721000D02*
X41514000Y72721000D01*
X40814000Y71021000D02*
X40814000Y72721000D01*
X76144439Y74751563D02*
X76144439Y65900834D01*
X44192088Y77956208D02*
X72939794Y77956208D01*
X72939794Y77956208D02*
X76144439Y74751563D01*
X76144439Y65900834D02*
X76144439Y65440561D01*
X76144439Y65900834D02*
X76144439Y64240561D01*
X76144439Y64240561D02*
X76214000Y64171000D01*
X11163218Y47721000D02*
X11564000Y47320218D01*
X11564000Y47320218D02*
X11564000Y46171000D01*
X11564000Y46171000D02*
X11614000Y46121000D01*
X8814000Y47721000D02*
X11163218Y47721000D01*
X12364000Y40631000D02*
X10254000Y40631000D01*
X10254000Y40631000D02*
X10064000Y40821000D01*
X10064000Y40821000D02*
X8814000Y40821000D01*
X26574000Y49751000D02*
X22349233Y53975767D01*
X22349233Y53975767D02*
X22104000Y54221000D01*
X17764000Y55471000D02*
X20854000Y55471000D01*
X20854000Y55471000D02*
X22349233Y53975767D01*
X45824000Y49621000D02*
X45694000Y49751000D01*
X45694000Y49751000D02*
X26574000Y49751000D01*
X46504000Y41971000D02*
X46504000Y40891704D01*
X46504000Y40891704D02*
X46248000Y40635704D01*
X46248000Y40635704D02*
X46248000Y40015000D01*
X46248000Y40015000D02*
X46248000Y39265000D01*
X105614000Y39671000D02*
X105189736Y39671000D01*
X105189736Y39671000D02*
X105084705Y39776031D01*
X56914000Y40871000D02*
X56574000Y41211000D01*
X56574000Y41211000D02*
X54324000Y41211000D01*
X105084705Y39776031D02*
X71805526Y39776031D01*
X70710557Y40871000D02*
X56914000Y40871000D01*
X71805526Y39776031D02*
X70710557Y40871000D01*
X54324000Y41211000D02*
X54114000Y41421000D01*
X54114000Y41421000D02*
X54114000Y41921000D01*
D42*
X137284000Y41061000D02*
X133039200Y36816200D01*
X133039200Y36816200D02*
X129133600Y36816200D01*
D41*
X37304000Y45211000D02*
X37384000Y45131000D01*
X37384000Y45131000D02*
X46674000Y45131000D01*
X46674000Y45131000D02*
X50544000Y49001000D01*
X50544000Y49001000D02*
X64675600Y49001000D01*
X64675600Y49001000D02*
X72505600Y41171000D01*
X72505600Y41171000D02*
X105794000Y41171000D01*
X105794000Y41171000D02*
X106354000Y41731000D01*
X106354000Y41731000D02*
X106354000Y44471000D01*
X113153200Y40710200D02*
X112049600Y40710200D01*
X113564000Y41121000D02*
X113153200Y40710200D01*
X112049600Y40710200D02*
X112050400Y40711000D01*
X112050400Y40711000D02*
X112884000Y40711000D01*
D42*
X85057110Y78471000D02*
X83869600Y78471000D01*
X83869600Y78471000D02*
X81619600Y76221000D01*
X81619600Y76221000D02*
X80434000Y76221000D01*
X80434000Y76221000D02*
X78594000Y74381000D01*
X78594000Y74381000D02*
X78594000Y73201000D01*
X135914001Y64471001D02*
X136314000Y64871000D01*
X136314000Y64871000D02*
X136814000Y64871000D01*
X136814000Y64871000D02*
X136914000Y64971000D01*
X133734000Y62291000D02*
X135914001Y64471001D01*
X127263200Y62291000D02*
X133734000Y62291000D01*
D41*
X135839200Y62051800D02*
X135839200Y64396200D01*
X135839200Y64396200D02*
X135914001Y64471001D01*
D42*
X135759150Y76526954D02*
X135259151Y77026953D01*
X136065104Y76221000D02*
X135759150Y76526954D01*
X133815104Y78471000D02*
X134759152Y77526952D01*
X150764000Y76221000D02*
X136065104Y76221000D01*
X134759152Y77526952D02*
X135259151Y77026953D01*
X85057110Y78471000D02*
X133815104Y78471000D01*
D41*
X154083600Y35940600D02*
X155611065Y37468065D01*
X156667200Y37476600D02*
X155619600Y37476600D01*
X155619600Y37476600D02*
X155611065Y37468065D01*
X137210800Y35940600D02*
X154083600Y35940600D01*
X158173600Y40524600D02*
X157758820Y40524600D01*
X157758820Y40524600D02*
X157114000Y39879780D01*
X158354000Y41971000D02*
X158354000Y40705000D01*
X158354000Y40705000D02*
X158173600Y40524600D01*
X118465600Y37001536D02*
X118465600Y37425800D01*
X118465600Y35055198D02*
X118465600Y37001536D01*
X115328751Y31918349D02*
X118465600Y35055198D01*
X115091800Y31918349D02*
X115328751Y31918349D01*
X115091800Y32694600D02*
X115091800Y31918349D01*
X115091800Y31918349D02*
X115091800Y30447047D01*
X115091800Y32694600D02*
X115011200Y32775200D01*
X115011200Y32775200D02*
X115011200Y33475400D01*
X85014000Y76221000D02*
X85014000Y78427890D01*
X85014000Y78427890D02*
X85057110Y78471000D01*
D42*
X166492000Y64459000D02*
X166492000Y65873213D01*
X166492000Y65873213D02*
X159684213Y72681000D01*
X159684213Y72681000D02*
X156854000Y72681000D01*
X156854000Y72681000D02*
X153314000Y76221000D01*
X153314000Y76221000D02*
X150764000Y76221000D01*
D41*
X78594000Y73201000D02*
X78594000Y74615213D01*
X78594000Y74615213D02*
X74238213Y78971000D01*
X74238213Y78971000D02*
X50593760Y78971000D01*
X50593760Y78971000D02*
X42914000Y78971000D01*
X137210800Y35940600D02*
X130009200Y35940600D01*
X130009200Y35940600D02*
X129133600Y36816200D01*
X170684256Y37734966D02*
X170384257Y38034965D01*
X172454000Y35965222D02*
X170684256Y37734966D01*
X172454000Y33311000D02*
X172454000Y35965222D01*
X180074000Y35127798D02*
X180340000Y35393798D01*
X180074000Y33311000D02*
X180074000Y35127798D01*
D42*
X175854000Y41971000D02*
X175854000Y40555000D01*
X175854000Y40555000D02*
X176564000Y39845000D01*
X176564000Y39845000D02*
X176564000Y37501000D01*
X176564000Y37501000D02*
X176564000Y36571000D01*
D41*
X157114000Y38971000D02*
X157114000Y39879780D01*
X115091800Y28664600D02*
X115091800Y30447047D01*
X115091800Y30447047D02*
X115091800Y30619600D01*
X45069000Y68271000D02*
X45069000Y66520387D01*
X43714000Y66471000D02*
X45019613Y66471000D01*
X45069000Y66520387D02*
X45069000Y65978000D01*
X45019613Y66471000D02*
X45069000Y66520387D01*
X179705000Y30423000D02*
X179814000Y30532000D01*
X179814000Y30532000D02*
X179814000Y33051000D01*
X179814000Y33051000D02*
X180074000Y33311000D01*
X176564000Y37256000D02*
X176564000Y36571000D01*
X161224000Y35681000D02*
X161224000Y38036119D01*
X41798000Y32315000D02*
X38842000Y32315000D01*
X38842000Y32315000D02*
X37846000Y33311000D01*
X172454000Y33311000D02*
X172454000Y32686000D01*
X172454000Y32686000D02*
X173355000Y31785000D01*
X173355000Y31785000D02*
X173355000Y31423000D01*
X173355000Y31423000D02*
X173355000Y30423000D01*
X45069000Y65978000D02*
X45478000Y65569000D01*
X16914000Y61711000D02*
X19644000Y64441000D01*
X19644000Y64441000D02*
X19644000Y67531000D01*
X10767926Y49354412D02*
X10774514Y49361000D01*
X10774514Y49361000D02*
X13324000Y49361000D01*
X13324000Y49361000D02*
X13734000Y49771000D01*
X13734000Y49771000D02*
X13734000Y50381000D01*
X11634000Y50521000D02*
X11634000Y49354412D01*
X11634000Y49354412D02*
X10767926Y49354412D01*
X10767926Y49354412D02*
X9880588Y49354412D01*
X9880588Y49354412D02*
X9614000Y49621000D01*
X9614000Y49621000D02*
X8814000Y49621000D01*
M02*
