G04 #@! TF.FileFunction,Legend,Top*
%FSLAX46Y46*%
G04 Gerber Fmt 4.6, Leading zero omitted, Abs format (unit mm)*
G04 Created by KiCad (PCBNEW 4.0.1-stable) date 12/11/2016 23:12:02*
%MOMM*%
G01*
G04 APERTURE LIST*
%ADD10C,0.100000*%
%ADD11C,0.300000*%
%ADD12C,0.150000*%
G04 APERTURE END LIST*
D10*
D11*
X32857145Y4464286D02*
X32785716Y4392857D01*
X32571430Y4321429D01*
X32428573Y4321429D01*
X32214288Y4392857D01*
X32071430Y4535714D01*
X32000002Y4678571D01*
X31928573Y4964286D01*
X31928573Y5178571D01*
X32000002Y5464286D01*
X32071430Y5607143D01*
X32214288Y5750000D01*
X32428573Y5821429D01*
X32571430Y5821429D01*
X32785716Y5750000D01*
X32857145Y5678571D01*
X34142859Y4321429D02*
X34142859Y5107143D01*
X34071430Y5250000D01*
X33928573Y5321429D01*
X33642859Y5321429D01*
X33500002Y5250000D01*
X34142859Y4392857D02*
X34000002Y4321429D01*
X33642859Y4321429D01*
X33500002Y4392857D01*
X33428573Y4535714D01*
X33428573Y4678571D01*
X33500002Y4821429D01*
X33642859Y4892857D01*
X34000002Y4892857D01*
X34142859Y4964286D01*
X35500002Y5321429D02*
X35500002Y4321429D01*
X34857145Y5321429D02*
X34857145Y4535714D01*
X34928573Y4392857D01*
X35071431Y4321429D01*
X35285716Y4321429D01*
X35428573Y4392857D01*
X35500002Y4464286D01*
X36857145Y4321429D02*
X36857145Y5821429D01*
X36857145Y4392857D02*
X36714288Y4321429D01*
X36428574Y4321429D01*
X36285716Y4392857D01*
X36214288Y4464286D01*
X36142859Y4607143D01*
X36142859Y5035714D01*
X36214288Y5178571D01*
X36285716Y5250000D01*
X36428574Y5321429D01*
X36714288Y5321429D01*
X36857145Y5250000D01*
X37785717Y4321429D02*
X37642859Y4392857D01*
X37571431Y4464286D01*
X37500002Y4607143D01*
X37500002Y5035714D01*
X37571431Y5178571D01*
X37642859Y5250000D01*
X37785717Y5321429D01*
X38000002Y5321429D01*
X38142859Y5250000D01*
X38214288Y5178571D01*
X38285717Y5035714D01*
X38285717Y4607143D01*
X38214288Y4464286D01*
X38142859Y4392857D01*
X38000002Y4321429D01*
X37785717Y4321429D01*
X38857145Y4392857D02*
X39000002Y4321429D01*
X39285717Y4321429D01*
X39428574Y4392857D01*
X39500002Y4535714D01*
X39500002Y4607143D01*
X39428574Y4750000D01*
X39285717Y4821429D01*
X39071431Y4821429D01*
X38928574Y4892857D01*
X38857145Y5035714D01*
X38857145Y5107143D01*
X38928574Y5250000D01*
X39071431Y5321429D01*
X39285717Y5321429D01*
X39428574Y5250000D01*
X41285717Y4321429D02*
X41285717Y5321429D01*
X41285717Y5821429D02*
X41214288Y5750000D01*
X41285717Y5678571D01*
X41357145Y5750000D01*
X41285717Y5821429D01*
X41285717Y5678571D01*
X42000003Y5321429D02*
X42000003Y4321429D01*
X42000003Y5178571D02*
X42071431Y5250000D01*
X42214289Y5321429D01*
X42428574Y5321429D01*
X42571431Y5250000D01*
X42642860Y5107143D01*
X42642860Y4321429D01*
X43214289Y5321429D02*
X43571432Y4321429D01*
X43928574Y5321429D01*
X45071431Y4392857D02*
X44928574Y4321429D01*
X44642860Y4321429D01*
X44500003Y4392857D01*
X44428574Y4535714D01*
X44428574Y5107143D01*
X44500003Y5250000D01*
X44642860Y5321429D01*
X44928574Y5321429D01*
X45071431Y5250000D01*
X45142860Y5107143D01*
X45142860Y4964286D01*
X44428574Y4821429D01*
X45785717Y4321429D02*
X45785717Y5321429D01*
X45785717Y5035714D02*
X45857145Y5178571D01*
X45928574Y5250000D01*
X46071431Y5321429D01*
X46214288Y5321429D01*
X46500002Y5321429D02*
X47071431Y5321429D01*
X46714288Y5821429D02*
X46714288Y4535714D01*
X46785716Y4392857D01*
X46928574Y4321429D01*
X47071431Y4321429D01*
X48142859Y4392857D02*
X48000002Y4321429D01*
X47714288Y4321429D01*
X47571431Y4392857D01*
X47500002Y4535714D01*
X47500002Y5107143D01*
X47571431Y5250000D01*
X47714288Y5321429D01*
X48000002Y5321429D01*
X48142859Y5250000D01*
X48214288Y5107143D01*
X48214288Y4964286D01*
X47500002Y4821429D01*
X48857145Y4321429D02*
X48857145Y5321429D01*
X48857145Y5035714D02*
X48928573Y5178571D01*
X49000002Y5250000D01*
X49142859Y5321429D01*
X49285716Y5321429D01*
X51571430Y4392857D02*
X51428573Y4321429D01*
X51142859Y4321429D01*
X51000001Y4392857D01*
X50928573Y4464286D01*
X50857144Y4607143D01*
X50857144Y5035714D01*
X50928573Y5178571D01*
X51000001Y5250000D01*
X51142859Y5321429D01*
X51428573Y5321429D01*
X51571430Y5250000D01*
X52428573Y4321429D02*
X52285715Y4392857D01*
X52214287Y4464286D01*
X52142858Y4607143D01*
X52142858Y5035714D01*
X52214287Y5178571D01*
X52285715Y5250000D01*
X52428573Y5321429D01*
X52642858Y5321429D01*
X52785715Y5250000D01*
X52857144Y5178571D01*
X52928573Y5035714D01*
X52928573Y4607143D01*
X52857144Y4464286D01*
X52785715Y4392857D01*
X52642858Y4321429D01*
X52428573Y4321429D01*
X53571430Y5321429D02*
X53571430Y4321429D01*
X53571430Y5178571D02*
X53642858Y5250000D01*
X53785716Y5321429D01*
X54000001Y5321429D01*
X54142858Y5250000D01*
X54214287Y5107143D01*
X54214287Y4321429D01*
X54714287Y5321429D02*
X55285716Y5321429D01*
X54928573Y5821429D02*
X54928573Y4535714D01*
X55000001Y4392857D01*
X55142859Y4321429D01*
X55285716Y4321429D01*
X55785716Y4321429D02*
X55785716Y5321429D01*
X55785716Y5035714D02*
X55857144Y5178571D01*
X55928573Y5250000D01*
X56071430Y5321429D01*
X56214287Y5321429D01*
X56928573Y4321429D02*
X56785715Y4392857D01*
X56714287Y4464286D01*
X56642858Y4607143D01*
X56642858Y5035714D01*
X56714287Y5178571D01*
X56785715Y5250000D01*
X56928573Y5321429D01*
X57142858Y5321429D01*
X57285715Y5250000D01*
X57357144Y5178571D01*
X57428573Y5035714D01*
X57428573Y4607143D01*
X57357144Y4464286D01*
X57285715Y4392857D01*
X57142858Y4321429D01*
X56928573Y4321429D01*
X58285716Y4321429D02*
X58142858Y4392857D01*
X58071430Y4535714D01*
X58071430Y5821429D01*
X60000001Y4321429D02*
X60000001Y5821429D01*
X60000001Y5250000D02*
X60142858Y5321429D01*
X60428572Y5321429D01*
X60571429Y5250000D01*
X60642858Y5178571D01*
X60714287Y5035714D01*
X60714287Y4607143D01*
X60642858Y4464286D01*
X60571429Y4392857D01*
X60428572Y4321429D01*
X60142858Y4321429D01*
X60000001Y4392857D01*
X61571430Y4321429D02*
X61428572Y4392857D01*
X61357144Y4464286D01*
X61285715Y4607143D01*
X61285715Y5035714D01*
X61357144Y5178571D01*
X61428572Y5250000D01*
X61571430Y5321429D01*
X61785715Y5321429D01*
X61928572Y5250000D01*
X62000001Y5178571D01*
X62071430Y5035714D01*
X62071430Y4607143D01*
X62000001Y4464286D01*
X61928572Y4392857D01*
X61785715Y4321429D01*
X61571430Y4321429D01*
X63357144Y4321429D02*
X63357144Y5107143D01*
X63285715Y5250000D01*
X63142858Y5321429D01*
X62857144Y5321429D01*
X62714287Y5250000D01*
X63357144Y4392857D02*
X63214287Y4321429D01*
X62857144Y4321429D01*
X62714287Y4392857D01*
X62642858Y4535714D01*
X62642858Y4678571D01*
X62714287Y4821429D01*
X62857144Y4892857D01*
X63214287Y4892857D01*
X63357144Y4964286D01*
X64071430Y4321429D02*
X64071430Y5321429D01*
X64071430Y5035714D02*
X64142858Y5178571D01*
X64214287Y5250000D01*
X64357144Y5321429D01*
X64500001Y5321429D01*
X65642858Y4321429D02*
X65642858Y5821429D01*
X65642858Y4392857D02*
X65500001Y4321429D01*
X65214287Y4321429D01*
X65071429Y4392857D01*
X65000001Y4464286D01*
X64928572Y4607143D01*
X64928572Y5035714D01*
X65000001Y5178571D01*
X65071429Y5250000D01*
X65214287Y5321429D01*
X65500001Y5321429D01*
X65642858Y5250000D01*
X67285715Y5821429D02*
X67785715Y4321429D01*
X68285715Y5821429D01*
X70714286Y4321429D02*
X69857143Y4321429D01*
X70285715Y4321429D02*
X70285715Y5821429D01*
X70142858Y5607143D01*
X70000000Y5464286D01*
X69857143Y5392857D01*
X73571428Y5678571D02*
X73642857Y5750000D01*
X73785714Y5821429D01*
X74142857Y5821429D01*
X74285714Y5750000D01*
X74357143Y5678571D01*
X74428571Y5535714D01*
X74428571Y5392857D01*
X74357143Y5178571D01*
X73500000Y4321429D01*
X74428571Y4321429D01*
X75357142Y5821429D02*
X75499999Y5821429D01*
X75642856Y5750000D01*
X75714285Y5678571D01*
X75785714Y5535714D01*
X75857142Y5250000D01*
X75857142Y4892857D01*
X75785714Y4607143D01*
X75714285Y4464286D01*
X75642856Y4392857D01*
X75499999Y4321429D01*
X75357142Y4321429D01*
X75214285Y4392857D01*
X75142856Y4464286D01*
X75071428Y4607143D01*
X74999999Y4892857D01*
X74999999Y5250000D01*
X75071428Y5535714D01*
X75142856Y5678571D01*
X75214285Y5750000D01*
X75357142Y5821429D01*
X77285713Y4321429D02*
X76428570Y4321429D01*
X76857142Y4321429D02*
X76857142Y5821429D01*
X76714285Y5607143D01*
X76571427Y5464286D01*
X76428570Y5392857D01*
X78571427Y5821429D02*
X78285713Y5821429D01*
X78142856Y5750000D01*
X78071427Y5678571D01*
X77928570Y5464286D01*
X77857141Y5178571D01*
X77857141Y4607143D01*
X77928570Y4464286D01*
X77999998Y4392857D01*
X78142856Y4321429D01*
X78428570Y4321429D01*
X78571427Y4392857D01*
X78642856Y4464286D01*
X78714284Y4607143D01*
X78714284Y4964286D01*
X78642856Y5107143D01*
X78571427Y5178571D01*
X78428570Y5250000D01*
X78142856Y5250000D01*
X77999998Y5178571D01*
X77928570Y5107143D01*
X77857141Y4964286D01*
X82071426Y5821429D02*
X82071426Y4750000D01*
X81999998Y4535714D01*
X81857141Y4392857D01*
X81642855Y4321429D01*
X81499998Y4321429D01*
X82999998Y4321429D02*
X82857140Y4392857D01*
X82785712Y4464286D01*
X82714283Y4607143D01*
X82714283Y5035714D01*
X82785712Y5178571D01*
X82857140Y5250000D01*
X82999998Y5321429D01*
X83214283Y5321429D01*
X83357140Y5250000D01*
X83428569Y5178571D01*
X83499998Y5035714D01*
X83499998Y4607143D01*
X83428569Y4464286D01*
X83357140Y4392857D01*
X83214283Y4321429D01*
X82999998Y4321429D01*
X84071426Y4392857D02*
X84214283Y4321429D01*
X84499998Y4321429D01*
X84642855Y4392857D01*
X84714283Y4535714D01*
X84714283Y4607143D01*
X84642855Y4750000D01*
X84499998Y4821429D01*
X84285712Y4821429D01*
X84142855Y4892857D01*
X84071426Y5035714D01*
X84071426Y5107143D01*
X84142855Y5250000D01*
X84285712Y5321429D01*
X84499998Y5321429D01*
X84642855Y5250000D01*
X85928569Y4392857D02*
X85785712Y4321429D01*
X85499998Y4321429D01*
X85357141Y4392857D01*
X85285712Y4535714D01*
X85285712Y5107143D01*
X85357141Y5250000D01*
X85499998Y5321429D01*
X85785712Y5321429D01*
X85928569Y5250000D01*
X85999998Y5107143D01*
X85999998Y4964286D01*
X85285712Y4821429D01*
X88499998Y4321429D02*
X87785712Y4321429D01*
X87785712Y5821429D01*
X89642855Y5321429D02*
X89642855Y4321429D01*
X88999998Y5321429D02*
X88999998Y4535714D01*
X89071426Y4392857D01*
X89214284Y4321429D01*
X89428569Y4321429D01*
X89571426Y4392857D01*
X89642855Y4464286D01*
X90999998Y5321429D02*
X90999998Y4321429D01*
X90357141Y5321429D02*
X90357141Y4535714D01*
X90428569Y4392857D01*
X90571427Y4321429D01*
X90785712Y4321429D01*
X90928569Y4392857D01*
X90999998Y4464286D01*
X28756857Y75876715D02*
X28756857Y75376715D01*
X29542571Y75376715D02*
X28042571Y75376715D01*
X28042571Y76091001D01*
X29114000Y76591000D02*
X29114000Y77305286D01*
X29542571Y76448143D02*
X28042571Y76948143D01*
X29542571Y77448143D01*
X29542571Y77948143D02*
X28042571Y77948143D01*
X29542571Y78805286D01*
X28042571Y78805286D01*
X157191144Y78513857D02*
X158334001Y78513857D01*
X157762572Y77942429D02*
X157762572Y79085286D01*
X159834001Y77942429D02*
X158976858Y77942429D01*
X159405430Y77942429D02*
X159405430Y79442429D01*
X159262573Y79228143D01*
X159119715Y79085286D01*
X158976858Y79013857D01*
X160405429Y79299571D02*
X160476858Y79371000D01*
X160619715Y79442429D01*
X160976858Y79442429D01*
X161119715Y79371000D01*
X161191144Y79299571D01*
X161262572Y79156714D01*
X161262572Y79013857D01*
X161191144Y78799571D01*
X160334001Y77942429D01*
X161262572Y77942429D01*
X161691143Y79442429D02*
X162191143Y77942429D01*
X162691143Y79442429D01*
X8115429Y75813857D02*
X9258286Y75813857D01*
X8686857Y75242429D02*
X8686857Y76385286D01*
X10686858Y76742429D02*
X9972572Y76742429D01*
X9901143Y76028143D01*
X9972572Y76099571D01*
X10115429Y76171000D01*
X10472572Y76171000D01*
X10615429Y76099571D01*
X10686858Y76028143D01*
X10758286Y75885286D01*
X10758286Y75528143D01*
X10686858Y75385286D01*
X10615429Y75313857D01*
X10472572Y75242429D01*
X10115429Y75242429D01*
X9972572Y75313857D01*
X9901143Y75385286D01*
X11186857Y76742429D02*
X11686857Y75242429D01*
X12186857Y76742429D01*
D12*
X165432000Y59839000D02*
X165432000Y79239000D01*
X165432000Y79219000D02*
X171532000Y79219000D01*
X171512000Y79239000D02*
X171512000Y59839000D01*
X171532000Y59859000D02*
X165432000Y59859000D01*
X115578000Y50546800D02*
X116578000Y50546800D01*
X116578000Y49196800D02*
X115578000Y49196800D01*
X111428200Y66096000D02*
X111533200Y66096000D01*
X111428200Y70246000D02*
X111533200Y70246000D01*
X121578200Y70246000D02*
X121473200Y70246000D01*
X121578200Y66096000D02*
X121473200Y66096000D01*
X111428200Y66096000D02*
X111428200Y70246000D01*
X121578200Y66096000D02*
X121578200Y70246000D01*
X111533200Y66096000D02*
X111533200Y64721000D01*
X30114000Y70971000D02*
X32914000Y70971000D01*
X32914000Y70971000D02*
X32914000Y69971000D01*
X32914000Y69971000D02*
X30114000Y69971000D01*
X30114000Y69971000D02*
X30114000Y70871000D01*
X54589000Y73046000D02*
X54484000Y73046000D01*
X54589000Y68896000D02*
X54484000Y68896000D01*
X44439000Y68896000D02*
X44544000Y68896000D01*
X44439000Y73046000D02*
X44544000Y73046000D01*
X54589000Y73046000D02*
X54589000Y68896000D01*
X44439000Y73046000D02*
X44439000Y68896000D01*
X54484000Y73046000D02*
X54484000Y74421000D01*
X19864000Y71371000D02*
X19164000Y71371000D01*
X19164000Y72571000D02*
X19864000Y72571000D01*
X30264000Y37721000D02*
X30264000Y34721000D01*
X30264000Y34721000D02*
X27764000Y34721000D01*
X27764000Y34721000D02*
X27764000Y37721000D01*
X27764000Y37721000D02*
X30264000Y37721000D01*
X33839000Y31571000D02*
X33839000Y32571000D01*
X35189000Y32571000D02*
X35189000Y31571000D01*
X128063600Y32196200D02*
X128063600Y51596200D01*
X128103600Y51586200D02*
X134213600Y51586200D01*
X134213600Y51596200D02*
X134213600Y32196200D01*
X128103600Y32206200D02*
X134103600Y32206200D01*
X31414000Y33071000D02*
X31414000Y32371000D01*
X30214000Y32371000D02*
X30214000Y33071000D01*
X33114000Y33071000D02*
X33114000Y32371000D01*
X31914000Y32371000D02*
X31914000Y33071000D01*
X45878000Y66169000D02*
X46578000Y66169000D01*
X46578000Y64969000D02*
X45878000Y64969000D01*
X137810800Y35540600D02*
X137810800Y34840600D01*
X136610800Y34840600D02*
X136610800Y35540600D01*
X85614000Y75821000D02*
X85614000Y75121000D01*
X84414000Y75121000D02*
X84414000Y75821000D01*
X136439200Y61651800D02*
X136439200Y60951800D01*
X135239200Y60951800D02*
X135239200Y61651800D01*
X173640000Y21211000D02*
X174340000Y21211000D01*
X174340000Y20011000D02*
X173640000Y20011000D01*
X114253200Y74371000D02*
X113553200Y74371000D01*
X113553200Y75571000D02*
X114253200Y75571000D01*
X172054000Y32711000D02*
X171354000Y32711000D01*
X171354000Y33911000D02*
X172054000Y33911000D01*
X179674000Y32711000D02*
X178974000Y32711000D01*
X178974000Y33911000D02*
X179674000Y33911000D01*
X182320000Y61751000D02*
X183020000Y61751000D01*
X183020000Y60551000D02*
X182320000Y60551000D01*
X22894000Y40091000D02*
X22894000Y40791000D01*
X24094000Y40791000D02*
X24094000Y40091000D01*
X22914000Y30121000D02*
X22914000Y30821000D01*
X24114000Y30821000D02*
X24114000Y30121000D01*
X33914000Y70621000D02*
X33914000Y71321000D01*
X35114000Y71321000D02*
X35114000Y70621000D01*
X43563580Y13120580D02*
X42664420Y13120580D01*
X42664420Y13120580D02*
X42664420Y13519360D01*
X43563580Y13519360D02*
X42664420Y13519360D01*
X43563580Y13120580D02*
X43563580Y13519360D01*
X43563580Y11822640D02*
X42664420Y11822640D01*
X42664420Y11822640D02*
X42664420Y12221420D01*
X43563580Y12221420D02*
X42664420Y12221420D01*
X43563580Y11822640D02*
X43563580Y12221420D01*
X43563580Y12671000D02*
X43413720Y12671000D01*
X43413720Y12671000D02*
X43413720Y12970720D01*
X43563580Y12970720D02*
X43413720Y12970720D01*
X43563580Y12671000D02*
X43563580Y12970720D01*
X42814280Y12671000D02*
X42664420Y12671000D01*
X42664420Y12671000D02*
X42664420Y12970720D01*
X42814280Y12970720D02*
X42664420Y12970720D01*
X42814280Y12671000D02*
X42814280Y12970720D01*
X43263860Y12671000D02*
X42964140Y12671000D01*
X42964140Y12671000D02*
X42964140Y12970720D01*
X43263860Y12970720D02*
X42964140Y12970720D01*
X43263860Y12671000D02*
X43263860Y12970720D01*
X43512780Y13120580D02*
X43512780Y12221420D01*
X42715220Y13120580D02*
X42715220Y12221420D01*
X38100000Y27465000D02*
X38100000Y27715000D01*
X38100000Y26965000D02*
X38100000Y26715000D01*
X38100000Y26965000D02*
X37750000Y27465000D01*
X37750000Y27465000D02*
X38450000Y27465000D01*
X38450000Y27465000D02*
X38100000Y26965000D01*
X37750000Y26965000D02*
X38450000Y26965000D01*
X38900000Y25915000D02*
X38900000Y28315000D01*
X37300000Y25915000D02*
X37300000Y28315000D01*
X16894000Y76283000D02*
X16894000Y75783000D01*
X14094000Y76283000D02*
X14094000Y75783000D01*
X15494000Y76233000D02*
X17744000Y76233000D01*
X17744000Y76233000D02*
X17744000Y75733000D01*
X17744000Y75733000D02*
X13244000Y75733000D01*
X13244000Y75733000D02*
X13244000Y76233000D01*
X13244000Y76233000D02*
X15494000Y76233000D01*
X160164000Y76271000D02*
X160164000Y75771000D01*
X157364000Y76271000D02*
X157364000Y75771000D01*
X158764000Y76221000D02*
X161014000Y76221000D01*
X161014000Y76221000D02*
X161014000Y75721000D01*
X161014000Y75721000D02*
X156514000Y75721000D01*
X156514000Y75721000D02*
X156514000Y76221000D01*
X156514000Y76221000D02*
X158764000Y76221000D01*
X8630600Y20969200D02*
X21330600Y20969200D01*
X21330600Y20969200D02*
X21330600Y18429200D01*
X21330600Y18429200D02*
X8630600Y18429200D01*
X5810600Y21249200D02*
X7360600Y21249200D01*
X8630600Y20969200D02*
X8630600Y18429200D01*
X7360600Y18149200D02*
X5810600Y18149200D01*
X5810600Y18149200D02*
X5810600Y21249200D01*
X8914000Y13771000D02*
X8914000Y13271000D01*
X6114000Y13771000D02*
X6114000Y13271000D01*
X7514000Y13721000D02*
X9764000Y13721000D01*
X9764000Y13721000D02*
X9764000Y13221000D01*
X9764000Y13221000D02*
X5264000Y13221000D01*
X5264000Y13221000D02*
X5264000Y13721000D01*
X5264000Y13721000D02*
X7514000Y13721000D01*
X19414000Y13521000D02*
X19414000Y13021000D01*
X16614000Y13521000D02*
X16614000Y13021000D01*
X18014000Y13471000D02*
X20264000Y13471000D01*
X20264000Y13471000D02*
X20264000Y12971000D01*
X20264000Y12971000D02*
X15764000Y12971000D01*
X15764000Y12971000D02*
X15764000Y13471000D01*
X15764000Y13471000D02*
X18014000Y13471000D01*
X8681400Y24880800D02*
X21381400Y24880800D01*
X21381400Y24880800D02*
X21381400Y22340800D01*
X21381400Y22340800D02*
X8681400Y22340800D01*
X5861400Y25160800D02*
X7411400Y25160800D01*
X8681400Y24880800D02*
X8681400Y22340800D01*
X7411400Y22060800D02*
X5861400Y22060800D01*
X5861400Y22060800D02*
X5861400Y25160800D01*
X67914000Y34796000D02*
X66914000Y34796000D01*
X66914000Y36146000D02*
X67914000Y36146000D01*
X67964000Y36896000D02*
X66964000Y36896000D01*
X66964000Y38246000D02*
X67964000Y38246000D01*
X67964000Y32496000D02*
X66964000Y32496000D01*
X66964000Y33846000D02*
X67964000Y33846000D01*
X67964000Y30646000D02*
X66964000Y30646000D01*
X66964000Y31996000D02*
X67964000Y31996000D01*
X11839000Y14221000D02*
X11839000Y15221000D01*
X13189000Y15221000D02*
X13189000Y14221000D01*
X22190080Y13044720D02*
X22190080Y14044720D01*
X23540080Y14044720D02*
X23540080Y13044720D01*
X40414000Y42146000D02*
X41414000Y42146000D01*
X41414000Y40796000D02*
X40414000Y40796000D01*
X42439000Y15421000D02*
X42439000Y16421000D01*
X43789000Y16421000D02*
X43789000Y15421000D01*
X31814000Y58046000D02*
X32814000Y58046000D01*
X32814000Y56696000D02*
X31814000Y56696000D01*
X46141000Y20349000D02*
X46141000Y19349000D01*
X44791000Y19349000D02*
X44791000Y20349000D01*
X89009600Y45619200D02*
X90009600Y45619200D01*
X90009600Y44269200D02*
X89009600Y44269200D01*
X81780000Y50162000D02*
X80780000Y50162000D01*
X80780000Y51512000D02*
X81780000Y51512000D01*
X167253600Y40336000D02*
X168253600Y40336000D01*
X168253600Y38986000D02*
X167253600Y38986000D01*
X161924000Y57926000D02*
X162924000Y57926000D01*
X162924000Y56576000D02*
X161924000Y56576000D01*
X186704600Y39551400D02*
X186704600Y38551400D01*
X185354600Y38551400D02*
X185354600Y39551400D01*
X52914000Y16196000D02*
X51914000Y16196000D01*
X51914000Y17546000D02*
X52914000Y17546000D01*
X52914000Y18696000D02*
X51914000Y18696000D01*
X51914000Y20046000D02*
X52914000Y20046000D01*
X126295600Y57671000D02*
X126295600Y77071000D01*
X126295600Y77051000D02*
X132395600Y77051000D01*
X132375600Y77071000D02*
X132375600Y57671000D01*
X132395600Y57691000D02*
X126295600Y57691000D01*
X111921800Y23889600D02*
X112026800Y23889600D01*
X111921800Y28039600D02*
X112026800Y28039600D01*
X122071800Y28039600D02*
X121966800Y28039600D01*
X122071800Y23889600D02*
X121966800Y23889600D01*
X111921800Y23889600D02*
X111921800Y28039600D01*
X122071800Y23889600D02*
X122071800Y28039600D01*
X112026800Y23889600D02*
X112026800Y22514600D01*
X170185000Y25648000D02*
X170290000Y25648000D01*
X170185000Y29798000D02*
X170290000Y29798000D01*
X180335000Y29798000D02*
X180230000Y29798000D01*
X180335000Y25648000D02*
X180230000Y25648000D01*
X170185000Y25648000D02*
X170185000Y29798000D01*
X180335000Y25648000D02*
X180335000Y29798000D01*
X170290000Y25648000D02*
X170290000Y24273000D01*
X109499600Y39310200D02*
G75*
G03X109499600Y39310200I-100000J0D01*
G01*
X109649600Y39860200D02*
X109649600Y39360200D01*
X112549600Y39860200D02*
X109649600Y39860200D01*
X112549600Y39360200D02*
X112549600Y39860200D01*
X109649600Y39360200D02*
X112549600Y39360200D01*
X16199800Y33339000D02*
X19882800Y33339000D01*
X19882800Y33339000D02*
X19882800Y35371000D01*
X19882800Y35371000D02*
X16199800Y35371000D01*
X16199800Y30799000D02*
X19882800Y30799000D01*
X19882800Y30799000D02*
X19882800Y32831000D01*
X19882800Y32831000D02*
X16199800Y32831000D01*
X16199800Y28259000D02*
X19882800Y28259000D01*
X19882800Y28259000D02*
X19882800Y30291000D01*
X19882800Y30291000D02*
X16199800Y30291000D01*
X16199800Y26481000D02*
X16199800Y37149000D01*
X16199800Y37149000D02*
X6039800Y37149000D01*
X6039800Y37149000D02*
X6039800Y26481000D01*
X6039800Y26481000D02*
X16199800Y26481000D01*
X184189000Y69068000D02*
X184084000Y69068000D01*
X184189000Y64918000D02*
X184084000Y64918000D01*
X174039000Y64918000D02*
X174144000Y64918000D01*
X174039000Y69068000D02*
X174144000Y69068000D01*
X184189000Y69068000D02*
X184189000Y64918000D01*
X174039000Y69068000D02*
X174039000Y64918000D01*
X184084000Y69068000D02*
X184084000Y70443000D01*
X174014000Y35171000D02*
G75*
G03X174014000Y35171000I-100000J0D01*
G01*
X174164000Y35721000D02*
X174164000Y35221000D01*
X177064000Y35721000D02*
X174164000Y35721000D01*
X177064000Y35221000D02*
X177064000Y35721000D01*
X174164000Y35221000D02*
X177064000Y35221000D01*
X158674000Y34281000D02*
G75*
G03X158674000Y34281000I-100000J0D01*
G01*
X158824000Y34831000D02*
X158824000Y34331000D01*
X161724000Y34831000D02*
X158824000Y34831000D01*
X161724000Y34331000D02*
X161724000Y34831000D01*
X158824000Y34331000D02*
X161724000Y34331000D01*
X42323000Y38740000D02*
X42323000Y37665000D01*
X52673000Y38740000D02*
X52673000Y37665000D01*
X52673000Y28390000D02*
X52673000Y29465000D01*
X42323000Y28390000D02*
X42323000Y29465000D01*
X42323000Y38740000D02*
X43398000Y38740000D01*
X42323000Y28390000D02*
X43398000Y28390000D01*
X52673000Y28390000D02*
X51598000Y28390000D01*
X52673000Y38740000D02*
X51598000Y38740000D01*
X42323000Y37665000D02*
X41298000Y37665000D01*
X43592000Y25529000D02*
X44292000Y25529000D01*
X44292000Y24329000D02*
X43592000Y24329000D01*
X40532000Y40261000D02*
X41232000Y40261000D01*
X41232000Y39061000D02*
X40532000Y39061000D01*
X50964600Y24007600D02*
X51664600Y24007600D01*
X51664600Y22807600D02*
X50964600Y22807600D01*
X56576200Y38425400D02*
X56576200Y37725400D01*
X55376200Y37725400D02*
X55376200Y38425400D01*
X115146800Y21564600D02*
X115846800Y21564600D01*
X115846800Y20364600D02*
X115146800Y20364600D01*
X115553200Y62471000D02*
X114853200Y62471000D01*
X114853200Y63671000D02*
X115553200Y63671000D01*
X47664000Y77071000D02*
X48364000Y77071000D01*
X48364000Y75871000D02*
X47664000Y75871000D01*
X40592300Y13950600D02*
X40592300Y13250600D01*
X39392300Y13250600D02*
X39392300Y13950600D01*
X38273280Y13950600D02*
X38273280Y13250600D01*
X37073280Y13250600D02*
X37073280Y13950600D01*
X120605600Y32203000D02*
X119905600Y32203000D01*
X119905600Y33403000D02*
X120605600Y33403000D01*
X114411200Y33875400D02*
X114411200Y34575400D01*
X115611200Y34575400D02*
X115611200Y33875400D01*
X122640800Y71276200D02*
X122640800Y71976200D01*
X123840800Y71976200D02*
X123840800Y71276200D01*
X175462000Y61751000D02*
X176162000Y61751000D01*
X176162000Y60551000D02*
X175462000Y60551000D01*
X180164000Y73271000D02*
X179464000Y73271000D01*
X179464000Y74471000D02*
X180164000Y74471000D01*
X21514000Y75771000D02*
X21514000Y76271000D01*
X24314000Y75771000D02*
X24314000Y76271000D01*
X22914000Y75821000D02*
X20664000Y75821000D01*
X20664000Y75821000D02*
X20664000Y76321000D01*
X20664000Y76321000D02*
X25164000Y76321000D01*
X25164000Y76321000D02*
X25164000Y75821000D01*
X25164000Y75821000D02*
X22914000Y75821000D01*
X152164000Y76521000D02*
X152164000Y76021000D01*
X149364000Y76521000D02*
X149364000Y76021000D01*
X150764000Y76471000D02*
X153014000Y76471000D01*
X153014000Y76471000D02*
X153014000Y75971000D01*
X153014000Y75971000D02*
X148514000Y75971000D01*
X148514000Y75971000D02*
X148514000Y76471000D01*
X148514000Y76471000D02*
X150764000Y76471000D01*
X47894000Y11751000D02*
X45354000Y11751000D01*
X50714000Y11471000D02*
X49164000Y11471000D01*
X47894000Y11751000D02*
X47894000Y14291000D01*
X49164000Y14571000D02*
X50714000Y14571000D01*
X50714000Y14571000D02*
X50714000Y11471000D01*
X47894000Y14291000D02*
X45354000Y14291000D01*
X45354000Y14291000D02*
X45354000Y11751000D01*
X50114000Y56496000D02*
X49114000Y56496000D01*
X49114000Y57846000D02*
X50114000Y57846000D01*
X117108600Y41329400D02*
X117108600Y40329400D01*
X115758600Y40329400D02*
X115758600Y41329400D01*
X176939000Y53651000D02*
X176939000Y54651000D01*
X178289000Y54651000D02*
X178289000Y53651000D01*
X83214000Y72131000D02*
X63814000Y72131000D01*
X63824000Y72171000D02*
X63824000Y78281000D01*
X63814000Y78281000D02*
X83214000Y78281000D01*
X83204000Y72171000D02*
X83204000Y78171000D01*
X57317219Y71371000D02*
G75*
G03X57317219Y71371000I-803219J0D01*
G01*
X57317219Y73771000D02*
G75*
G03X57317219Y73771000I-803219J0D01*
G01*
X72644000Y67601000D02*
X75184000Y67601000D01*
X75464000Y70421000D02*
X75464000Y68871000D01*
X75464000Y70421000D02*
X72364000Y70421000D01*
X72364000Y70421000D02*
X72364000Y68871000D01*
X72644000Y27723000D02*
X72644000Y25183000D01*
X75464000Y24903000D02*
X73914000Y24903000D01*
X75464000Y24903000D02*
X75464000Y28003000D01*
X75464000Y28003000D02*
X73914000Y28003000D01*
X110277219Y67245400D02*
G75*
G03X110277219Y67245400I-803219J0D01*
G01*
X110800019Y25464600D02*
G75*
G03X110800019Y25464600I-803219J0D01*
G01*
X110306419Y64451400D02*
G75*
G03X110306419Y64451400I-803219J0D01*
G01*
X110800019Y23464600D02*
G75*
G03X110800019Y23464600I-803219J0D01*
G01*
X82042000Y27723000D02*
X76962000Y27723000D01*
X76962000Y27723000D02*
X76962000Y25183000D01*
X76962000Y25183000D02*
X82042000Y25183000D01*
X84862000Y24903000D02*
X83312000Y24903000D01*
X82042000Y25183000D02*
X82042000Y27723000D01*
X83312000Y28003000D02*
X84862000Y28003000D01*
X84862000Y28003000D02*
X84862000Y24903000D01*
X80264000Y67601000D02*
X85344000Y67601000D01*
X85344000Y67601000D02*
X85344000Y70141000D01*
X85344000Y70141000D02*
X80264000Y70141000D01*
X77444000Y70421000D02*
X78994000Y70421000D01*
X80264000Y70141000D02*
X80264000Y67601000D01*
X78994000Y67321000D02*
X77444000Y67321000D01*
X77444000Y67321000D02*
X77444000Y70421000D01*
X168617219Y26971000D02*
G75*
G03X168617219Y26971000I-803219J0D01*
G01*
X168617219Y24771000D02*
G75*
G03X168617219Y24771000I-803219J0D01*
G01*
X156464000Y67855000D02*
X161544000Y67855000D01*
X161544000Y67855000D02*
X161544000Y70395000D01*
X161544000Y70395000D02*
X156464000Y70395000D01*
X153644000Y70675000D02*
X155194000Y70675000D01*
X156464000Y70395000D02*
X156464000Y67855000D01*
X155194000Y67575000D02*
X153644000Y67575000D01*
X153644000Y67575000D02*
X153644000Y70675000D01*
X186817219Y67171000D02*
G75*
G03X186817219Y67171000I-803219J0D01*
G01*
X186731219Y69887000D02*
G75*
G03X186731219Y69887000I-803219J0D01*
G01*
X36322000Y74459000D02*
X36322000Y69379000D01*
X36322000Y69379000D02*
X38862000Y69379000D01*
X38862000Y69379000D02*
X38862000Y74459000D01*
X39142000Y77279000D02*
X39142000Y75729000D01*
X38862000Y74459000D02*
X36322000Y74459000D01*
X36042000Y75729000D02*
X36042000Y77279000D01*
X36042000Y77279000D02*
X39142000Y77279000D01*
X199644000Y44233000D02*
X199644000Y49313000D01*
X199644000Y49313000D02*
X197104000Y49313000D01*
X197104000Y49313000D02*
X197104000Y44233000D01*
X196824000Y41413000D02*
X196824000Y42963000D01*
X197104000Y44233000D02*
X199644000Y44233000D01*
X199924000Y42963000D02*
X199924000Y41413000D01*
X199924000Y41413000D02*
X196824000Y41413000D01*
X175794000Y18097000D02*
X175794000Y16547000D01*
X172694000Y16547000D02*
X172694000Y18097000D01*
X172694000Y18097000D02*
X175794000Y18097000D01*
X172974000Y15277000D02*
X175514000Y15277000D01*
X199644000Y53377000D02*
X199644000Y58457000D01*
X199644000Y58457000D02*
X197104000Y58457000D01*
X197104000Y58457000D02*
X197104000Y53377000D01*
X196824000Y50557000D02*
X196824000Y52107000D01*
X197104000Y53377000D02*
X199644000Y53377000D01*
X199924000Y52107000D02*
X199924000Y50557000D01*
X199924000Y50557000D02*
X196824000Y50557000D01*
X175260000Y72173000D02*
X175260000Y74713000D01*
X172440000Y74993000D02*
X173990000Y74993000D01*
X172440000Y74993000D02*
X172440000Y71893000D01*
X172440000Y71893000D02*
X173990000Y71893000D01*
X29490000Y66357000D02*
X29490000Y64807000D01*
X26390000Y64807000D02*
X26390000Y66357000D01*
X26390000Y66357000D02*
X29490000Y66357000D01*
X26670000Y63537000D02*
X29210000Y63537000D01*
X32864000Y34446000D02*
X31864000Y34446000D01*
X31864000Y35796000D02*
X32864000Y35796000D01*
X35164000Y74371000D02*
X35164000Y73471000D01*
X35164000Y73471000D02*
X30164000Y73471000D01*
X30164000Y73471000D02*
X30164000Y74371000D01*
X35164000Y76071000D02*
X35164000Y79271000D01*
X35164000Y79271000D02*
X30264000Y79271000D01*
X30264000Y79271000D02*
X30164000Y79271000D01*
X30164000Y79271000D02*
X30164000Y76071000D01*
X30164000Y76071000D02*
X30164000Y74371000D01*
X30164000Y74371000D02*
X35164000Y74371000D01*
X35164000Y74371000D02*
X35164000Y76071000D01*
X56244000Y53741000D02*
X43584000Y53741000D01*
X43584000Y53741000D02*
X43584000Y51201000D01*
X43584000Y51201000D02*
X56244000Y51201000D01*
X56244000Y51201000D02*
X56244000Y53741000D01*
X27284000Y53701000D02*
X39944000Y53701000D01*
X39944000Y53701000D02*
X39944000Y56241000D01*
X39944000Y56241000D02*
X27284000Y56241000D01*
X27284000Y56241000D02*
X27284000Y53701000D01*
X74784000Y47201000D02*
X87444000Y47201000D01*
X87444000Y47201000D02*
X87444000Y49741000D01*
X87444000Y49741000D02*
X74784000Y49741000D01*
X74784000Y49741000D02*
X74784000Y47201000D01*
X86744000Y46241000D02*
X74084000Y46241000D01*
X74084000Y46241000D02*
X74084000Y43701000D01*
X74084000Y43701000D02*
X86744000Y43701000D01*
X86744000Y43701000D02*
X86744000Y46241000D01*
X104284000Y51701000D02*
X116944000Y51701000D01*
X116944000Y51701000D02*
X116944000Y54241000D01*
X116944000Y54241000D02*
X104284000Y54241000D01*
X104284000Y54241000D02*
X104284000Y51701000D01*
X117744000Y45741000D02*
X105084000Y45741000D01*
X105084000Y45741000D02*
X105084000Y43201000D01*
X105084000Y43201000D02*
X117744000Y43201000D01*
X117744000Y43201000D02*
X117744000Y45741000D01*
X157124000Y53201000D02*
X169784000Y53201000D01*
X169784000Y53201000D02*
X169784000Y55741000D01*
X169784000Y55741000D02*
X157124000Y55741000D01*
X157124000Y55741000D02*
X157124000Y53201000D01*
X169744000Y43241000D02*
X157084000Y43241000D01*
X157084000Y43241000D02*
X157084000Y40701000D01*
X157084000Y40701000D02*
X169744000Y40701000D01*
X169744000Y40701000D02*
X169744000Y43241000D01*
X174784000Y49201000D02*
X187444000Y49201000D01*
X187444000Y49201000D02*
X187444000Y51741000D01*
X187444000Y51741000D02*
X174784000Y51741000D01*
X174784000Y51741000D02*
X174784000Y49201000D01*
X187244000Y43241000D02*
X174584000Y43241000D01*
X174584000Y43241000D02*
X174584000Y40701000D01*
X174584000Y40701000D02*
X187244000Y40701000D01*
X187244000Y40701000D02*
X187244000Y43241000D01*
X52114000Y65671000D02*
X52814000Y65671000D01*
X52814000Y64471000D02*
X52114000Y64471000D01*
X11034000Y50921000D02*
X11034000Y51621000D01*
X12234000Y51621000D02*
X12234000Y50921000D01*
X82489000Y64871000D02*
X82489000Y63871000D01*
X81139000Y63871000D02*
X81139000Y64871000D01*
X84789000Y64871000D02*
X84789000Y63871000D01*
X83439000Y63871000D02*
X83439000Y64871000D01*
X73414000Y30546000D02*
X74414000Y30546000D01*
X74414000Y29196000D02*
X73414000Y29196000D01*
X73414000Y32946000D02*
X74414000Y32946000D01*
X74414000Y31596000D02*
X73414000Y31596000D01*
X158389000Y65571000D02*
X158389000Y64571000D01*
X157039000Y64571000D02*
X157039000Y65571000D01*
X160789000Y65571000D02*
X160789000Y64571000D01*
X159439000Y64571000D02*
X159439000Y65571000D01*
X193524000Y43126000D02*
X192524000Y43126000D01*
X192524000Y44476000D02*
X193524000Y44476000D01*
X193614000Y49796000D02*
X192614000Y49796000D01*
X192614000Y51146000D02*
X193614000Y51146000D01*
X40139000Y69771000D02*
X40139000Y70771000D01*
X41489000Y70771000D02*
X41489000Y69771000D01*
X41489000Y73971000D02*
X41489000Y72971000D01*
X40139000Y72971000D02*
X40139000Y73971000D01*
X193414000Y53896000D02*
X192414000Y53896000D01*
X192414000Y55246000D02*
X193414000Y55246000D01*
X192414000Y57546000D02*
X193414000Y57546000D01*
X193414000Y56196000D02*
X192414000Y56196000D01*
X53439000Y42171000D02*
X53439000Y43171000D01*
X54789000Y43171000D02*
X54789000Y42171000D01*
X51139000Y42171000D02*
X51139000Y43171000D01*
X52489000Y43171000D02*
X52489000Y42171000D01*
X5264000Y55221000D02*
X5264000Y61721000D01*
X5264000Y61721000D02*
X8764000Y61721000D01*
X8764000Y61721000D02*
X8764000Y55221000D01*
X8764000Y55221000D02*
X5264000Y55221000D01*
X27419000Y16630000D02*
X33919000Y16630000D01*
X33919000Y16630000D02*
X33919000Y10630000D01*
X33919000Y10630000D02*
X27419000Y10630000D01*
X27419000Y10630000D02*
X27419000Y16630000D01*
X32436767Y13630000D02*
G75*
G03X32436767Y13630000I-1767767J0D01*
G01*
X12214000Y45721000D02*
X12214000Y45021000D01*
X11014000Y45021000D02*
X11014000Y45721000D01*
X12764000Y41231000D02*
X13464000Y41231000D01*
X13464000Y40031000D02*
X12764000Y40031000D01*
X16214000Y55471000D02*
X16214000Y57021000D01*
X16214000Y57021000D02*
X19314000Y57021000D01*
X19314000Y57021000D02*
X19314000Y55471000D01*
X19034000Y54201000D02*
X19034000Y44041000D01*
X19034000Y44041000D02*
X16494000Y44041000D01*
X16494000Y44041000D02*
X16494000Y54201000D01*
X19034000Y54201000D02*
X16494000Y54201000D01*
X20644000Y69031000D02*
X23644000Y69031000D01*
X23644000Y69031000D02*
X23644000Y66531000D01*
X23644000Y66531000D02*
X20644000Y66531000D01*
X20644000Y66531000D02*
X20644000Y69031000D01*
X889000Y75856000D02*
X889000Y68236000D01*
X3429000Y75856000D02*
X3429000Y68236000D01*
X3709000Y78676000D02*
X3709000Y77126000D01*
X889000Y68236000D02*
X3429000Y68236000D01*
X3429000Y75856000D02*
X889000Y75856000D01*
X609000Y77126000D02*
X609000Y78676000D01*
X609000Y78676000D02*
X3709000Y78676000D01*
X167592095Y59468619D02*
X167592095Y58659095D01*
X167639714Y58563857D01*
X167687333Y58516238D01*
X167782571Y58468619D01*
X167973048Y58468619D01*
X168068286Y58516238D01*
X168115905Y58563857D01*
X168163524Y58659095D01*
X168163524Y59468619D01*
X168687333Y58468619D02*
X168877809Y58468619D01*
X168973048Y58516238D01*
X169020667Y58563857D01*
X169115905Y58706714D01*
X169163524Y58897190D01*
X169163524Y59278143D01*
X169115905Y59373381D01*
X169068286Y59421000D01*
X168973048Y59468619D01*
X168782571Y59468619D01*
X168687333Y59421000D01*
X168639714Y59373381D01*
X168592095Y59278143D01*
X168592095Y59040048D01*
X168639714Y58944810D01*
X168687333Y58897190D01*
X168782571Y58849571D01*
X168973048Y58849571D01*
X169068286Y58897190D01*
X169115905Y58944810D01*
X169163524Y59040048D01*
X115471143Y47558619D02*
X115137809Y48034810D01*
X114899714Y47558619D02*
X114899714Y48558619D01*
X115280667Y48558619D01*
X115375905Y48511000D01*
X115423524Y48463381D01*
X115471143Y48368143D01*
X115471143Y48225286D01*
X115423524Y48130048D01*
X115375905Y48082429D01*
X115280667Y48034810D01*
X114899714Y48034810D01*
X115852095Y48463381D02*
X115899714Y48511000D01*
X115994952Y48558619D01*
X116233048Y48558619D01*
X116328286Y48511000D01*
X116375905Y48463381D01*
X116423524Y48368143D01*
X116423524Y48272905D01*
X116375905Y48130048D01*
X115804476Y47558619D01*
X116423524Y47558619D01*
X117280667Y48225286D02*
X117280667Y47558619D01*
X117042571Y48606238D02*
X116804476Y47891952D01*
X117423524Y47891952D01*
X109855581Y70509095D02*
X110665105Y70509095D01*
X110760343Y70556714D01*
X110807962Y70604333D01*
X110855581Y70699571D01*
X110855581Y70890048D01*
X110807962Y70985286D01*
X110760343Y71032905D01*
X110665105Y71080524D01*
X109855581Y71080524D01*
X110284152Y71699571D02*
X110236533Y71604333D01*
X110188914Y71556714D01*
X110093676Y71509095D01*
X110046057Y71509095D01*
X109950819Y71556714D01*
X109903200Y71604333D01*
X109855581Y71699571D01*
X109855581Y71890048D01*
X109903200Y71985286D01*
X109950819Y72032905D01*
X110046057Y72080524D01*
X110093676Y72080524D01*
X110188914Y72032905D01*
X110236533Y71985286D01*
X110284152Y71890048D01*
X110284152Y71699571D01*
X110331771Y71604333D01*
X110379390Y71556714D01*
X110474629Y71509095D01*
X110665105Y71509095D01*
X110760343Y71556714D01*
X110807962Y71604333D01*
X110855581Y71699571D01*
X110855581Y71890048D01*
X110807962Y71985286D01*
X110760343Y72032905D01*
X110665105Y72080524D01*
X110474629Y72080524D01*
X110379390Y72032905D01*
X110331771Y71985286D01*
X110284152Y71890048D01*
X27642572Y69923381D02*
X27547334Y69971000D01*
X27452096Y70066238D01*
X27309239Y70209095D01*
X27214000Y70256714D01*
X27118762Y70256714D01*
X27166381Y70018619D02*
X27071143Y70066238D01*
X26975905Y70161476D01*
X26928286Y70351952D01*
X26928286Y70685286D01*
X26975905Y70875762D01*
X27071143Y70971000D01*
X27166381Y71018619D01*
X27356858Y71018619D01*
X27452096Y70971000D01*
X27547334Y70875762D01*
X27594953Y70685286D01*
X27594953Y70351952D01*
X27547334Y70161476D01*
X27452096Y70066238D01*
X27356858Y70018619D01*
X27166381Y70018619D01*
X28547334Y70018619D02*
X27975905Y70018619D01*
X28261619Y70018619D02*
X28261619Y71018619D01*
X28166381Y70875762D01*
X28071143Y70780524D01*
X27975905Y70732905D01*
X29499715Y70018619D02*
X28928286Y70018619D01*
X29214000Y70018619D02*
X29214000Y71018619D01*
X29118762Y70875762D01*
X29023524Y70780524D01*
X28928286Y70732905D01*
X55266381Y68709095D02*
X56075905Y68709095D01*
X56171143Y68756714D01*
X56218762Y68804333D01*
X56266381Y68899571D01*
X56266381Y69090048D01*
X56218762Y69185286D01*
X56171143Y69232905D01*
X56075905Y69280524D01*
X55266381Y69280524D01*
X56266381Y70280524D02*
X56266381Y69709095D01*
X56266381Y69994809D02*
X55266381Y69994809D01*
X55409238Y69899571D01*
X55504476Y69804333D01*
X55552095Y69709095D01*
X18771143Y73313857D02*
X18723524Y73266238D01*
X18580667Y73218619D01*
X18485429Y73218619D01*
X18342571Y73266238D01*
X18247333Y73361476D01*
X18199714Y73456714D01*
X18152095Y73647190D01*
X18152095Y73790048D01*
X18199714Y73980524D01*
X18247333Y74075762D01*
X18342571Y74171000D01*
X18485429Y74218619D01*
X18580667Y74218619D01*
X18723524Y74171000D01*
X18771143Y74123381D01*
X19152095Y74123381D02*
X19199714Y74171000D01*
X19294952Y74218619D01*
X19533048Y74218619D01*
X19628286Y74171000D01*
X19675905Y74123381D01*
X19723524Y74028143D01*
X19723524Y73932905D01*
X19675905Y73790048D01*
X19104476Y73218619D01*
X19723524Y73218619D01*
X20294952Y73790048D02*
X20199714Y73837667D01*
X20152095Y73885286D01*
X20104476Y73980524D01*
X20104476Y74028143D01*
X20152095Y74123381D01*
X20199714Y74171000D01*
X20294952Y74218619D01*
X20485429Y74218619D01*
X20580667Y74171000D01*
X20628286Y74123381D01*
X20675905Y74028143D01*
X20675905Y73980524D01*
X20628286Y73885286D01*
X20580667Y73837667D01*
X20485429Y73790048D01*
X20294952Y73790048D01*
X20199714Y73742429D01*
X20152095Y73694810D01*
X20104476Y73599571D01*
X20104476Y73409095D01*
X20152095Y73313857D01*
X20199714Y73266238D01*
X20294952Y73218619D01*
X20485429Y73218619D01*
X20580667Y73266238D01*
X20628286Y73313857D01*
X20675905Y73409095D01*
X20675905Y73599571D01*
X20628286Y73694810D01*
X20580667Y73742429D01*
X20485429Y73790048D01*
X27056381Y35974334D02*
X27056381Y35498143D01*
X26056381Y35498143D01*
X26484952Y36450524D02*
X26437333Y36355286D01*
X26389714Y36307667D01*
X26294476Y36260048D01*
X26246857Y36260048D01*
X26151619Y36307667D01*
X26104000Y36355286D01*
X26056381Y36450524D01*
X26056381Y36641001D01*
X26104000Y36736239D01*
X26151619Y36783858D01*
X26246857Y36831477D01*
X26294476Y36831477D01*
X26389714Y36783858D01*
X26437333Y36736239D01*
X26484952Y36641001D01*
X26484952Y36450524D01*
X26532571Y36355286D01*
X26580190Y36307667D01*
X26675429Y36260048D01*
X26865905Y36260048D01*
X26961143Y36307667D01*
X27008762Y36355286D01*
X27056381Y36450524D01*
X27056381Y36641001D01*
X27008762Y36736239D01*
X26961143Y36783858D01*
X26865905Y36831477D01*
X26675429Y36831477D01*
X26580190Y36783858D01*
X26532571Y36736239D01*
X26484952Y36641001D01*
X34996381Y34192143D02*
X34520190Y33858809D01*
X34996381Y33620714D02*
X33996381Y33620714D01*
X33996381Y34001667D01*
X34044000Y34096905D01*
X34091619Y34144524D01*
X34186857Y34192143D01*
X34329714Y34192143D01*
X34424952Y34144524D01*
X34472571Y34096905D01*
X34520190Y34001667D01*
X34520190Y33620714D01*
X34996381Y35144524D02*
X34996381Y34573095D01*
X34996381Y34858809D02*
X33996381Y34858809D01*
X34139238Y34763571D01*
X34234476Y34668333D01*
X34282095Y34573095D01*
X33996381Y35477857D02*
X33996381Y36096905D01*
X34377333Y35763571D01*
X34377333Y35906429D01*
X34424952Y36001667D01*
X34472571Y36049286D01*
X34567810Y36096905D01*
X34805905Y36096905D01*
X34901143Y36049286D01*
X34948762Y36001667D01*
X34996381Y35906429D01*
X34996381Y35620714D01*
X34948762Y35525476D01*
X34901143Y35477857D01*
X130012095Y31528619D02*
X130012095Y30719095D01*
X130059714Y30623857D01*
X130107333Y30576238D01*
X130202571Y30528619D01*
X130393048Y30528619D01*
X130488286Y30576238D01*
X130535905Y30623857D01*
X130583524Y30719095D01*
X130583524Y31528619D01*
X130964476Y31528619D02*
X131631143Y31528619D01*
X131202571Y30528619D01*
X30583143Y28032715D02*
X30630762Y27985096D01*
X30678381Y27842239D01*
X30678381Y27747001D01*
X30630762Y27604143D01*
X30535524Y27508905D01*
X30440286Y27461286D01*
X30249810Y27413667D01*
X30106952Y27413667D01*
X29916476Y27461286D01*
X29821238Y27508905D01*
X29726000Y27604143D01*
X29678381Y27747001D01*
X29678381Y27842239D01*
X29726000Y27985096D01*
X29773619Y28032715D01*
X29678381Y28937477D02*
X29678381Y28461286D01*
X30154571Y28413667D01*
X30106952Y28461286D01*
X30059333Y28556524D01*
X30059333Y28794620D01*
X30106952Y28889858D01*
X30154571Y28937477D01*
X30249810Y28985096D01*
X30487905Y28985096D01*
X30583143Y28937477D01*
X30630762Y28889858D01*
X30678381Y28794620D01*
X30678381Y28556524D01*
X30630762Y28461286D01*
X30583143Y28413667D01*
X30678381Y29413667D02*
X29678381Y29413667D01*
X30392667Y29747001D01*
X29678381Y30080334D01*
X30678381Y30080334D01*
X30678381Y31080334D02*
X30678381Y30508905D01*
X30678381Y30794619D02*
X29678381Y30794619D01*
X29821238Y30699381D01*
X29916476Y30604143D01*
X29964095Y30508905D01*
X32107143Y28032715D02*
X32154762Y27985096D01*
X32202381Y27842239D01*
X32202381Y27747001D01*
X32154762Y27604143D01*
X32059524Y27508905D01*
X31964286Y27461286D01*
X31773810Y27413667D01*
X31630952Y27413667D01*
X31440476Y27461286D01*
X31345238Y27508905D01*
X31250000Y27604143D01*
X31202381Y27747001D01*
X31202381Y27842239D01*
X31250000Y27985096D01*
X31297619Y28032715D01*
X31202381Y28889858D02*
X31202381Y28699381D01*
X31250000Y28604143D01*
X31297619Y28556524D01*
X31440476Y28461286D01*
X31630952Y28413667D01*
X32011905Y28413667D01*
X32107143Y28461286D01*
X32154762Y28508905D01*
X32202381Y28604143D01*
X32202381Y28794620D01*
X32154762Y28889858D01*
X32107143Y28937477D01*
X32011905Y28985096D01*
X31773810Y28985096D01*
X31678571Y28937477D01*
X31630952Y28889858D01*
X31583333Y28794620D01*
X31583333Y28604143D01*
X31630952Y28508905D01*
X31678571Y28461286D01*
X31773810Y28413667D01*
X32202381Y29413667D02*
X31202381Y29413667D01*
X31916667Y29747001D01*
X31202381Y30080334D01*
X32202381Y30080334D01*
X32202381Y31080334D02*
X32202381Y30508905D01*
X32202381Y30794619D02*
X31202381Y30794619D01*
X31345238Y30699381D01*
X31440476Y30604143D01*
X31488095Y30508905D01*
X45571143Y63513857D02*
X45523524Y63466238D01*
X45380667Y63418619D01*
X45285429Y63418619D01*
X45142571Y63466238D01*
X45047333Y63561476D01*
X44999714Y63656714D01*
X44952095Y63847190D01*
X44952095Y63990048D01*
X44999714Y64180524D01*
X45047333Y64275762D01*
X45142571Y64371000D01*
X45285429Y64418619D01*
X45380667Y64418619D01*
X45523524Y64371000D01*
X45571143Y64323381D01*
X46523524Y63418619D02*
X45952095Y63418619D01*
X46237809Y63418619D02*
X46237809Y64418619D01*
X46142571Y64275762D01*
X46047333Y64180524D01*
X45952095Y64132905D01*
X47142571Y64418619D02*
X47237810Y64418619D01*
X47333048Y64371000D01*
X47380667Y64323381D01*
X47428286Y64228143D01*
X47475905Y64037667D01*
X47475905Y63799571D01*
X47428286Y63609095D01*
X47380667Y63513857D01*
X47333048Y63466238D01*
X47237810Y63418619D01*
X47142571Y63418619D01*
X47047333Y63466238D01*
X46999714Y63513857D01*
X46952095Y63609095D01*
X46904476Y63799571D01*
X46904476Y64037667D01*
X46952095Y64228143D01*
X46999714Y64323381D01*
X47047333Y64371000D01*
X47142571Y64418619D01*
X139467943Y34547743D02*
X139515562Y34500124D01*
X139563181Y34357267D01*
X139563181Y34262029D01*
X139515562Y34119171D01*
X139420324Y34023933D01*
X139325086Y33976314D01*
X139134610Y33928695D01*
X138991752Y33928695D01*
X138801276Y33976314D01*
X138706038Y34023933D01*
X138610800Y34119171D01*
X138563181Y34262029D01*
X138563181Y34357267D01*
X138610800Y34500124D01*
X138658419Y34547743D01*
X139563181Y35500124D02*
X139563181Y34928695D01*
X139563181Y35214409D02*
X138563181Y35214409D01*
X138706038Y35119171D01*
X138801276Y35023933D01*
X138848895Y34928695D01*
X139563181Y36452505D02*
X139563181Y35881076D01*
X139563181Y36166790D02*
X138563181Y36166790D01*
X138706038Y36071552D01*
X138801276Y35976314D01*
X138848895Y35881076D01*
X87225143Y74324143D02*
X87272762Y74276524D01*
X87320381Y74133667D01*
X87320381Y74038429D01*
X87272762Y73895571D01*
X87177524Y73800333D01*
X87082286Y73752714D01*
X86891810Y73705095D01*
X86748952Y73705095D01*
X86558476Y73752714D01*
X86463238Y73800333D01*
X86368000Y73895571D01*
X86320381Y74038429D01*
X86320381Y74133667D01*
X86368000Y74276524D01*
X86415619Y74324143D01*
X87320381Y75276524D02*
X87320381Y74705095D01*
X87320381Y74990809D02*
X86320381Y74990809D01*
X86463238Y74895571D01*
X86558476Y74800333D01*
X86606095Y74705095D01*
X86653714Y76133667D02*
X87320381Y76133667D01*
X86272762Y75895571D02*
X86987048Y75657476D01*
X86987048Y76276524D01*
X138051143Y60488143D02*
X138098762Y60440524D01*
X138146381Y60297667D01*
X138146381Y60202429D01*
X138098762Y60059571D01*
X138003524Y59964333D01*
X137908286Y59916714D01*
X137717810Y59869095D01*
X137574952Y59869095D01*
X137384476Y59916714D01*
X137289238Y59964333D01*
X137194000Y60059571D01*
X137146381Y60202429D01*
X137146381Y60297667D01*
X137194000Y60440524D01*
X137241619Y60488143D01*
X138146381Y61440524D02*
X138146381Y60869095D01*
X138146381Y61154809D02*
X137146381Y61154809D01*
X137289238Y61059571D01*
X137384476Y60964333D01*
X137432095Y60869095D01*
X137574952Y62011952D02*
X137527333Y61916714D01*
X137479714Y61869095D01*
X137384476Y61821476D01*
X137336857Y61821476D01*
X137241619Y61869095D01*
X137194000Y61916714D01*
X137146381Y62011952D01*
X137146381Y62202429D01*
X137194000Y62297667D01*
X137241619Y62345286D01*
X137336857Y62392905D01*
X137384476Y62392905D01*
X137479714Y62345286D01*
X137527333Y62297667D01*
X137574952Y62202429D01*
X137574952Y62011952D01*
X137622571Y61916714D01*
X137670190Y61869095D01*
X137765429Y61821476D01*
X137955905Y61821476D01*
X138051143Y61869095D01*
X138098762Y61916714D01*
X138146381Y62011952D01*
X138146381Y62202429D01*
X138098762Y62297667D01*
X138051143Y62345286D01*
X137955905Y62392905D01*
X137765429Y62392905D01*
X137670190Y62345286D01*
X137622571Y62297667D01*
X137574952Y62202429D01*
X173291143Y18743857D02*
X173243524Y18696238D01*
X173100667Y18648619D01*
X173005429Y18648619D01*
X172862571Y18696238D01*
X172767333Y18791476D01*
X172719714Y18886714D01*
X172672095Y19077190D01*
X172672095Y19220048D01*
X172719714Y19410524D01*
X172767333Y19505762D01*
X172862571Y19601000D01*
X173005429Y19648619D01*
X173100667Y19648619D01*
X173243524Y19601000D01*
X173291143Y19553381D01*
X173672095Y19553381D02*
X173719714Y19601000D01*
X173814952Y19648619D01*
X174053048Y19648619D01*
X174148286Y19601000D01*
X174195905Y19553381D01*
X174243524Y19458143D01*
X174243524Y19362905D01*
X174195905Y19220048D01*
X173624476Y18648619D01*
X174243524Y18648619D01*
X174862571Y19648619D02*
X174957810Y19648619D01*
X175053048Y19601000D01*
X175100667Y19553381D01*
X175148286Y19458143D01*
X175195905Y19267667D01*
X175195905Y19029571D01*
X175148286Y18839095D01*
X175100667Y18743857D01*
X175053048Y18696238D01*
X174957810Y18648619D01*
X174862571Y18648619D01*
X174767333Y18696238D01*
X174719714Y18743857D01*
X174672095Y18839095D01*
X174624476Y19029571D01*
X174624476Y19267667D01*
X174672095Y19458143D01*
X174719714Y19553381D01*
X174767333Y19601000D01*
X174862571Y19648619D01*
X113101143Y76403857D02*
X113053524Y76356238D01*
X112910667Y76308619D01*
X112815429Y76308619D01*
X112672571Y76356238D01*
X112577333Y76451476D01*
X112529714Y76546714D01*
X112482095Y76737190D01*
X112482095Y76880048D01*
X112529714Y77070524D01*
X112577333Y77165762D01*
X112672571Y77261000D01*
X112815429Y77308619D01*
X112910667Y77308619D01*
X113053524Y77261000D01*
X113101143Y77213381D01*
X113482095Y77213381D02*
X113529714Y77261000D01*
X113624952Y77308619D01*
X113863048Y77308619D01*
X113958286Y77261000D01*
X114005905Y77213381D01*
X114053524Y77118143D01*
X114053524Y77022905D01*
X114005905Y76880048D01*
X113434476Y76308619D01*
X114053524Y76308619D01*
X114386857Y77308619D02*
X115053524Y77308619D01*
X114624952Y76308619D01*
X167771143Y32913857D02*
X167723524Y32866238D01*
X167580667Y32818619D01*
X167485429Y32818619D01*
X167342571Y32866238D01*
X167247333Y32961476D01*
X167199714Y33056714D01*
X167152095Y33247190D01*
X167152095Y33390048D01*
X167199714Y33580524D01*
X167247333Y33675762D01*
X167342571Y33771000D01*
X167485429Y33818619D01*
X167580667Y33818619D01*
X167723524Y33771000D01*
X167771143Y33723381D01*
X168104476Y33818619D02*
X168723524Y33818619D01*
X168390190Y33437667D01*
X168533048Y33437667D01*
X168628286Y33390048D01*
X168675905Y33342429D01*
X168723524Y33247190D01*
X168723524Y33009095D01*
X168675905Y32913857D01*
X168628286Y32866238D01*
X168533048Y32818619D01*
X168247333Y32818619D01*
X168152095Y32866238D01*
X168104476Y32913857D01*
X169342571Y33818619D02*
X169437810Y33818619D01*
X169533048Y33771000D01*
X169580667Y33723381D01*
X169628286Y33628143D01*
X169675905Y33437667D01*
X169675905Y33199571D01*
X169628286Y33009095D01*
X169580667Y32913857D01*
X169533048Y32866238D01*
X169437810Y32818619D01*
X169342571Y32818619D01*
X169247333Y32866238D01*
X169199714Y32913857D01*
X169152095Y33009095D01*
X169104476Y33199571D01*
X169104476Y33437667D01*
X169152095Y33628143D01*
X169199714Y33723381D01*
X169247333Y33771000D01*
X169342571Y33818619D01*
X181729143Y33715857D02*
X181681524Y33668238D01*
X181538667Y33620619D01*
X181443429Y33620619D01*
X181300571Y33668238D01*
X181205333Y33763476D01*
X181157714Y33858714D01*
X181110095Y34049190D01*
X181110095Y34192048D01*
X181157714Y34382524D01*
X181205333Y34477762D01*
X181300571Y34573000D01*
X181443429Y34620619D01*
X181538667Y34620619D01*
X181681524Y34573000D01*
X181729143Y34525381D01*
X182062476Y34620619D02*
X182681524Y34620619D01*
X182348190Y34239667D01*
X182491048Y34239667D01*
X182586286Y34192048D01*
X182633905Y34144429D01*
X182681524Y34049190D01*
X182681524Y33811095D01*
X182633905Y33715857D01*
X182586286Y33668238D01*
X182491048Y33620619D01*
X182205333Y33620619D01*
X182110095Y33668238D01*
X182062476Y33715857D01*
X183633905Y33620619D02*
X183062476Y33620619D01*
X183348190Y33620619D02*
X183348190Y34620619D01*
X183252952Y34477762D01*
X183157714Y34382524D01*
X183062476Y34334905D01*
X183141143Y59163857D02*
X183093524Y59116238D01*
X182950667Y59068619D01*
X182855429Y59068619D01*
X182712571Y59116238D01*
X182617333Y59211476D01*
X182569714Y59306714D01*
X182522095Y59497190D01*
X182522095Y59640048D01*
X182569714Y59830524D01*
X182617333Y59925762D01*
X182712571Y60021000D01*
X182855429Y60068619D01*
X182950667Y60068619D01*
X183093524Y60021000D01*
X183141143Y59973381D01*
X183474476Y60068619D02*
X184093524Y60068619D01*
X183760190Y59687667D01*
X183903048Y59687667D01*
X183998286Y59640048D01*
X184045905Y59592429D01*
X184093524Y59497190D01*
X184093524Y59259095D01*
X184045905Y59163857D01*
X183998286Y59116238D01*
X183903048Y59068619D01*
X183617333Y59068619D01*
X183522095Y59116238D01*
X183474476Y59163857D01*
X184426857Y60068619D02*
X185045905Y60068619D01*
X184712571Y59687667D01*
X184855429Y59687667D01*
X184950667Y59640048D01*
X184998286Y59592429D01*
X185045905Y59497190D01*
X185045905Y59259095D01*
X184998286Y59163857D01*
X184950667Y59116238D01*
X184855429Y59068619D01*
X184569714Y59068619D01*
X184474476Y59116238D01*
X184426857Y59163857D01*
X22321143Y39878143D02*
X22368762Y39830524D01*
X22416381Y39687667D01*
X22416381Y39592429D01*
X22368762Y39449571D01*
X22273524Y39354333D01*
X22178286Y39306714D01*
X21987810Y39259095D01*
X21844952Y39259095D01*
X21654476Y39306714D01*
X21559238Y39354333D01*
X21464000Y39449571D01*
X21416381Y39592429D01*
X21416381Y39687667D01*
X21464000Y39830524D01*
X21511619Y39878143D01*
X21749714Y40735286D02*
X22416381Y40735286D01*
X21368762Y40497190D02*
X22083048Y40259095D01*
X22083048Y40878143D01*
X21416381Y41449571D02*
X21416381Y41544810D01*
X21464000Y41640048D01*
X21511619Y41687667D01*
X21606857Y41735286D01*
X21797333Y41782905D01*
X22035429Y41782905D01*
X22225905Y41735286D01*
X22321143Y41687667D01*
X22368762Y41640048D01*
X22416381Y41544810D01*
X22416381Y41449571D01*
X22368762Y41354333D01*
X22321143Y41306714D01*
X22225905Y41259095D01*
X22035429Y41211476D01*
X21797333Y41211476D01*
X21606857Y41259095D01*
X21511619Y41306714D01*
X21464000Y41354333D01*
X21416381Y41449571D01*
X25757143Y30382143D02*
X25804762Y30334524D01*
X25852381Y30191667D01*
X25852381Y30096429D01*
X25804762Y29953571D01*
X25709524Y29858333D01*
X25614286Y29810714D01*
X25423810Y29763095D01*
X25280952Y29763095D01*
X25090476Y29810714D01*
X24995238Y29858333D01*
X24900000Y29953571D01*
X24852381Y30096429D01*
X24852381Y30191667D01*
X24900000Y30334524D01*
X24947619Y30382143D01*
X25185714Y31239286D02*
X25852381Y31239286D01*
X24804762Y31001190D02*
X25519048Y30763095D01*
X25519048Y31382143D01*
X25852381Y32286905D02*
X25852381Y31715476D01*
X25852381Y32001190D02*
X24852381Y32001190D01*
X24995238Y31905952D01*
X25090476Y31810714D01*
X25138095Y31715476D01*
X34955143Y67126143D02*
X35002762Y67078524D01*
X35050381Y66935667D01*
X35050381Y66840429D01*
X35002762Y66697571D01*
X34907524Y66602333D01*
X34812286Y66554714D01*
X34621810Y66507095D01*
X34478952Y66507095D01*
X34288476Y66554714D01*
X34193238Y66602333D01*
X34098000Y66697571D01*
X34050381Y66840429D01*
X34050381Y66935667D01*
X34098000Y67078524D01*
X34145619Y67126143D01*
X34383714Y67983286D02*
X35050381Y67983286D01*
X34002762Y67745190D02*
X34717048Y67507095D01*
X34717048Y68126143D01*
X34145619Y68459476D02*
X34098000Y68507095D01*
X34050381Y68602333D01*
X34050381Y68840429D01*
X34098000Y68935667D01*
X34145619Y68983286D01*
X34240857Y69030905D01*
X34336095Y69030905D01*
X34478952Y68983286D01*
X35050381Y68411857D01*
X35050381Y69030905D01*
X42441905Y10252619D02*
X42441905Y11252619D01*
X42680000Y11252619D01*
X42822858Y11205000D01*
X42918096Y11109762D01*
X42965715Y11014524D01*
X43013334Y10824048D01*
X43013334Y10681190D01*
X42965715Y10490714D01*
X42918096Y10395476D01*
X42822858Y10300238D01*
X42680000Y10252619D01*
X42441905Y10252619D01*
X43918096Y11252619D02*
X43441905Y11252619D01*
X43394286Y10776429D01*
X43441905Y10824048D01*
X43537143Y10871667D01*
X43775239Y10871667D01*
X43870477Y10824048D01*
X43918096Y10776429D01*
X43965715Y10681190D01*
X43965715Y10443095D01*
X43918096Y10347857D01*
X43870477Y10300238D01*
X43775239Y10252619D01*
X43537143Y10252619D01*
X43441905Y10300238D01*
X43394286Y10347857D01*
X38552381Y23936905D02*
X37552381Y23936905D01*
X37552381Y24175000D01*
X37600000Y24317858D01*
X37695238Y24413096D01*
X37790476Y24460715D01*
X37980952Y24508334D01*
X38123810Y24508334D01*
X38314286Y24460715D01*
X38409524Y24413096D01*
X38504762Y24317858D01*
X38552381Y24175000D01*
X38552381Y23936905D01*
X37552381Y25365477D02*
X37552381Y25175000D01*
X37600000Y25079762D01*
X37647619Y25032143D01*
X37790476Y24936905D01*
X37980952Y24889286D01*
X38361905Y24889286D01*
X38457143Y24936905D01*
X38504762Y24984524D01*
X38552381Y25079762D01*
X38552381Y25270239D01*
X38504762Y25365477D01*
X38457143Y25413096D01*
X38361905Y25460715D01*
X38123810Y25460715D01*
X38028571Y25413096D01*
X37980952Y25365477D01*
X37933333Y25270239D01*
X37933333Y25079762D01*
X37980952Y24984524D01*
X38028571Y24936905D01*
X38123810Y24889286D01*
X13237810Y78118619D02*
X13237810Y79118619D01*
X13618763Y79118619D01*
X13714001Y79071000D01*
X13761620Y79023381D01*
X13809239Y78928143D01*
X13809239Y78785286D01*
X13761620Y78690048D01*
X13714001Y78642429D01*
X13618763Y78594810D01*
X13237810Y78594810D01*
X14714001Y79118619D02*
X14237810Y79118619D01*
X14190191Y78642429D01*
X14237810Y78690048D01*
X14333048Y78737667D01*
X14571144Y78737667D01*
X14666382Y78690048D01*
X14714001Y78642429D01*
X14761620Y78547190D01*
X14761620Y78309095D01*
X14714001Y78213857D01*
X14666382Y78166238D01*
X14571144Y78118619D01*
X14333048Y78118619D01*
X14237810Y78166238D01*
X14190191Y78213857D01*
X15190191Y78118619D02*
X15190191Y79118619D01*
X15666381Y78118619D02*
X15666381Y79118619D01*
X16237810Y78118619D01*
X16237810Y79118619D01*
X17237810Y78118619D02*
X16666381Y78118619D01*
X16952095Y78118619D02*
X16952095Y79118619D01*
X16856857Y78975762D01*
X16761619Y78880524D01*
X16666381Y78832905D01*
X156711619Y72928619D02*
X156711619Y73928619D01*
X157092572Y73928619D01*
X157187810Y73881000D01*
X157235429Y73833381D01*
X157283048Y73738143D01*
X157283048Y73595286D01*
X157235429Y73500048D01*
X157187810Y73452429D01*
X157092572Y73404810D01*
X156711619Y73404810D01*
X158235429Y72928619D02*
X157664000Y72928619D01*
X157949714Y72928619D02*
X157949714Y73928619D01*
X157854476Y73785762D01*
X157759238Y73690524D01*
X157664000Y73642905D01*
X158616381Y73833381D02*
X158664000Y73881000D01*
X158759238Y73928619D01*
X158997334Y73928619D01*
X159092572Y73881000D01*
X159140191Y73833381D01*
X159187810Y73738143D01*
X159187810Y73642905D01*
X159140191Y73500048D01*
X158568762Y72928619D01*
X159187810Y72928619D01*
X159616381Y72928619D02*
X159616381Y73928619D01*
X160092571Y72928619D02*
X160092571Y73928619D01*
X160664000Y72928619D01*
X160664000Y73928619D01*
X161664000Y72928619D02*
X161092571Y72928619D01*
X161378285Y72928619D02*
X161378285Y73928619D01*
X161283047Y73785762D01*
X161187809Y73690524D01*
X161092571Y73642905D01*
X3246381Y16366238D02*
X2246381Y16366238D01*
X2246381Y16747191D01*
X2294000Y16842429D01*
X2341619Y16890048D01*
X2436857Y16937667D01*
X2579714Y16937667D01*
X2674952Y16890048D01*
X2722571Y16842429D01*
X2770190Y16747191D01*
X2770190Y16366238D01*
X2579714Y17366238D02*
X3579714Y17366238D01*
X2627333Y17366238D02*
X2579714Y17461476D01*
X2579714Y17651953D01*
X2627333Y17747191D01*
X2674952Y17794810D01*
X2770190Y17842429D01*
X3055905Y17842429D01*
X3151143Y17794810D01*
X3198762Y17747191D01*
X3246381Y17651953D01*
X3246381Y17461476D01*
X3198762Y17366238D01*
X3246381Y18271000D02*
X2579714Y18271000D01*
X2770190Y18271000D02*
X2674952Y18318619D01*
X2627333Y18366238D01*
X2579714Y18461476D01*
X2579714Y18556715D01*
X3246381Y19032905D02*
X3198762Y18937667D01*
X3151143Y18890048D01*
X3055905Y18842429D01*
X2770190Y18842429D01*
X2674952Y18890048D01*
X2627333Y18937667D01*
X2579714Y19032905D01*
X2579714Y19175763D01*
X2627333Y19271001D01*
X2674952Y19318620D01*
X2770190Y19366239D01*
X3055905Y19366239D01*
X3151143Y19318620D01*
X3198762Y19271001D01*
X3246381Y19175763D01*
X3246381Y19032905D01*
X2579714Y20223382D02*
X3389238Y20223382D01*
X3484476Y20175763D01*
X3532095Y20128144D01*
X3579714Y20032905D01*
X3579714Y19890048D01*
X3532095Y19794810D01*
X3198762Y20223382D02*
X3246381Y20128144D01*
X3246381Y19937667D01*
X3198762Y19842429D01*
X3151143Y19794810D01*
X3055905Y19747191D01*
X2770190Y19747191D01*
X2674952Y19794810D01*
X2627333Y19842429D01*
X2579714Y19937667D01*
X2579714Y20128144D01*
X2627333Y20223382D01*
X3246381Y21223382D02*
X3246381Y20651953D01*
X3246381Y20937667D02*
X2246381Y20937667D01*
X2389238Y20842429D01*
X2484476Y20747191D01*
X2532095Y20651953D01*
X4762857Y10760619D02*
X4762857Y11760619D01*
X5143810Y11760619D01*
X5239048Y11713000D01*
X5286667Y11665381D01*
X5334286Y11570143D01*
X5334286Y11427286D01*
X5286667Y11332048D01*
X5239048Y11284429D01*
X5143810Y11236810D01*
X4762857Y11236810D01*
X5715238Y10808238D02*
X5810476Y10760619D01*
X6000952Y10760619D01*
X6096191Y10808238D01*
X6143810Y10903476D01*
X6143810Y10951095D01*
X6096191Y11046333D01*
X6000952Y11093952D01*
X5858095Y11093952D01*
X5762857Y11141571D01*
X5715238Y11236810D01*
X5715238Y11284429D01*
X5762857Y11379667D01*
X5858095Y11427286D01*
X6000952Y11427286D01*
X6096191Y11379667D01*
X6953334Y10808238D02*
X6858096Y10760619D01*
X6667619Y10760619D01*
X6572381Y10808238D01*
X6524762Y10903476D01*
X6524762Y11284429D01*
X6572381Y11379667D01*
X6667619Y11427286D01*
X6858096Y11427286D01*
X6953334Y11379667D01*
X7000953Y11284429D01*
X7000953Y11189190D01*
X6524762Y11093952D01*
X7429524Y11427286D02*
X7429524Y10760619D01*
X7429524Y11332048D02*
X7477143Y11379667D01*
X7572381Y11427286D01*
X7715239Y11427286D01*
X7810477Y11379667D01*
X7858096Y11284429D01*
X7858096Y10760619D01*
X8286667Y10808238D02*
X8381905Y10760619D01*
X8572381Y10760619D01*
X8667620Y10808238D01*
X8715239Y10903476D01*
X8715239Y10951095D01*
X8667620Y11046333D01*
X8572381Y11093952D01*
X8429524Y11093952D01*
X8334286Y11141571D01*
X8286667Y11236810D01*
X8286667Y11284429D01*
X8334286Y11379667D01*
X8429524Y11427286D01*
X8572381Y11427286D01*
X8667620Y11379667D01*
X9524763Y10808238D02*
X9429525Y10760619D01*
X9239048Y10760619D01*
X9143810Y10808238D01*
X9096191Y10903476D01*
X9096191Y11284429D01*
X9143810Y11379667D01*
X9239048Y11427286D01*
X9429525Y11427286D01*
X9524763Y11379667D01*
X9572382Y11284429D01*
X9572382Y11189190D01*
X9096191Y11093952D01*
X10524763Y10760619D02*
X9953334Y10760619D01*
X10239048Y10760619D02*
X10239048Y11760619D01*
X10143810Y11617762D01*
X10048572Y11522524D01*
X9953334Y11474905D01*
X15156857Y10506619D02*
X15156857Y11506619D01*
X15537810Y11506619D01*
X15633048Y11459000D01*
X15680667Y11411381D01*
X15728286Y11316143D01*
X15728286Y11173286D01*
X15680667Y11078048D01*
X15633048Y11030429D01*
X15537810Y10982810D01*
X15156857Y10982810D01*
X16109238Y10554238D02*
X16204476Y10506619D01*
X16394952Y10506619D01*
X16490191Y10554238D01*
X16537810Y10649476D01*
X16537810Y10697095D01*
X16490191Y10792333D01*
X16394952Y10839952D01*
X16252095Y10839952D01*
X16156857Y10887571D01*
X16109238Y10982810D01*
X16109238Y11030429D01*
X16156857Y11125667D01*
X16252095Y11173286D01*
X16394952Y11173286D01*
X16490191Y11125667D01*
X17347334Y10554238D02*
X17252096Y10506619D01*
X17061619Y10506619D01*
X16966381Y10554238D01*
X16918762Y10649476D01*
X16918762Y11030429D01*
X16966381Y11125667D01*
X17061619Y11173286D01*
X17252096Y11173286D01*
X17347334Y11125667D01*
X17394953Y11030429D01*
X17394953Y10935190D01*
X16918762Y10839952D01*
X17823524Y11173286D02*
X17823524Y10506619D01*
X17823524Y11078048D02*
X17871143Y11125667D01*
X17966381Y11173286D01*
X18109239Y11173286D01*
X18204477Y11125667D01*
X18252096Y11030429D01*
X18252096Y10506619D01*
X18680667Y10554238D02*
X18775905Y10506619D01*
X18966381Y10506619D01*
X19061620Y10554238D01*
X19109239Y10649476D01*
X19109239Y10697095D01*
X19061620Y10792333D01*
X18966381Y10839952D01*
X18823524Y10839952D01*
X18728286Y10887571D01*
X18680667Y10982810D01*
X18680667Y11030429D01*
X18728286Y11125667D01*
X18823524Y11173286D01*
X18966381Y11173286D01*
X19061620Y11125667D01*
X19918763Y10554238D02*
X19823525Y10506619D01*
X19633048Y10506619D01*
X19537810Y10554238D01*
X19490191Y10649476D01*
X19490191Y11030429D01*
X19537810Y11125667D01*
X19633048Y11173286D01*
X19823525Y11173286D01*
X19918763Y11125667D01*
X19966382Y11030429D01*
X19966382Y10935190D01*
X19490191Y10839952D01*
X20347334Y11411381D02*
X20394953Y11459000D01*
X20490191Y11506619D01*
X20728287Y11506619D01*
X20823525Y11459000D01*
X20871144Y11411381D01*
X20918763Y11316143D01*
X20918763Y11220905D01*
X20871144Y11078048D01*
X20299715Y10506619D01*
X20918763Y10506619D01*
X3500381Y22540047D02*
X2500381Y22540047D01*
X2500381Y22921000D01*
X2548000Y23016238D01*
X2595619Y23063857D01*
X2690857Y23111476D01*
X2833714Y23111476D01*
X2928952Y23063857D01*
X2976571Y23016238D01*
X3024190Y22921000D01*
X3024190Y22540047D01*
X3452762Y23492428D02*
X3500381Y23587666D01*
X3500381Y23778142D01*
X3452762Y23873381D01*
X3357524Y23921000D01*
X3309905Y23921000D01*
X3214667Y23873381D01*
X3167048Y23778142D01*
X3167048Y23635285D01*
X3119429Y23540047D01*
X3024190Y23492428D01*
X2976571Y23492428D01*
X2881333Y23540047D01*
X2833714Y23635285D01*
X2833714Y23778142D01*
X2881333Y23873381D01*
X3452762Y24730524D02*
X3500381Y24635286D01*
X3500381Y24444809D01*
X3452762Y24349571D01*
X3357524Y24301952D01*
X2976571Y24301952D01*
X2881333Y24349571D01*
X2833714Y24444809D01*
X2833714Y24635286D01*
X2881333Y24730524D01*
X2976571Y24778143D01*
X3071810Y24778143D01*
X3167048Y24301952D01*
X3500381Y25206714D02*
X2833714Y25206714D01*
X3024190Y25206714D02*
X2928952Y25254333D01*
X2881333Y25301952D01*
X2833714Y25397190D01*
X2833714Y25492429D01*
X3500381Y26349572D02*
X3500381Y25778143D01*
X3500381Y26063857D02*
X2500381Y26063857D01*
X2643238Y25968619D01*
X2738476Y25873381D01*
X2786095Y25778143D01*
X69947334Y35318619D02*
X69614000Y35794810D01*
X69375905Y35318619D02*
X69375905Y36318619D01*
X69756858Y36318619D01*
X69852096Y36271000D01*
X69899715Y36223381D01*
X69947334Y36128143D01*
X69947334Y35985286D01*
X69899715Y35890048D01*
X69852096Y35842429D01*
X69756858Y35794810D01*
X69375905Y35794810D01*
X70899715Y35318619D02*
X70328286Y35318619D01*
X70614000Y35318619D02*
X70614000Y36318619D01*
X70518762Y36175762D01*
X70423524Y36080524D01*
X70328286Y36032905D01*
X70197334Y37018619D02*
X69864000Y37494810D01*
X69625905Y37018619D02*
X69625905Y38018619D01*
X70006858Y38018619D01*
X70102096Y37971000D01*
X70149715Y37923381D01*
X70197334Y37828143D01*
X70197334Y37685286D01*
X70149715Y37590048D01*
X70102096Y37542429D01*
X70006858Y37494810D01*
X69625905Y37494810D01*
X70578286Y37923381D02*
X70625905Y37971000D01*
X70721143Y38018619D01*
X70959239Y38018619D01*
X71054477Y37971000D01*
X71102096Y37923381D01*
X71149715Y37828143D01*
X71149715Y37732905D01*
X71102096Y37590048D01*
X70530667Y37018619D01*
X71149715Y37018619D01*
X69597334Y33718619D02*
X69264000Y34194810D01*
X69025905Y33718619D02*
X69025905Y34718619D01*
X69406858Y34718619D01*
X69502096Y34671000D01*
X69549715Y34623381D01*
X69597334Y34528143D01*
X69597334Y34385286D01*
X69549715Y34290048D01*
X69502096Y34242429D01*
X69406858Y34194810D01*
X69025905Y34194810D01*
X69930667Y34718619D02*
X70549715Y34718619D01*
X70216381Y34337667D01*
X70359239Y34337667D01*
X70454477Y34290048D01*
X70502096Y34242429D01*
X70549715Y34147190D01*
X70549715Y33909095D01*
X70502096Y33813857D01*
X70454477Y33766238D01*
X70359239Y33718619D01*
X70073524Y33718619D01*
X69978286Y33766238D01*
X69930667Y33813857D01*
X69947334Y30918619D02*
X69614000Y31394810D01*
X69375905Y30918619D02*
X69375905Y31918619D01*
X69756858Y31918619D01*
X69852096Y31871000D01*
X69899715Y31823381D01*
X69947334Y31728143D01*
X69947334Y31585286D01*
X69899715Y31490048D01*
X69852096Y31442429D01*
X69756858Y31394810D01*
X69375905Y31394810D01*
X70804477Y31585286D02*
X70804477Y30918619D01*
X70566381Y31966238D02*
X70328286Y31251952D01*
X70947334Y31251952D01*
X12136381Y11808334D02*
X11660190Y11475000D01*
X12136381Y11236905D02*
X11136381Y11236905D01*
X11136381Y11617858D01*
X11184000Y11713096D01*
X11231619Y11760715D01*
X11326857Y11808334D01*
X11469714Y11808334D01*
X11564952Y11760715D01*
X11612571Y11713096D01*
X11660190Y11617858D01*
X11660190Y11236905D01*
X11136381Y12713096D02*
X11136381Y12236905D01*
X11612571Y12189286D01*
X11564952Y12236905D01*
X11517333Y12332143D01*
X11517333Y12570239D01*
X11564952Y12665477D01*
X11612571Y12713096D01*
X11707810Y12760715D01*
X11945905Y12760715D01*
X12041143Y12713096D01*
X12088762Y12665477D01*
X12136381Y12570239D01*
X12136381Y12332143D01*
X12088762Y12236905D01*
X12041143Y12189286D01*
X22566381Y11004334D02*
X22090190Y10671000D01*
X22566381Y10432905D02*
X21566381Y10432905D01*
X21566381Y10813858D01*
X21614000Y10909096D01*
X21661619Y10956715D01*
X21756857Y11004334D01*
X21899714Y11004334D01*
X21994952Y10956715D01*
X22042571Y10909096D01*
X22090190Y10813858D01*
X22090190Y10432905D01*
X21566381Y11861477D02*
X21566381Y11671000D01*
X21614000Y11575762D01*
X21661619Y11528143D01*
X21804476Y11432905D01*
X21994952Y11385286D01*
X22375905Y11385286D01*
X22471143Y11432905D01*
X22518762Y11480524D01*
X22566381Y11575762D01*
X22566381Y11766239D01*
X22518762Y11861477D01*
X22471143Y11909096D01*
X22375905Y11956715D01*
X22137810Y11956715D01*
X22042571Y11909096D01*
X21994952Y11861477D01*
X21947333Y11766239D01*
X21947333Y11575762D01*
X21994952Y11480524D01*
X22042571Y11432905D01*
X22137810Y11385286D01*
X38047334Y40918619D02*
X37714000Y41394810D01*
X37475905Y40918619D02*
X37475905Y41918619D01*
X37856858Y41918619D01*
X37952096Y41871000D01*
X37999715Y41823381D01*
X38047334Y41728143D01*
X38047334Y41585286D01*
X37999715Y41490048D01*
X37952096Y41442429D01*
X37856858Y41394810D01*
X37475905Y41394810D01*
X38380667Y41918619D02*
X39047334Y41918619D01*
X38618762Y40918619D01*
X45466381Y15754334D02*
X44990190Y15421000D01*
X45466381Y15182905D02*
X44466381Y15182905D01*
X44466381Y15563858D01*
X44514000Y15659096D01*
X44561619Y15706715D01*
X44656857Y15754334D01*
X44799714Y15754334D01*
X44894952Y15706715D01*
X44942571Y15659096D01*
X44990190Y15563858D01*
X44990190Y15182905D01*
X44894952Y16325762D02*
X44847333Y16230524D01*
X44799714Y16182905D01*
X44704476Y16135286D01*
X44656857Y16135286D01*
X44561619Y16182905D01*
X44514000Y16230524D01*
X44466381Y16325762D01*
X44466381Y16516239D01*
X44514000Y16611477D01*
X44561619Y16659096D01*
X44656857Y16706715D01*
X44704476Y16706715D01*
X44799714Y16659096D01*
X44847333Y16611477D01*
X44894952Y16516239D01*
X44894952Y16325762D01*
X44942571Y16230524D01*
X44990190Y16182905D01*
X45085429Y16135286D01*
X45275905Y16135286D01*
X45371143Y16182905D01*
X45418762Y16230524D01*
X45466381Y16325762D01*
X45466381Y16516239D01*
X45418762Y16611477D01*
X45371143Y16659096D01*
X45275905Y16706715D01*
X45085429Y16706715D01*
X44990190Y16659096D01*
X44942571Y16611477D01*
X44894952Y16516239D01*
X31801143Y58768619D02*
X31467809Y59244810D01*
X31229714Y58768619D02*
X31229714Y59768619D01*
X31610667Y59768619D01*
X31705905Y59721000D01*
X31753524Y59673381D01*
X31801143Y59578143D01*
X31801143Y59435286D01*
X31753524Y59340048D01*
X31705905Y59292429D01*
X31610667Y59244810D01*
X31229714Y59244810D01*
X32753524Y58768619D02*
X32182095Y58768619D01*
X32467809Y58768619D02*
X32467809Y59768619D01*
X32372571Y59625762D01*
X32277333Y59530524D01*
X32182095Y59482905D01*
X33134476Y59673381D02*
X33182095Y59721000D01*
X33277333Y59768619D01*
X33515429Y59768619D01*
X33610667Y59721000D01*
X33658286Y59673381D01*
X33705905Y59578143D01*
X33705905Y59482905D01*
X33658286Y59340048D01*
X33086857Y58768619D01*
X33705905Y58768619D01*
X44266381Y19128143D02*
X43790190Y18794809D01*
X44266381Y18556714D02*
X43266381Y18556714D01*
X43266381Y18937667D01*
X43314000Y19032905D01*
X43361619Y19080524D01*
X43456857Y19128143D01*
X43599714Y19128143D01*
X43694952Y19080524D01*
X43742571Y19032905D01*
X43790190Y18937667D01*
X43790190Y18556714D01*
X44266381Y20080524D02*
X44266381Y19509095D01*
X44266381Y19794809D02*
X43266381Y19794809D01*
X43409238Y19699571D01*
X43504476Y19604333D01*
X43552095Y19509095D01*
X43266381Y20985286D02*
X43266381Y20509095D01*
X43742571Y20461476D01*
X43694952Y20509095D01*
X43647333Y20604333D01*
X43647333Y20842429D01*
X43694952Y20937667D01*
X43742571Y20985286D01*
X43837810Y21032905D01*
X44075905Y21032905D01*
X44171143Y20985286D01*
X44218762Y20937667D01*
X44266381Y20842429D01*
X44266381Y20604333D01*
X44218762Y20509095D01*
X44171143Y20461476D01*
X89071143Y42818619D02*
X88737809Y43294810D01*
X88499714Y42818619D02*
X88499714Y43818619D01*
X88880667Y43818619D01*
X88975905Y43771000D01*
X89023524Y43723381D01*
X89071143Y43628143D01*
X89071143Y43485286D01*
X89023524Y43390048D01*
X88975905Y43342429D01*
X88880667Y43294810D01*
X88499714Y43294810D01*
X90023524Y42818619D02*
X89452095Y42818619D01*
X89737809Y42818619D02*
X89737809Y43818619D01*
X89642571Y43675762D01*
X89547333Y43580524D01*
X89452095Y43532905D01*
X90356857Y43818619D02*
X91023524Y43818619D01*
X90594952Y42818619D01*
X80637143Y52092619D02*
X80303809Y52568810D01*
X80065714Y52092619D02*
X80065714Y53092619D01*
X80446667Y53092619D01*
X80541905Y53045000D01*
X80589524Y52997381D01*
X80637143Y52902143D01*
X80637143Y52759286D01*
X80589524Y52664048D01*
X80541905Y52616429D01*
X80446667Y52568810D01*
X80065714Y52568810D01*
X81018095Y52997381D02*
X81065714Y53045000D01*
X81160952Y53092619D01*
X81399048Y53092619D01*
X81494286Y53045000D01*
X81541905Y52997381D01*
X81589524Y52902143D01*
X81589524Y52806905D01*
X81541905Y52664048D01*
X80970476Y52092619D01*
X81589524Y52092619D01*
X82208571Y53092619D02*
X82303810Y53092619D01*
X82399048Y53045000D01*
X82446667Y52997381D01*
X82494286Y52902143D01*
X82541905Y52711667D01*
X82541905Y52473571D01*
X82494286Y52283095D01*
X82446667Y52187857D01*
X82399048Y52140238D01*
X82303810Y52092619D01*
X82208571Y52092619D01*
X82113333Y52140238D01*
X82065714Y52187857D01*
X82018095Y52283095D01*
X81970476Y52473571D01*
X81970476Y52711667D01*
X82018095Y52902143D01*
X82065714Y52997381D01*
X82113333Y53045000D01*
X82208571Y53092619D01*
X167321143Y37248619D02*
X166987809Y37724810D01*
X166749714Y37248619D02*
X166749714Y38248619D01*
X167130667Y38248619D01*
X167225905Y38201000D01*
X167273524Y38153381D01*
X167321143Y38058143D01*
X167321143Y37915286D01*
X167273524Y37820048D01*
X167225905Y37772429D01*
X167130667Y37724810D01*
X166749714Y37724810D01*
X167702095Y38153381D02*
X167749714Y38201000D01*
X167844952Y38248619D01*
X168083048Y38248619D01*
X168178286Y38201000D01*
X168225905Y38153381D01*
X168273524Y38058143D01*
X168273524Y37962905D01*
X168225905Y37820048D01*
X167654476Y37248619D01*
X168273524Y37248619D01*
X169130667Y38248619D02*
X168940190Y38248619D01*
X168844952Y38201000D01*
X168797333Y38153381D01*
X168702095Y38010524D01*
X168654476Y37820048D01*
X168654476Y37439095D01*
X168702095Y37343857D01*
X168749714Y37296238D01*
X168844952Y37248619D01*
X169035429Y37248619D01*
X169130667Y37296238D01*
X169178286Y37343857D01*
X169225905Y37439095D01*
X169225905Y37677190D01*
X169178286Y37772429D01*
X169130667Y37820048D01*
X169035429Y37867667D01*
X168844952Y37867667D01*
X168749714Y37820048D01*
X168702095Y37772429D01*
X168654476Y37677190D01*
X161701143Y58578619D02*
X161367809Y59054810D01*
X161129714Y58578619D02*
X161129714Y59578619D01*
X161510667Y59578619D01*
X161605905Y59531000D01*
X161653524Y59483381D01*
X161701143Y59388143D01*
X161701143Y59245286D01*
X161653524Y59150048D01*
X161605905Y59102429D01*
X161510667Y59054810D01*
X161129714Y59054810D01*
X162082095Y59483381D02*
X162129714Y59531000D01*
X162224952Y59578619D01*
X162463048Y59578619D01*
X162558286Y59531000D01*
X162605905Y59483381D01*
X162653524Y59388143D01*
X162653524Y59292905D01*
X162605905Y59150048D01*
X162034476Y58578619D01*
X162653524Y58578619D01*
X162986857Y59578619D02*
X163653524Y59578619D01*
X163224952Y58578619D01*
X188316381Y38368143D02*
X187840190Y38034809D01*
X188316381Y37796714D02*
X187316381Y37796714D01*
X187316381Y38177667D01*
X187364000Y38272905D01*
X187411619Y38320524D01*
X187506857Y38368143D01*
X187649714Y38368143D01*
X187744952Y38320524D01*
X187792571Y38272905D01*
X187840190Y38177667D01*
X187840190Y37796714D01*
X187411619Y38749095D02*
X187364000Y38796714D01*
X187316381Y38891952D01*
X187316381Y39130048D01*
X187364000Y39225286D01*
X187411619Y39272905D01*
X187506857Y39320524D01*
X187602095Y39320524D01*
X187744952Y39272905D01*
X188316381Y38701476D01*
X188316381Y39320524D01*
X188316381Y39796714D02*
X188316381Y39987190D01*
X188268762Y40082429D01*
X188221143Y40130048D01*
X188078286Y40225286D01*
X187887810Y40272905D01*
X187506857Y40272905D01*
X187411619Y40225286D01*
X187364000Y40177667D01*
X187316381Y40082429D01*
X187316381Y39891952D01*
X187364000Y39796714D01*
X187411619Y39749095D01*
X187506857Y39701476D01*
X187744952Y39701476D01*
X187840190Y39749095D01*
X187887810Y39796714D01*
X187935429Y39891952D01*
X187935429Y40082429D01*
X187887810Y40177667D01*
X187840190Y40225286D01*
X187744952Y40272905D01*
X54783143Y16448619D02*
X54449809Y16924810D01*
X54211714Y16448619D02*
X54211714Y17448619D01*
X54592667Y17448619D01*
X54687905Y17401000D01*
X54735524Y17353381D01*
X54783143Y17258143D01*
X54783143Y17115286D01*
X54735524Y17020048D01*
X54687905Y16972429D01*
X54592667Y16924810D01*
X54211714Y16924810D01*
X55116476Y17448619D02*
X55735524Y17448619D01*
X55402190Y17067667D01*
X55545048Y17067667D01*
X55640286Y17020048D01*
X55687905Y16972429D01*
X55735524Y16877190D01*
X55735524Y16639095D01*
X55687905Y16543857D01*
X55640286Y16496238D01*
X55545048Y16448619D01*
X55259333Y16448619D01*
X55164095Y16496238D01*
X55116476Y16543857D01*
X56687905Y16448619D02*
X56116476Y16448619D01*
X56402190Y16448619D02*
X56402190Y17448619D01*
X56306952Y17305762D01*
X56211714Y17210524D01*
X56116476Y17162905D01*
X55237143Y18888619D02*
X54903809Y19364810D01*
X54665714Y18888619D02*
X54665714Y19888619D01*
X55046667Y19888619D01*
X55141905Y19841000D01*
X55189524Y19793381D01*
X55237143Y19698143D01*
X55237143Y19555286D01*
X55189524Y19460048D01*
X55141905Y19412429D01*
X55046667Y19364810D01*
X54665714Y19364810D01*
X55570476Y19888619D02*
X56189524Y19888619D01*
X55856190Y19507667D01*
X55999048Y19507667D01*
X56094286Y19460048D01*
X56141905Y19412429D01*
X56189524Y19317190D01*
X56189524Y19079095D01*
X56141905Y18983857D01*
X56094286Y18936238D01*
X55999048Y18888619D01*
X55713333Y18888619D01*
X55618095Y18936238D01*
X55570476Y18983857D01*
X57046667Y19888619D02*
X56856190Y19888619D01*
X56760952Y19841000D01*
X56713333Y19793381D01*
X56618095Y19650524D01*
X56570476Y19460048D01*
X56570476Y19079095D01*
X56618095Y18983857D01*
X56665714Y18936238D01*
X56760952Y18888619D01*
X56951429Y18888619D01*
X57046667Y18936238D01*
X57094286Y18983857D01*
X57141905Y19079095D01*
X57141905Y19317190D01*
X57094286Y19412429D01*
X57046667Y19460048D01*
X56951429Y19507667D01*
X56760952Y19507667D01*
X56665714Y19460048D01*
X56618095Y19412429D01*
X56570476Y19317190D01*
X128762095Y57248619D02*
X128762095Y56439095D01*
X128809714Y56343857D01*
X128857333Y56296238D01*
X128952571Y56248619D01*
X129143048Y56248619D01*
X129238286Y56296238D01*
X129285905Y56343857D01*
X129333524Y56439095D01*
X129333524Y57248619D01*
X129714476Y57248619D02*
X130333524Y57248619D01*
X130000190Y56867667D01*
X130143048Y56867667D01*
X130238286Y56820048D01*
X130285905Y56772429D01*
X130333524Y56677190D01*
X130333524Y56439095D01*
X130285905Y56343857D01*
X130238286Y56296238D01*
X130143048Y56248619D01*
X129857333Y56248619D01*
X129762095Y56296238D01*
X129714476Y56343857D01*
X122946381Y25539095D02*
X123755905Y25539095D01*
X123851143Y25586714D01*
X123898762Y25634333D01*
X123946381Y25729571D01*
X123946381Y25920048D01*
X123898762Y26015286D01*
X123851143Y26062905D01*
X123755905Y26110524D01*
X122946381Y26110524D01*
X123279714Y27015286D02*
X123946381Y27015286D01*
X122898762Y26777190D02*
X123613048Y26539095D01*
X123613048Y27158143D01*
X180808381Y26484905D02*
X181617905Y26484905D01*
X181713143Y26532524D01*
X181760762Y26580143D01*
X181808381Y26675381D01*
X181808381Y26865858D01*
X181760762Y26961096D01*
X181713143Y27008715D01*
X181617905Y27056334D01*
X180808381Y27056334D01*
X181808381Y28056334D02*
X181808381Y27484905D01*
X181808381Y27770619D02*
X180808381Y27770619D01*
X180951238Y27675381D01*
X181046476Y27580143D01*
X181094095Y27484905D01*
X180808381Y28675381D02*
X180808381Y28770620D01*
X180856000Y28865858D01*
X180903619Y28913477D01*
X180998857Y28961096D01*
X181189333Y29008715D01*
X181427429Y29008715D01*
X181617905Y28961096D01*
X181713143Y28913477D01*
X181760762Y28865858D01*
X181808381Y28770620D01*
X181808381Y28675381D01*
X181760762Y28580143D01*
X181713143Y28532524D01*
X181617905Y28484905D01*
X181427429Y28437286D01*
X181189333Y28437286D01*
X180998857Y28484905D01*
X180903619Y28532524D01*
X180856000Y28580143D01*
X180808381Y28675381D01*
X108001981Y39532905D02*
X108811505Y39532905D01*
X108906743Y39580524D01*
X108954362Y39628143D01*
X109001981Y39723381D01*
X109001981Y39913858D01*
X108954362Y40009096D01*
X108906743Y40056715D01*
X108811505Y40104334D01*
X108001981Y40104334D01*
X109001981Y41104334D02*
X109001981Y40532905D01*
X109001981Y40818619D02*
X108001981Y40818619D01*
X108144838Y40723381D01*
X108240076Y40628143D01*
X108287695Y40532905D01*
X109001981Y42056715D02*
X109001981Y41485286D01*
X109001981Y41771000D02*
X108001981Y41771000D01*
X108144838Y41675762D01*
X108240076Y41580524D01*
X108287695Y41485286D01*
X3841181Y30576905D02*
X4650705Y30576905D01*
X4745943Y30624524D01*
X4793562Y30672143D01*
X4841181Y30767381D01*
X4841181Y30957858D01*
X4793562Y31053096D01*
X4745943Y31100715D01*
X4650705Y31148334D01*
X3841181Y31148334D01*
X4841181Y32148334D02*
X4841181Y31576905D01*
X4841181Y31862619D02*
X3841181Y31862619D01*
X3984038Y31767381D01*
X4079276Y31672143D01*
X4126895Y31576905D01*
X4174514Y33005477D02*
X4841181Y33005477D01*
X3793562Y32767381D02*
X4507848Y32529286D01*
X4507848Y33148334D01*
X172576381Y65742905D02*
X173385905Y65742905D01*
X173481143Y65790524D01*
X173528762Y65838143D01*
X173576381Y65933381D01*
X173576381Y66123858D01*
X173528762Y66219096D01*
X173481143Y66266715D01*
X173385905Y66314334D01*
X172576381Y66314334D01*
X173576381Y67314334D02*
X173576381Y66742905D01*
X173576381Y67028619D02*
X172576381Y67028619D01*
X172719238Y66933381D01*
X172814476Y66838143D01*
X172862095Y66742905D01*
X172576381Y68171477D02*
X172576381Y67981000D01*
X172624000Y67885762D01*
X172671619Y67838143D01*
X172814476Y67742905D01*
X173004952Y67695286D01*
X173385905Y67695286D01*
X173481143Y67742905D01*
X173528762Y67790524D01*
X173576381Y67885762D01*
X173576381Y68076239D01*
X173528762Y68171477D01*
X173481143Y68219096D01*
X173385905Y68266715D01*
X173147810Y68266715D01*
X173052571Y68219096D01*
X173004952Y68171477D01*
X172957333Y68076239D01*
X172957333Y67885762D01*
X173004952Y67790524D01*
X173052571Y67742905D01*
X173147810Y67695286D01*
X172806381Y34572905D02*
X173615905Y34572905D01*
X173711143Y34620524D01*
X173758762Y34668143D01*
X173806381Y34763381D01*
X173806381Y34953858D01*
X173758762Y35049096D01*
X173711143Y35096715D01*
X173615905Y35144334D01*
X172806381Y35144334D01*
X173806381Y36144334D02*
X173806381Y35572905D01*
X173806381Y35858619D02*
X172806381Y35858619D01*
X172949238Y35763381D01*
X173044476Y35668143D01*
X173092095Y35572905D01*
X172806381Y36477667D02*
X172806381Y37144334D01*
X173806381Y36715762D01*
X157176381Y33292905D02*
X157985905Y33292905D01*
X158081143Y33340524D01*
X158128762Y33388143D01*
X158176381Y33483381D01*
X158176381Y33673858D01*
X158128762Y33769096D01*
X158081143Y33816715D01*
X157985905Y33864334D01*
X157176381Y33864334D01*
X157271619Y34292905D02*
X157224000Y34340524D01*
X157176381Y34435762D01*
X157176381Y34673858D01*
X157224000Y34769096D01*
X157271619Y34816715D01*
X157366857Y34864334D01*
X157462095Y34864334D01*
X157604952Y34816715D01*
X158176381Y34245286D01*
X158176381Y34864334D01*
X157176381Y35483381D02*
X157176381Y35578620D01*
X157224000Y35673858D01*
X157271619Y35721477D01*
X157366857Y35769096D01*
X157557333Y35816715D01*
X157795429Y35816715D01*
X157985905Y35769096D01*
X158081143Y35721477D01*
X158128762Y35673858D01*
X158176381Y35578620D01*
X158176381Y35483381D01*
X158128762Y35388143D01*
X158081143Y35340524D01*
X157985905Y35292905D01*
X157795429Y35245286D01*
X157557333Y35245286D01*
X157366857Y35292905D01*
X157271619Y35340524D01*
X157224000Y35388143D01*
X157176381Y35483381D01*
X47783905Y35890619D02*
X47783905Y35081095D01*
X47831524Y34985857D01*
X47879143Y34938238D01*
X47974381Y34890619D01*
X48164858Y34890619D01*
X48260096Y34938238D01*
X48307715Y34985857D01*
X48355334Y35081095D01*
X48355334Y35890619D01*
X48783905Y35795381D02*
X48831524Y35843000D01*
X48926762Y35890619D01*
X49164858Y35890619D01*
X49260096Y35843000D01*
X49307715Y35795381D01*
X49355334Y35700143D01*
X49355334Y35604905D01*
X49307715Y35462048D01*
X48736286Y34890619D01*
X49355334Y34890619D01*
X49736286Y35795381D02*
X49783905Y35843000D01*
X49879143Y35890619D01*
X50117239Y35890619D01*
X50212477Y35843000D01*
X50260096Y35795381D01*
X50307715Y35700143D01*
X50307715Y35604905D01*
X50260096Y35462048D01*
X49688667Y34890619D01*
X50307715Y34890619D01*
X42251334Y26095857D02*
X42203715Y26048238D01*
X42060858Y26000619D01*
X41965620Y26000619D01*
X41822762Y26048238D01*
X41727524Y26143476D01*
X41679905Y26238714D01*
X41632286Y26429190D01*
X41632286Y26572048D01*
X41679905Y26762524D01*
X41727524Y26857762D01*
X41822762Y26953000D01*
X41965620Y27000619D01*
X42060858Y27000619D01*
X42203715Y26953000D01*
X42251334Y26905381D01*
X43203715Y26000619D02*
X42632286Y26000619D01*
X42918000Y26000619D02*
X42918000Y27000619D01*
X42822762Y26857762D01*
X42727524Y26762524D01*
X42632286Y26714905D01*
X37933334Y39303857D02*
X37885715Y39256238D01*
X37742858Y39208619D01*
X37647620Y39208619D01*
X37504762Y39256238D01*
X37409524Y39351476D01*
X37361905Y39446714D01*
X37314286Y39637190D01*
X37314286Y39780048D01*
X37361905Y39970524D01*
X37409524Y40065762D01*
X37504762Y40161000D01*
X37647620Y40208619D01*
X37742858Y40208619D01*
X37885715Y40161000D01*
X37933334Y40113381D01*
X38314286Y40113381D02*
X38361905Y40161000D01*
X38457143Y40208619D01*
X38695239Y40208619D01*
X38790477Y40161000D01*
X38838096Y40113381D01*
X38885715Y40018143D01*
X38885715Y39922905D01*
X38838096Y39780048D01*
X38266667Y39208619D01*
X38885715Y39208619D01*
X51027334Y25133857D02*
X50979715Y25086238D01*
X50836858Y25038619D01*
X50741620Y25038619D01*
X50598762Y25086238D01*
X50503524Y25181476D01*
X50455905Y25276714D01*
X50408286Y25467190D01*
X50408286Y25610048D01*
X50455905Y25800524D01*
X50503524Y25895762D01*
X50598762Y25991000D01*
X50741620Y26038619D01*
X50836858Y26038619D01*
X50979715Y25991000D01*
X51027334Y25943381D01*
X51360667Y26038619D02*
X51979715Y26038619D01*
X51646381Y25657667D01*
X51789239Y25657667D01*
X51884477Y25610048D01*
X51932096Y25562429D01*
X51979715Y25467190D01*
X51979715Y25229095D01*
X51932096Y25133857D01*
X51884477Y25086238D01*
X51789239Y25038619D01*
X51503524Y25038619D01*
X51408286Y25086238D01*
X51360667Y25133857D01*
X57699715Y39113857D02*
X57652096Y39066238D01*
X57509239Y39018619D01*
X57414001Y39018619D01*
X57271143Y39066238D01*
X57175905Y39161476D01*
X57128286Y39256714D01*
X57080667Y39447190D01*
X57080667Y39590048D01*
X57128286Y39780524D01*
X57175905Y39875762D01*
X57271143Y39971000D01*
X57414001Y40018619D01*
X57509239Y40018619D01*
X57652096Y39971000D01*
X57699715Y39923381D01*
X58556858Y39685286D02*
X58556858Y39018619D01*
X58318762Y40066238D02*
X58080667Y39351952D01*
X58699715Y39351952D01*
X59080667Y39018619D02*
X59080667Y40018619D01*
X59414001Y39304333D01*
X59747334Y40018619D01*
X59747334Y39018619D01*
X60747334Y39018619D02*
X60175905Y39018619D01*
X60461619Y39018619D02*
X60461619Y40018619D01*
X60366381Y39875762D01*
X60271143Y39780524D01*
X60175905Y39732905D01*
X115397334Y18773857D02*
X115349715Y18726238D01*
X115206858Y18678619D01*
X115111620Y18678619D01*
X114968762Y18726238D01*
X114873524Y18821476D01*
X114825905Y18916714D01*
X114778286Y19107190D01*
X114778286Y19250048D01*
X114825905Y19440524D01*
X114873524Y19535762D01*
X114968762Y19631000D01*
X115111620Y19678619D01*
X115206858Y19678619D01*
X115349715Y19631000D01*
X115397334Y19583381D01*
X116254477Y19678619D02*
X116064000Y19678619D01*
X115968762Y19631000D01*
X115921143Y19583381D01*
X115825905Y19440524D01*
X115778286Y19250048D01*
X115778286Y18869095D01*
X115825905Y18773857D01*
X115873524Y18726238D01*
X115968762Y18678619D01*
X116159239Y18678619D01*
X116254477Y18726238D01*
X116302096Y18773857D01*
X116349715Y18869095D01*
X116349715Y19107190D01*
X116302096Y19202429D01*
X116254477Y19250048D01*
X116159239Y19297667D01*
X115968762Y19297667D01*
X115873524Y19250048D01*
X115825905Y19202429D01*
X115778286Y19107190D01*
X113171143Y61143857D02*
X113123524Y61096238D01*
X112980667Y61048619D01*
X112885429Y61048619D01*
X112742571Y61096238D01*
X112647333Y61191476D01*
X112599714Y61286714D01*
X112552095Y61477190D01*
X112552095Y61620048D01*
X112599714Y61810524D01*
X112647333Y61905762D01*
X112742571Y62001000D01*
X112885429Y62048619D01*
X112980667Y62048619D01*
X113123524Y62001000D01*
X113171143Y61953381D01*
X114123524Y61048619D02*
X113552095Y61048619D01*
X113837809Y61048619D02*
X113837809Y62048619D01*
X113742571Y61905762D01*
X113647333Y61810524D01*
X113552095Y61762905D01*
X114504476Y61953381D02*
X114552095Y62001000D01*
X114647333Y62048619D01*
X114885429Y62048619D01*
X114980667Y62001000D01*
X115028286Y61953381D01*
X115075905Y61858143D01*
X115075905Y61762905D01*
X115028286Y61620048D01*
X114456857Y61048619D01*
X115075905Y61048619D01*
X50771143Y75913857D02*
X50723524Y75866238D01*
X50580667Y75818619D01*
X50485429Y75818619D01*
X50342571Y75866238D01*
X50247333Y75961476D01*
X50199714Y76056714D01*
X50152095Y76247190D01*
X50152095Y76390048D01*
X50199714Y76580524D01*
X50247333Y76675762D01*
X50342571Y76771000D01*
X50485429Y76818619D01*
X50580667Y76818619D01*
X50723524Y76771000D01*
X50771143Y76723381D01*
X51723524Y75818619D02*
X51152095Y75818619D01*
X51437809Y75818619D02*
X51437809Y76818619D01*
X51342571Y76675762D01*
X51247333Y76580524D01*
X51152095Y76532905D01*
X52628286Y76818619D02*
X52152095Y76818619D01*
X52104476Y76342429D01*
X52152095Y76390048D01*
X52247333Y76437667D01*
X52485429Y76437667D01*
X52580667Y76390048D01*
X52628286Y76342429D01*
X52675905Y76247190D01*
X52675905Y76009095D01*
X52628286Y75913857D01*
X52580667Y75866238D01*
X52485429Y75818619D01*
X52247333Y75818619D01*
X52152095Y75866238D01*
X52104476Y75913857D01*
X39271143Y10313857D02*
X39223524Y10266238D01*
X39080667Y10218619D01*
X38985429Y10218619D01*
X38842571Y10266238D01*
X38747333Y10361476D01*
X38699714Y10456714D01*
X38652095Y10647190D01*
X38652095Y10790048D01*
X38699714Y10980524D01*
X38747333Y11075762D01*
X38842571Y11171000D01*
X38985429Y11218619D01*
X39080667Y11218619D01*
X39223524Y11171000D01*
X39271143Y11123381D01*
X40223524Y10218619D02*
X39652095Y10218619D01*
X39937809Y10218619D02*
X39937809Y11218619D01*
X39842571Y11075762D01*
X39747333Y10980524D01*
X39652095Y10932905D01*
X41080667Y11218619D02*
X40890190Y11218619D01*
X40794952Y11171000D01*
X40747333Y11123381D01*
X40652095Y10980524D01*
X40604476Y10790048D01*
X40604476Y10409095D01*
X40652095Y10313857D01*
X40699714Y10266238D01*
X40794952Y10218619D01*
X40985429Y10218619D01*
X41080667Y10266238D01*
X41128286Y10313857D01*
X41175905Y10409095D01*
X41175905Y10647190D01*
X41128286Y10742429D01*
X41080667Y10790048D01*
X40985429Y10837667D01*
X40794952Y10837667D01*
X40699714Y10790048D01*
X40652095Y10742429D01*
X40604476Y10647190D01*
X36471143Y13028143D02*
X36518762Y12980524D01*
X36566381Y12837667D01*
X36566381Y12742429D01*
X36518762Y12599571D01*
X36423524Y12504333D01*
X36328286Y12456714D01*
X36137810Y12409095D01*
X35994952Y12409095D01*
X35804476Y12456714D01*
X35709238Y12504333D01*
X35614000Y12599571D01*
X35566381Y12742429D01*
X35566381Y12837667D01*
X35614000Y12980524D01*
X35661619Y13028143D01*
X36566381Y13980524D02*
X36566381Y13409095D01*
X36566381Y13694809D02*
X35566381Y13694809D01*
X35709238Y13599571D01*
X35804476Y13504333D01*
X35852095Y13409095D01*
X35566381Y14313857D02*
X35566381Y14980524D01*
X36566381Y14551952D01*
X119981143Y34373857D02*
X119933524Y34326238D01*
X119790667Y34278619D01*
X119695429Y34278619D01*
X119552571Y34326238D01*
X119457333Y34421476D01*
X119409714Y34516714D01*
X119362095Y34707190D01*
X119362095Y34850048D01*
X119409714Y35040524D01*
X119457333Y35135762D01*
X119552571Y35231000D01*
X119695429Y35278619D01*
X119790667Y35278619D01*
X119933524Y35231000D01*
X119981143Y35183381D01*
X120362095Y35183381D02*
X120409714Y35231000D01*
X120504952Y35278619D01*
X120743048Y35278619D01*
X120838286Y35231000D01*
X120885905Y35183381D01*
X120933524Y35088143D01*
X120933524Y34992905D01*
X120885905Y34850048D01*
X120314476Y34278619D01*
X120933524Y34278619D01*
X121885905Y34278619D02*
X121314476Y34278619D01*
X121600190Y34278619D02*
X121600190Y35278619D01*
X121504952Y35135762D01*
X121409714Y35040524D01*
X121314476Y34992905D01*
X117271143Y33588143D02*
X117318762Y33540524D01*
X117366381Y33397667D01*
X117366381Y33302429D01*
X117318762Y33159571D01*
X117223524Y33064333D01*
X117128286Y33016714D01*
X116937810Y32969095D01*
X116794952Y32969095D01*
X116604476Y33016714D01*
X116509238Y33064333D01*
X116414000Y33159571D01*
X116366381Y33302429D01*
X116366381Y33397667D01*
X116414000Y33540524D01*
X116461619Y33588143D01*
X116461619Y33969095D02*
X116414000Y34016714D01*
X116366381Y34111952D01*
X116366381Y34350048D01*
X116414000Y34445286D01*
X116461619Y34492905D01*
X116556857Y34540524D01*
X116652095Y34540524D01*
X116794952Y34492905D01*
X117366381Y33921476D01*
X117366381Y34540524D01*
X116461619Y34921476D02*
X116414000Y34969095D01*
X116366381Y35064333D01*
X116366381Y35302429D01*
X116414000Y35397667D01*
X116461619Y35445286D01*
X116556857Y35492905D01*
X116652095Y35492905D01*
X116794952Y35445286D01*
X117366381Y34873857D01*
X117366381Y35492905D01*
X125311143Y70988143D02*
X125358762Y70940524D01*
X125406381Y70797667D01*
X125406381Y70702429D01*
X125358762Y70559571D01*
X125263524Y70464333D01*
X125168286Y70416714D01*
X124977810Y70369095D01*
X124834952Y70369095D01*
X124644476Y70416714D01*
X124549238Y70464333D01*
X124454000Y70559571D01*
X124406381Y70702429D01*
X124406381Y70797667D01*
X124454000Y70940524D01*
X124501619Y70988143D01*
X124501619Y71369095D02*
X124454000Y71416714D01*
X124406381Y71511952D01*
X124406381Y71750048D01*
X124454000Y71845286D01*
X124501619Y71892905D01*
X124596857Y71940524D01*
X124692095Y71940524D01*
X124834952Y71892905D01*
X125406381Y71321476D01*
X125406381Y71940524D01*
X124406381Y72797667D02*
X124406381Y72607190D01*
X124454000Y72511952D01*
X124501619Y72464333D01*
X124644476Y72369095D01*
X124834952Y72321476D01*
X125215905Y72321476D01*
X125311143Y72369095D01*
X125358762Y72416714D01*
X125406381Y72511952D01*
X125406381Y72702429D01*
X125358762Y72797667D01*
X125311143Y72845286D01*
X125215905Y72892905D01*
X124977810Y72892905D01*
X124882571Y72845286D01*
X124834952Y72797667D01*
X124787333Y72702429D01*
X124787333Y72511952D01*
X124834952Y72416714D01*
X124882571Y72369095D01*
X124977810Y72321476D01*
X175071143Y59113857D02*
X175023524Y59066238D01*
X174880667Y59018619D01*
X174785429Y59018619D01*
X174642571Y59066238D01*
X174547333Y59161476D01*
X174499714Y59256714D01*
X174452095Y59447190D01*
X174452095Y59590048D01*
X174499714Y59780524D01*
X174547333Y59875762D01*
X174642571Y59971000D01*
X174785429Y60018619D01*
X174880667Y60018619D01*
X175023524Y59971000D01*
X175071143Y59923381D01*
X175404476Y60018619D02*
X176023524Y60018619D01*
X175690190Y59637667D01*
X175833048Y59637667D01*
X175928286Y59590048D01*
X175975905Y59542429D01*
X176023524Y59447190D01*
X176023524Y59209095D01*
X175975905Y59113857D01*
X175928286Y59066238D01*
X175833048Y59018619D01*
X175547333Y59018619D01*
X175452095Y59066238D01*
X175404476Y59113857D01*
X176404476Y59923381D02*
X176452095Y59971000D01*
X176547333Y60018619D01*
X176785429Y60018619D01*
X176880667Y59971000D01*
X176928286Y59923381D01*
X176975905Y59828143D01*
X176975905Y59732905D01*
X176928286Y59590048D01*
X176356857Y59018619D01*
X176975905Y59018619D01*
X178991143Y75093857D02*
X178943524Y75046238D01*
X178800667Y74998619D01*
X178705429Y74998619D01*
X178562571Y75046238D01*
X178467333Y75141476D01*
X178419714Y75236714D01*
X178372095Y75427190D01*
X178372095Y75570048D01*
X178419714Y75760524D01*
X178467333Y75855762D01*
X178562571Y75951000D01*
X178705429Y75998619D01*
X178800667Y75998619D01*
X178943524Y75951000D01*
X178991143Y75903381D01*
X179848286Y75665286D02*
X179848286Y74998619D01*
X179610190Y76046238D02*
X179372095Y75331952D01*
X179991143Y75331952D01*
X180848286Y75998619D02*
X180372095Y75998619D01*
X180324476Y75522429D01*
X180372095Y75570048D01*
X180467333Y75617667D01*
X180705429Y75617667D01*
X180800667Y75570048D01*
X180848286Y75522429D01*
X180895905Y75427190D01*
X180895905Y75189095D01*
X180848286Y75093857D01*
X180800667Y75046238D01*
X180705429Y74998619D01*
X180467333Y74998619D01*
X180372095Y75046238D01*
X180324476Y75093857D01*
X19794952Y78118619D02*
X19794952Y79118619D01*
X20175905Y79118619D01*
X20271143Y79071000D01*
X20318762Y79023381D01*
X20366381Y78928143D01*
X20366381Y78785286D01*
X20318762Y78690048D01*
X20271143Y78642429D01*
X20175905Y78594810D01*
X19794952Y78594810D01*
X21271143Y79118619D02*
X20794952Y79118619D01*
X20747333Y78642429D01*
X20794952Y78690048D01*
X20890190Y78737667D01*
X21128286Y78737667D01*
X21223524Y78690048D01*
X21271143Y78642429D01*
X21318762Y78547190D01*
X21318762Y78309095D01*
X21271143Y78213857D01*
X21223524Y78166238D01*
X21128286Y78118619D01*
X20890190Y78118619D01*
X20794952Y78166238D01*
X20747333Y78213857D01*
X21509238Y78023381D02*
X22271143Y78023381D01*
X23033048Y79071000D02*
X22937810Y79118619D01*
X22794953Y79118619D01*
X22652095Y79071000D01*
X22556857Y78975762D01*
X22509238Y78880524D01*
X22461619Y78690048D01*
X22461619Y78547190D01*
X22509238Y78356714D01*
X22556857Y78261476D01*
X22652095Y78166238D01*
X22794953Y78118619D01*
X22890191Y78118619D01*
X23033048Y78166238D01*
X23080667Y78213857D01*
X23080667Y78547190D01*
X22890191Y78547190D01*
X23509238Y78118619D02*
X23509238Y79118619D01*
X24080667Y78118619D01*
X24080667Y79118619D01*
X24556857Y78118619D02*
X24556857Y79118619D01*
X24794952Y79118619D01*
X24937810Y79071000D01*
X25033048Y78975762D01*
X25080667Y78880524D01*
X25128286Y78690048D01*
X25128286Y78547190D01*
X25080667Y78356714D01*
X25033048Y78261476D01*
X24937810Y78166238D01*
X24794952Y78118619D01*
X24556857Y78118619D01*
X26080667Y78118619D02*
X25509238Y78118619D01*
X25794952Y78118619D02*
X25794952Y79118619D01*
X25699714Y78975762D01*
X25604476Y78880524D01*
X25509238Y78832905D01*
X144798762Y72928619D02*
X144798762Y73928619D01*
X145179715Y73928619D01*
X145274953Y73881000D01*
X145322572Y73833381D01*
X145370191Y73738143D01*
X145370191Y73595286D01*
X145322572Y73500048D01*
X145274953Y73452429D01*
X145179715Y73404810D01*
X144798762Y73404810D01*
X146322572Y72928619D02*
X145751143Y72928619D01*
X146036857Y72928619D02*
X146036857Y73928619D01*
X145941619Y73785762D01*
X145846381Y73690524D01*
X145751143Y73642905D01*
X146703524Y73833381D02*
X146751143Y73881000D01*
X146846381Y73928619D01*
X147084477Y73928619D01*
X147179715Y73881000D01*
X147227334Y73833381D01*
X147274953Y73738143D01*
X147274953Y73642905D01*
X147227334Y73500048D01*
X146655905Y72928619D01*
X147274953Y72928619D01*
X147465429Y72833381D02*
X148227334Y72833381D01*
X148989239Y73881000D02*
X148894001Y73928619D01*
X148751144Y73928619D01*
X148608286Y73881000D01*
X148513048Y73785762D01*
X148465429Y73690524D01*
X148417810Y73500048D01*
X148417810Y73357190D01*
X148465429Y73166714D01*
X148513048Y73071476D01*
X148608286Y72976238D01*
X148751144Y72928619D01*
X148846382Y72928619D01*
X148989239Y72976238D01*
X149036858Y73023857D01*
X149036858Y73357190D01*
X148846382Y73357190D01*
X149465429Y72928619D02*
X149465429Y73928619D01*
X150036858Y72928619D01*
X150036858Y73928619D01*
X150513048Y72928619D02*
X150513048Y73928619D01*
X150751143Y73928619D01*
X150894001Y73881000D01*
X150989239Y73785762D01*
X151036858Y73690524D01*
X151084477Y73500048D01*
X151084477Y73357190D01*
X151036858Y73166714D01*
X150989239Y73071476D01*
X150894001Y72976238D01*
X150751143Y72928619D01*
X150513048Y72928619D01*
X152036858Y72928619D02*
X151465429Y72928619D01*
X151751143Y72928619D02*
X151751143Y73928619D01*
X151655905Y73785762D01*
X151560667Y73690524D01*
X151465429Y73642905D01*
X51586095Y11014619D02*
X51586095Y12014619D01*
X51967048Y12014619D01*
X52062286Y11967000D01*
X52109905Y11919381D01*
X52157524Y11824143D01*
X52157524Y11681286D01*
X52109905Y11586048D01*
X52062286Y11538429D01*
X51967048Y11490810D01*
X51586095Y11490810D01*
X52348000Y10919381D02*
X53109905Y10919381D01*
X53490857Y11014619D02*
X53395619Y11062238D01*
X53348000Y11157476D01*
X53348000Y12014619D01*
X54252763Y11062238D02*
X54157525Y11014619D01*
X53967048Y11014619D01*
X53871810Y11062238D01*
X53824191Y11157476D01*
X53824191Y11538429D01*
X53871810Y11633667D01*
X53967048Y11681286D01*
X54157525Y11681286D01*
X54252763Y11633667D01*
X54300382Y11538429D01*
X54300382Y11443190D01*
X53824191Y11347952D01*
X55157525Y11014619D02*
X55157525Y12014619D01*
X55157525Y11062238D02*
X55062287Y11014619D01*
X54871810Y11014619D01*
X54776572Y11062238D01*
X54728953Y11109857D01*
X54681334Y11205095D01*
X54681334Y11490810D01*
X54728953Y11586048D01*
X54776572Y11633667D01*
X54871810Y11681286D01*
X55062287Y11681286D01*
X55157525Y11633667D01*
X56157525Y11014619D02*
X55586096Y11014619D01*
X55871810Y11014619D02*
X55871810Y12014619D01*
X55776572Y11871762D01*
X55681334Y11776524D01*
X55586096Y11728905D01*
X48971143Y58618619D02*
X48637809Y59094810D01*
X48399714Y58618619D02*
X48399714Y59618619D01*
X48780667Y59618619D01*
X48875905Y59571000D01*
X48923524Y59523381D01*
X48971143Y59428143D01*
X48971143Y59285286D01*
X48923524Y59190048D01*
X48875905Y59142429D01*
X48780667Y59094810D01*
X48399714Y59094810D01*
X49923524Y58618619D02*
X49352095Y58618619D01*
X49637809Y58618619D02*
X49637809Y59618619D01*
X49542571Y59475762D01*
X49447333Y59380524D01*
X49352095Y59332905D01*
X50542571Y59618619D02*
X50637810Y59618619D01*
X50733048Y59571000D01*
X50780667Y59523381D01*
X50828286Y59428143D01*
X50875905Y59237667D01*
X50875905Y58999571D01*
X50828286Y58809095D01*
X50780667Y58713857D01*
X50733048Y58666238D01*
X50637810Y58618619D01*
X50542571Y58618619D01*
X50447333Y58666238D01*
X50399714Y58713857D01*
X50352095Y58809095D01*
X50304476Y58999571D01*
X50304476Y59237667D01*
X50352095Y59428143D01*
X50399714Y59523381D01*
X50447333Y59571000D01*
X50542571Y59618619D01*
X118766381Y40028143D02*
X118290190Y39694809D01*
X118766381Y39456714D02*
X117766381Y39456714D01*
X117766381Y39837667D01*
X117814000Y39932905D01*
X117861619Y39980524D01*
X117956857Y40028143D01*
X118099714Y40028143D01*
X118194952Y39980524D01*
X118242571Y39932905D01*
X118290190Y39837667D01*
X118290190Y39456714D01*
X117861619Y40409095D02*
X117814000Y40456714D01*
X117766381Y40551952D01*
X117766381Y40790048D01*
X117814000Y40885286D01*
X117861619Y40932905D01*
X117956857Y40980524D01*
X118052095Y40980524D01*
X118194952Y40932905D01*
X118766381Y40361476D01*
X118766381Y40980524D01*
X117861619Y41361476D02*
X117814000Y41409095D01*
X117766381Y41504333D01*
X117766381Y41742429D01*
X117814000Y41837667D01*
X117861619Y41885286D01*
X117956857Y41932905D01*
X118052095Y41932905D01*
X118194952Y41885286D01*
X118766381Y41313857D01*
X118766381Y41932905D01*
X176256381Y53418143D02*
X175780190Y53084809D01*
X176256381Y52846714D02*
X175256381Y52846714D01*
X175256381Y53227667D01*
X175304000Y53322905D01*
X175351619Y53370524D01*
X175446857Y53418143D01*
X175589714Y53418143D01*
X175684952Y53370524D01*
X175732571Y53322905D01*
X175780190Y53227667D01*
X175780190Y52846714D01*
X175256381Y53751476D02*
X175256381Y54370524D01*
X175637333Y54037190D01*
X175637333Y54180048D01*
X175684952Y54275286D01*
X175732571Y54322905D01*
X175827810Y54370524D01*
X176065905Y54370524D01*
X176161143Y54322905D01*
X176208762Y54275286D01*
X176256381Y54180048D01*
X176256381Y53894333D01*
X176208762Y53799095D01*
X176161143Y53751476D01*
X175256381Y54703857D02*
X175256381Y55322905D01*
X175637333Y54989571D01*
X175637333Y55132429D01*
X175684952Y55227667D01*
X175732571Y55275286D01*
X175827810Y55322905D01*
X176065905Y55322905D01*
X176161143Y55275286D01*
X176208762Y55227667D01*
X176256381Y55132429D01*
X176256381Y54846714D01*
X176208762Y54751476D01*
X176161143Y54703857D01*
X62626381Y74219095D02*
X63435905Y74219095D01*
X63531143Y74266714D01*
X63578762Y74314333D01*
X63626381Y74409571D01*
X63626381Y74600048D01*
X63578762Y74695286D01*
X63531143Y74742905D01*
X63435905Y74790524D01*
X62626381Y74790524D01*
X62721619Y75219095D02*
X62674000Y75266714D01*
X62626381Y75361952D01*
X62626381Y75600048D01*
X62674000Y75695286D01*
X62721619Y75742905D01*
X62816857Y75790524D01*
X62912095Y75790524D01*
X63054952Y75742905D01*
X63626381Y75171476D01*
X63626381Y75790524D01*
X57935905Y70958619D02*
X57935905Y71958619D01*
X58316858Y71958619D01*
X58412096Y71911000D01*
X58459715Y71863381D01*
X58507334Y71768143D01*
X58507334Y71625286D01*
X58459715Y71530048D01*
X58412096Y71482429D01*
X58316858Y71434810D01*
X57935905Y71434810D01*
X59459715Y70958619D02*
X58888286Y70958619D01*
X59174000Y70958619D02*
X59174000Y71958619D01*
X59078762Y71815762D01*
X58983524Y71720524D01*
X58888286Y71672905D01*
X57935905Y73498619D02*
X57935905Y74498619D01*
X58316858Y74498619D01*
X58412096Y74451000D01*
X58459715Y74403381D01*
X58507334Y74308143D01*
X58507334Y74165286D01*
X58459715Y74070048D01*
X58412096Y74022429D01*
X58316858Y73974810D01*
X57935905Y73974810D01*
X58888286Y74403381D02*
X58935905Y74451000D01*
X59031143Y74498619D01*
X59269239Y74498619D01*
X59364477Y74451000D01*
X59412096Y74403381D01*
X59459715Y74308143D01*
X59459715Y74212905D01*
X59412096Y74070048D01*
X58840667Y73498619D01*
X59459715Y73498619D01*
X71572381Y67624905D02*
X70572381Y67624905D01*
X70572381Y68005858D01*
X70620000Y68101096D01*
X70667619Y68148715D01*
X70762857Y68196334D01*
X70905714Y68196334D01*
X71000952Y68148715D01*
X71048571Y68101096D01*
X71096190Y68005858D01*
X71096190Y67624905D01*
X70572381Y68529667D02*
X70572381Y69148715D01*
X70953333Y68815381D01*
X70953333Y68958239D01*
X71000952Y69053477D01*
X71048571Y69101096D01*
X71143810Y69148715D01*
X71381905Y69148715D01*
X71477143Y69101096D01*
X71524762Y69053477D01*
X71572381Y68958239D01*
X71572381Y68672524D01*
X71524762Y68577286D01*
X71477143Y68529667D01*
X74366381Y20614905D02*
X73366381Y20614905D01*
X73366381Y20995858D01*
X73414000Y21091096D01*
X73461619Y21138715D01*
X73556857Y21186334D01*
X73699714Y21186334D01*
X73794952Y21138715D01*
X73842571Y21091096D01*
X73890190Y20995858D01*
X73890190Y20614905D01*
X73699714Y22043477D02*
X74366381Y22043477D01*
X73318762Y21805381D02*
X74033048Y21567286D01*
X74033048Y22186334D01*
X108826381Y68207305D02*
X107826381Y68207305D01*
X107826381Y68588258D01*
X107874000Y68683496D01*
X107921619Y68731115D01*
X108016857Y68778734D01*
X108159714Y68778734D01*
X108254952Y68731115D01*
X108302571Y68683496D01*
X108350190Y68588258D01*
X108350190Y68207305D01*
X107826381Y69683496D02*
X107826381Y69207305D01*
X108302571Y69159686D01*
X108254952Y69207305D01*
X108207333Y69302543D01*
X108207333Y69540639D01*
X108254952Y69635877D01*
X108302571Y69683496D01*
X108397810Y69731115D01*
X108635905Y69731115D01*
X108731143Y69683496D01*
X108778762Y69635877D01*
X108826381Y69540639D01*
X108826381Y69302543D01*
X108778762Y69207305D01*
X108731143Y69159686D01*
X107408705Y25034219D02*
X107408705Y26034219D01*
X107789658Y26034219D01*
X107884896Y25986600D01*
X107932515Y25938981D01*
X107980134Y25843743D01*
X107980134Y25700886D01*
X107932515Y25605648D01*
X107884896Y25558029D01*
X107789658Y25510410D01*
X107408705Y25510410D01*
X108837277Y26034219D02*
X108646800Y26034219D01*
X108551562Y25986600D01*
X108503943Y25938981D01*
X108408705Y25796124D01*
X108361086Y25605648D01*
X108361086Y25224695D01*
X108408705Y25129457D01*
X108456324Y25081838D01*
X108551562Y25034219D01*
X108742039Y25034219D01*
X108837277Y25081838D01*
X108884896Y25129457D01*
X108932515Y25224695D01*
X108932515Y25462790D01*
X108884896Y25558029D01*
X108837277Y25605648D01*
X108742039Y25653267D01*
X108551562Y25653267D01*
X108456324Y25605648D01*
X108408705Y25558029D01*
X108361086Y25462790D01*
X108355581Y64113305D02*
X107355581Y64113305D01*
X107355581Y64494258D01*
X107403200Y64589496D01*
X107450819Y64637115D01*
X107546057Y64684734D01*
X107688914Y64684734D01*
X107784152Y64637115D01*
X107831771Y64589496D01*
X107879390Y64494258D01*
X107879390Y64113305D01*
X107355581Y65018067D02*
X107355581Y65684734D01*
X108355581Y65256162D01*
X109258705Y21224219D02*
X109258705Y22224219D01*
X109639658Y22224219D01*
X109734896Y22176600D01*
X109782515Y22128981D01*
X109830134Y22033743D01*
X109830134Y21890886D01*
X109782515Y21795648D01*
X109734896Y21748029D01*
X109639658Y21700410D01*
X109258705Y21700410D01*
X110401562Y21795648D02*
X110306324Y21843267D01*
X110258705Y21890886D01*
X110211086Y21986124D01*
X110211086Y22033743D01*
X110258705Y22128981D01*
X110306324Y22176600D01*
X110401562Y22224219D01*
X110592039Y22224219D01*
X110687277Y22176600D01*
X110734896Y22128981D01*
X110782515Y22033743D01*
X110782515Y21986124D01*
X110734896Y21890886D01*
X110687277Y21843267D01*
X110592039Y21795648D01*
X110401562Y21795648D01*
X110306324Y21748029D01*
X110258705Y21700410D01*
X110211086Y21605171D01*
X110211086Y21414695D01*
X110258705Y21319457D01*
X110306324Y21271838D01*
X110401562Y21224219D01*
X110592039Y21224219D01*
X110687277Y21271838D01*
X110734896Y21319457D01*
X110782515Y21414695D01*
X110782515Y21605171D01*
X110734896Y21700410D01*
X110687277Y21748029D01*
X110592039Y21795648D01*
X86666381Y25632905D02*
X85666381Y25632905D01*
X85666381Y26013858D01*
X85714000Y26109096D01*
X85761619Y26156715D01*
X85856857Y26204334D01*
X85999714Y26204334D01*
X86094952Y26156715D01*
X86142571Y26109096D01*
X86190190Y26013858D01*
X86190190Y25632905D01*
X86666381Y26680524D02*
X86666381Y26871000D01*
X86618762Y26966239D01*
X86571143Y27013858D01*
X86428286Y27109096D01*
X86237810Y27156715D01*
X85856857Y27156715D01*
X85761619Y27109096D01*
X85714000Y27061477D01*
X85666381Y26966239D01*
X85666381Y26775762D01*
X85714000Y26680524D01*
X85761619Y26632905D01*
X85856857Y26585286D01*
X86094952Y26585286D01*
X86190190Y26632905D01*
X86237810Y26680524D01*
X86285429Y26775762D01*
X86285429Y26966239D01*
X86237810Y27061477D01*
X86190190Y27109096D01*
X86094952Y27156715D01*
X83113714Y65624619D02*
X83113714Y66624619D01*
X83494667Y66624619D01*
X83589905Y66577000D01*
X83637524Y66529381D01*
X83685143Y66434143D01*
X83685143Y66291286D01*
X83637524Y66196048D01*
X83589905Y66148429D01*
X83494667Y66100810D01*
X83113714Y66100810D01*
X84637524Y65624619D02*
X84066095Y65624619D01*
X84351809Y65624619D02*
X84351809Y66624619D01*
X84256571Y66481762D01*
X84161333Y66386524D01*
X84066095Y66338905D01*
X85256571Y66624619D02*
X85351810Y66624619D01*
X85447048Y66577000D01*
X85494667Y66529381D01*
X85542286Y66434143D01*
X85589905Y66243667D01*
X85589905Y66005571D01*
X85542286Y65815095D01*
X85494667Y65719857D01*
X85447048Y65672238D01*
X85351810Y65624619D01*
X85256571Y65624619D01*
X85161333Y65672238D01*
X85113714Y65719857D01*
X85066095Y65815095D01*
X85018476Y66005571D01*
X85018476Y66243667D01*
X85066095Y66434143D01*
X85113714Y66529381D01*
X85161333Y66577000D01*
X85256571Y66624619D01*
X163699714Y26618619D02*
X163699714Y27618619D01*
X164080667Y27618619D01*
X164175905Y27571000D01*
X164223524Y27523381D01*
X164271143Y27428143D01*
X164271143Y27285286D01*
X164223524Y27190048D01*
X164175905Y27142429D01*
X164080667Y27094810D01*
X163699714Y27094810D01*
X165223524Y26618619D02*
X164652095Y26618619D01*
X164937809Y26618619D02*
X164937809Y27618619D01*
X164842571Y27475762D01*
X164747333Y27380524D01*
X164652095Y27332905D01*
X166175905Y26618619D02*
X165604476Y26618619D01*
X165890190Y26618619D02*
X165890190Y27618619D01*
X165794952Y27475762D01*
X165699714Y27380524D01*
X165604476Y27332905D01*
X164647714Y22698619D02*
X164647714Y23698619D01*
X165028667Y23698619D01*
X165123905Y23651000D01*
X165171524Y23603381D01*
X165219143Y23508143D01*
X165219143Y23365286D01*
X165171524Y23270048D01*
X165123905Y23222429D01*
X165028667Y23174810D01*
X164647714Y23174810D01*
X166171524Y22698619D02*
X165600095Y22698619D01*
X165885809Y22698619D02*
X165885809Y23698619D01*
X165790571Y23555762D01*
X165695333Y23460524D01*
X165600095Y23412905D01*
X166552476Y23603381D02*
X166600095Y23651000D01*
X166695333Y23698619D01*
X166933429Y23698619D01*
X167028667Y23651000D01*
X167076286Y23603381D01*
X167123905Y23508143D01*
X167123905Y23412905D01*
X167076286Y23270048D01*
X166504857Y22698619D01*
X167123905Y22698619D01*
X153299714Y71518619D02*
X153299714Y72518619D01*
X153680667Y72518619D01*
X153775905Y72471000D01*
X153823524Y72423381D01*
X153871143Y72328143D01*
X153871143Y72185286D01*
X153823524Y72090048D01*
X153775905Y72042429D01*
X153680667Y71994810D01*
X153299714Y71994810D01*
X154823524Y71518619D02*
X154252095Y71518619D01*
X154537809Y71518619D02*
X154537809Y72518619D01*
X154442571Y72375762D01*
X154347333Y72280524D01*
X154252095Y72232905D01*
X155156857Y72518619D02*
X155775905Y72518619D01*
X155442571Y72137667D01*
X155585429Y72137667D01*
X155680667Y72090048D01*
X155728286Y72042429D01*
X155775905Y71947190D01*
X155775905Y71709095D01*
X155728286Y71613857D01*
X155680667Y71566238D01*
X155585429Y71518619D01*
X155299714Y71518619D01*
X155204476Y71566238D01*
X155156857Y71613857D01*
X186577714Y65448619D02*
X186577714Y66448619D01*
X186958667Y66448619D01*
X187053905Y66401000D01*
X187101524Y66353381D01*
X187149143Y66258143D01*
X187149143Y66115286D01*
X187101524Y66020048D01*
X187053905Y65972429D01*
X186958667Y65924810D01*
X186577714Y65924810D01*
X188101524Y65448619D02*
X187530095Y65448619D01*
X187815809Y65448619D02*
X187815809Y66448619D01*
X187720571Y66305762D01*
X187625333Y66210524D01*
X187530095Y66162905D01*
X188958667Y66115286D02*
X188958667Y65448619D01*
X188720571Y66496238D02*
X188482476Y65781952D01*
X189101524Y65781952D01*
X187761714Y69434619D02*
X187761714Y70434619D01*
X188142667Y70434619D01*
X188237905Y70387000D01*
X188285524Y70339381D01*
X188333143Y70244143D01*
X188333143Y70101286D01*
X188285524Y70006048D01*
X188237905Y69958429D01*
X188142667Y69910810D01*
X187761714Y69910810D01*
X189285524Y69434619D02*
X188714095Y69434619D01*
X188999809Y69434619D02*
X188999809Y70434619D01*
X188904571Y70291762D01*
X188809333Y70196524D01*
X188714095Y70148905D01*
X190190286Y70434619D02*
X189714095Y70434619D01*
X189666476Y69958429D01*
X189714095Y70006048D01*
X189809333Y70053667D01*
X190047429Y70053667D01*
X190142667Y70006048D01*
X190190286Y69958429D01*
X190237905Y69863190D01*
X190237905Y69625095D01*
X190190286Y69529857D01*
X190142667Y69482238D01*
X190047429Y69434619D01*
X189809333Y69434619D01*
X189714095Y69482238D01*
X189666476Y69529857D01*
X36377714Y78070619D02*
X36377714Y79070619D01*
X36758667Y79070619D01*
X36853905Y79023000D01*
X36901524Y78975381D01*
X36949143Y78880143D01*
X36949143Y78737286D01*
X36901524Y78642048D01*
X36853905Y78594429D01*
X36758667Y78546810D01*
X36377714Y78546810D01*
X37901524Y78070619D02*
X37330095Y78070619D01*
X37615809Y78070619D02*
X37615809Y79070619D01*
X37520571Y78927762D01*
X37425333Y78832524D01*
X37330095Y78784905D01*
X38758667Y79070619D02*
X38568190Y79070619D01*
X38472952Y79023000D01*
X38425333Y78975381D01*
X38330095Y78832524D01*
X38282476Y78642048D01*
X38282476Y78261095D01*
X38330095Y78165857D01*
X38377714Y78118238D01*
X38472952Y78070619D01*
X38663429Y78070619D01*
X38758667Y78118238D01*
X38806286Y78165857D01*
X38853905Y78261095D01*
X38853905Y78499190D01*
X38806286Y78594429D01*
X38758667Y78642048D01*
X38663429Y78689667D01*
X38472952Y78689667D01*
X38377714Y78642048D01*
X38330095Y78594429D01*
X38282476Y78499190D01*
X197159714Y39462619D02*
X197159714Y40462619D01*
X197540667Y40462619D01*
X197635905Y40415000D01*
X197683524Y40367381D01*
X197731143Y40272143D01*
X197731143Y40129286D01*
X197683524Y40034048D01*
X197635905Y39986429D01*
X197540667Y39938810D01*
X197159714Y39938810D01*
X198683524Y39462619D02*
X198112095Y39462619D01*
X198397809Y39462619D02*
X198397809Y40462619D01*
X198302571Y40319762D01*
X198207333Y40224524D01*
X198112095Y40176905D01*
X199016857Y40462619D02*
X199683524Y40462619D01*
X199254952Y39462619D01*
X176331714Y16348619D02*
X176331714Y17348619D01*
X176712667Y17348619D01*
X176807905Y17301000D01*
X176855524Y17253381D01*
X176903143Y17158143D01*
X176903143Y17015286D01*
X176855524Y16920048D01*
X176807905Y16872429D01*
X176712667Y16824810D01*
X176331714Y16824810D01*
X177855524Y16348619D02*
X177284095Y16348619D01*
X177569809Y16348619D02*
X177569809Y17348619D01*
X177474571Y17205762D01*
X177379333Y17110524D01*
X177284095Y17062905D01*
X178426952Y16920048D02*
X178331714Y16967667D01*
X178284095Y17015286D01*
X178236476Y17110524D01*
X178236476Y17158143D01*
X178284095Y17253381D01*
X178331714Y17301000D01*
X178426952Y17348619D01*
X178617429Y17348619D01*
X178712667Y17301000D01*
X178760286Y17253381D01*
X178807905Y17158143D01*
X178807905Y17110524D01*
X178760286Y17015286D01*
X178712667Y16967667D01*
X178617429Y16920048D01*
X178426952Y16920048D01*
X178331714Y16872429D01*
X178284095Y16824810D01*
X178236476Y16729571D01*
X178236476Y16539095D01*
X178284095Y16443857D01*
X178331714Y16396238D01*
X178426952Y16348619D01*
X178617429Y16348619D01*
X178712667Y16396238D01*
X178760286Y16443857D01*
X178807905Y16539095D01*
X178807905Y16729571D01*
X178760286Y16824810D01*
X178712667Y16872429D01*
X178617429Y16920048D01*
X196905714Y59782619D02*
X196905714Y60782619D01*
X197286667Y60782619D01*
X197381905Y60735000D01*
X197429524Y60687381D01*
X197477143Y60592143D01*
X197477143Y60449286D01*
X197429524Y60354048D01*
X197381905Y60306429D01*
X197286667Y60258810D01*
X196905714Y60258810D01*
X198429524Y59782619D02*
X197858095Y59782619D01*
X198143809Y59782619D02*
X198143809Y60782619D01*
X198048571Y60639762D01*
X197953333Y60544524D01*
X197858095Y60496905D01*
X198905714Y59782619D02*
X199096190Y59782619D01*
X199191429Y59830238D01*
X199239048Y59877857D01*
X199334286Y60020714D01*
X199381905Y60211190D01*
X199381905Y60592143D01*
X199334286Y60687381D01*
X199286667Y60735000D01*
X199191429Y60782619D01*
X199000952Y60782619D01*
X198905714Y60735000D01*
X198858095Y60687381D01*
X198810476Y60592143D01*
X198810476Y60354048D01*
X198858095Y60258810D01*
X198905714Y60211190D01*
X199000952Y60163571D01*
X199191429Y60163571D01*
X199286667Y60211190D01*
X199334286Y60258810D01*
X199381905Y60354048D01*
X172339714Y75978619D02*
X172339714Y76978619D01*
X172720667Y76978619D01*
X172815905Y76931000D01*
X172863524Y76883381D01*
X172911143Y76788143D01*
X172911143Y76645286D01*
X172863524Y76550048D01*
X172815905Y76502429D01*
X172720667Y76454810D01*
X172339714Y76454810D01*
X173292095Y76883381D02*
X173339714Y76931000D01*
X173434952Y76978619D01*
X173673048Y76978619D01*
X173768286Y76931000D01*
X173815905Y76883381D01*
X173863524Y76788143D01*
X173863524Y76692905D01*
X173815905Y76550048D01*
X173244476Y75978619D01*
X173863524Y75978619D01*
X174482571Y76978619D02*
X174577810Y76978619D01*
X174673048Y76931000D01*
X174720667Y76883381D01*
X174768286Y76788143D01*
X174815905Y76597667D01*
X174815905Y76359571D01*
X174768286Y76169095D01*
X174720667Y76073857D01*
X174673048Y76026238D01*
X174577810Y75978619D01*
X174482571Y75978619D01*
X174387333Y76026238D01*
X174339714Y76073857D01*
X174292095Y76169095D01*
X174244476Y76359571D01*
X174244476Y76597667D01*
X174292095Y76788143D01*
X174339714Y76883381D01*
X174387333Y76931000D01*
X174482571Y76978619D01*
X26725714Y67148619D02*
X26725714Y68148619D01*
X27106667Y68148619D01*
X27201905Y68101000D01*
X27249524Y68053381D01*
X27297143Y67958143D01*
X27297143Y67815286D01*
X27249524Y67720048D01*
X27201905Y67672429D01*
X27106667Y67624810D01*
X26725714Y67624810D01*
X27678095Y68053381D02*
X27725714Y68101000D01*
X27820952Y68148619D01*
X28059048Y68148619D01*
X28154286Y68101000D01*
X28201905Y68053381D01*
X28249524Y67958143D01*
X28249524Y67862905D01*
X28201905Y67720048D01*
X27630476Y67148619D01*
X28249524Y67148619D01*
X29201905Y67148619D02*
X28630476Y67148619D01*
X28916190Y67148619D02*
X28916190Y68148619D01*
X28820952Y68005762D01*
X28725714Y67910524D01*
X28630476Y67862905D01*
X31721143Y36568619D02*
X31387809Y37044810D01*
X31149714Y36568619D02*
X31149714Y37568619D01*
X31530667Y37568619D01*
X31625905Y37521000D01*
X31673524Y37473381D01*
X31721143Y37378143D01*
X31721143Y37235286D01*
X31673524Y37140048D01*
X31625905Y37092429D01*
X31530667Y37044810D01*
X31149714Y37044810D01*
X32054476Y37568619D02*
X32673524Y37568619D01*
X32340190Y37187667D01*
X32483048Y37187667D01*
X32578286Y37140048D01*
X32625905Y37092429D01*
X32673524Y36997190D01*
X32673524Y36759095D01*
X32625905Y36663857D01*
X32578286Y36616238D01*
X32483048Y36568619D01*
X32197333Y36568619D01*
X32102095Y36616238D01*
X32054476Y36663857D01*
X33006857Y37568619D02*
X33673524Y37568619D01*
X33244952Y36568619D01*
X31549714Y79718619D02*
X31549714Y80718619D01*
X31930667Y80718619D01*
X32025905Y80671000D01*
X32073524Y80623381D01*
X32121143Y80528143D01*
X32121143Y80385286D01*
X32073524Y80290048D01*
X32025905Y80242429D01*
X31930667Y80194810D01*
X31549714Y80194810D01*
X32502095Y80623381D02*
X32549714Y80671000D01*
X32644952Y80718619D01*
X32883048Y80718619D01*
X32978286Y80671000D01*
X33025905Y80623381D01*
X33073524Y80528143D01*
X33073524Y80432905D01*
X33025905Y80290048D01*
X32454476Y79718619D01*
X33073524Y79718619D01*
X33454476Y80623381D02*
X33502095Y80671000D01*
X33597333Y80718619D01*
X33835429Y80718619D01*
X33930667Y80671000D01*
X33978286Y80623381D01*
X34025905Y80528143D01*
X34025905Y80432905D01*
X33978286Y80290048D01*
X33406857Y79718619D01*
X34025905Y79718619D01*
X42876381Y51176714D02*
X41876381Y51176714D01*
X41876381Y51557667D01*
X41924000Y51652905D01*
X41971619Y51700524D01*
X42066857Y51748143D01*
X42209714Y51748143D01*
X42304952Y51700524D01*
X42352571Y51652905D01*
X42400190Y51557667D01*
X42400190Y51176714D01*
X41971619Y52129095D02*
X41924000Y52176714D01*
X41876381Y52271952D01*
X41876381Y52510048D01*
X41924000Y52605286D01*
X41971619Y52652905D01*
X42066857Y52700524D01*
X42162095Y52700524D01*
X42304952Y52652905D01*
X42876381Y52081476D01*
X42876381Y52700524D01*
X41876381Y53033857D02*
X41876381Y53652905D01*
X42257333Y53319571D01*
X42257333Y53462429D01*
X42304952Y53557667D01*
X42352571Y53605286D01*
X42447810Y53652905D01*
X42685905Y53652905D01*
X42781143Y53605286D01*
X42828762Y53557667D01*
X42876381Y53462429D01*
X42876381Y53176714D01*
X42828762Y53081476D01*
X42781143Y53033857D01*
X26706381Y53816714D02*
X25706381Y53816714D01*
X25706381Y54197667D01*
X25754000Y54292905D01*
X25801619Y54340524D01*
X25896857Y54388143D01*
X26039714Y54388143D01*
X26134952Y54340524D01*
X26182571Y54292905D01*
X26230190Y54197667D01*
X26230190Y53816714D01*
X25801619Y54769095D02*
X25754000Y54816714D01*
X25706381Y54911952D01*
X25706381Y55150048D01*
X25754000Y55245286D01*
X25801619Y55292905D01*
X25896857Y55340524D01*
X25992095Y55340524D01*
X26134952Y55292905D01*
X26706381Y54721476D01*
X26706381Y55340524D01*
X26039714Y56197667D02*
X26706381Y56197667D01*
X25658762Y55959571D02*
X26373048Y55721476D01*
X26373048Y56340524D01*
X73796381Y47366714D02*
X72796381Y47366714D01*
X72796381Y47747667D01*
X72844000Y47842905D01*
X72891619Y47890524D01*
X72986857Y47938143D01*
X73129714Y47938143D01*
X73224952Y47890524D01*
X73272571Y47842905D01*
X73320190Y47747667D01*
X73320190Y47366714D01*
X72891619Y48319095D02*
X72844000Y48366714D01*
X72796381Y48461952D01*
X72796381Y48700048D01*
X72844000Y48795286D01*
X72891619Y48842905D01*
X72986857Y48890524D01*
X73082095Y48890524D01*
X73224952Y48842905D01*
X73796381Y48271476D01*
X73796381Y48890524D01*
X72796381Y49795286D02*
X72796381Y49319095D01*
X73272571Y49271476D01*
X73224952Y49319095D01*
X73177333Y49414333D01*
X73177333Y49652429D01*
X73224952Y49747667D01*
X73272571Y49795286D01*
X73367810Y49842905D01*
X73605905Y49842905D01*
X73701143Y49795286D01*
X73748762Y49747667D01*
X73796381Y49652429D01*
X73796381Y49414333D01*
X73748762Y49319095D01*
X73701143Y49271476D01*
X73216381Y43806714D02*
X72216381Y43806714D01*
X72216381Y44187667D01*
X72264000Y44282905D01*
X72311619Y44330524D01*
X72406857Y44378143D01*
X72549714Y44378143D01*
X72644952Y44330524D01*
X72692571Y44282905D01*
X72740190Y44187667D01*
X72740190Y43806714D01*
X72311619Y44759095D02*
X72264000Y44806714D01*
X72216381Y44901952D01*
X72216381Y45140048D01*
X72264000Y45235286D01*
X72311619Y45282905D01*
X72406857Y45330524D01*
X72502095Y45330524D01*
X72644952Y45282905D01*
X73216381Y44711476D01*
X73216381Y45330524D01*
X72216381Y46187667D02*
X72216381Y45997190D01*
X72264000Y45901952D01*
X72311619Y45854333D01*
X72454476Y45759095D01*
X72644952Y45711476D01*
X73025905Y45711476D01*
X73121143Y45759095D01*
X73168762Y45806714D01*
X73216381Y45901952D01*
X73216381Y46092429D01*
X73168762Y46187667D01*
X73121143Y46235286D01*
X73025905Y46282905D01*
X72787810Y46282905D01*
X72692571Y46235286D01*
X72644952Y46187667D01*
X72597333Y46092429D01*
X72597333Y45901952D01*
X72644952Y45806714D01*
X72692571Y45759095D01*
X72787810Y45711476D01*
X103406381Y51746714D02*
X102406381Y51746714D01*
X102406381Y52127667D01*
X102454000Y52222905D01*
X102501619Y52270524D01*
X102596857Y52318143D01*
X102739714Y52318143D01*
X102834952Y52270524D01*
X102882571Y52222905D01*
X102930190Y52127667D01*
X102930190Y51746714D01*
X102501619Y52699095D02*
X102454000Y52746714D01*
X102406381Y52841952D01*
X102406381Y53080048D01*
X102454000Y53175286D01*
X102501619Y53222905D01*
X102596857Y53270524D01*
X102692095Y53270524D01*
X102834952Y53222905D01*
X103406381Y52651476D01*
X103406381Y53270524D01*
X102406381Y53603857D02*
X102406381Y54270524D01*
X103406381Y53841952D01*
X104146381Y43466714D02*
X103146381Y43466714D01*
X103146381Y43847667D01*
X103194000Y43942905D01*
X103241619Y43990524D01*
X103336857Y44038143D01*
X103479714Y44038143D01*
X103574952Y43990524D01*
X103622571Y43942905D01*
X103670190Y43847667D01*
X103670190Y43466714D01*
X103241619Y44419095D02*
X103194000Y44466714D01*
X103146381Y44561952D01*
X103146381Y44800048D01*
X103194000Y44895286D01*
X103241619Y44942905D01*
X103336857Y44990524D01*
X103432095Y44990524D01*
X103574952Y44942905D01*
X104146381Y44371476D01*
X104146381Y44990524D01*
X103574952Y45561952D02*
X103527333Y45466714D01*
X103479714Y45419095D01*
X103384476Y45371476D01*
X103336857Y45371476D01*
X103241619Y45419095D01*
X103194000Y45466714D01*
X103146381Y45561952D01*
X103146381Y45752429D01*
X103194000Y45847667D01*
X103241619Y45895286D01*
X103336857Y45942905D01*
X103384476Y45942905D01*
X103479714Y45895286D01*
X103527333Y45847667D01*
X103574952Y45752429D01*
X103574952Y45561952D01*
X103622571Y45466714D01*
X103670190Y45419095D01*
X103765429Y45371476D01*
X103955905Y45371476D01*
X104051143Y45419095D01*
X104098762Y45466714D01*
X104146381Y45561952D01*
X104146381Y45752429D01*
X104098762Y45847667D01*
X104051143Y45895286D01*
X103955905Y45942905D01*
X103765429Y45942905D01*
X103670190Y45895286D01*
X103622571Y45847667D01*
X103574952Y45752429D01*
X156346381Y53016714D02*
X155346381Y53016714D01*
X155346381Y53397667D01*
X155394000Y53492905D01*
X155441619Y53540524D01*
X155536857Y53588143D01*
X155679714Y53588143D01*
X155774952Y53540524D01*
X155822571Y53492905D01*
X155870190Y53397667D01*
X155870190Y53016714D01*
X155441619Y53969095D02*
X155394000Y54016714D01*
X155346381Y54111952D01*
X155346381Y54350048D01*
X155394000Y54445286D01*
X155441619Y54492905D01*
X155536857Y54540524D01*
X155632095Y54540524D01*
X155774952Y54492905D01*
X156346381Y53921476D01*
X156346381Y54540524D01*
X156346381Y55016714D02*
X156346381Y55207190D01*
X156298762Y55302429D01*
X156251143Y55350048D01*
X156108286Y55445286D01*
X155917810Y55492905D01*
X155536857Y55492905D01*
X155441619Y55445286D01*
X155394000Y55397667D01*
X155346381Y55302429D01*
X155346381Y55111952D01*
X155394000Y55016714D01*
X155441619Y54969095D01*
X155536857Y54921476D01*
X155774952Y54921476D01*
X155870190Y54969095D01*
X155917810Y55016714D01*
X155965429Y55111952D01*
X155965429Y55302429D01*
X155917810Y55397667D01*
X155870190Y55445286D01*
X155774952Y55492905D01*
X155916381Y40616714D02*
X154916381Y40616714D01*
X154916381Y40997667D01*
X154964000Y41092905D01*
X155011619Y41140524D01*
X155106857Y41188143D01*
X155249714Y41188143D01*
X155344952Y41140524D01*
X155392571Y41092905D01*
X155440190Y40997667D01*
X155440190Y40616714D01*
X154916381Y41521476D02*
X154916381Y42140524D01*
X155297333Y41807190D01*
X155297333Y41950048D01*
X155344952Y42045286D01*
X155392571Y42092905D01*
X155487810Y42140524D01*
X155725905Y42140524D01*
X155821143Y42092905D01*
X155868762Y42045286D01*
X155916381Y41950048D01*
X155916381Y41664333D01*
X155868762Y41569095D01*
X155821143Y41521476D01*
X154916381Y42759571D02*
X154916381Y42854810D01*
X154964000Y42950048D01*
X155011619Y42997667D01*
X155106857Y43045286D01*
X155297333Y43092905D01*
X155535429Y43092905D01*
X155725905Y43045286D01*
X155821143Y42997667D01*
X155868762Y42950048D01*
X155916381Y42854810D01*
X155916381Y42759571D01*
X155868762Y42664333D01*
X155821143Y42616714D01*
X155725905Y42569095D01*
X155535429Y42521476D01*
X155297333Y42521476D01*
X155106857Y42569095D01*
X155011619Y42616714D01*
X154964000Y42664333D01*
X154916381Y42759571D01*
X174206381Y49166714D02*
X173206381Y49166714D01*
X173206381Y49547667D01*
X173254000Y49642905D01*
X173301619Y49690524D01*
X173396857Y49738143D01*
X173539714Y49738143D01*
X173634952Y49690524D01*
X173682571Y49642905D01*
X173730190Y49547667D01*
X173730190Y49166714D01*
X173206381Y50071476D02*
X173206381Y50690524D01*
X173587333Y50357190D01*
X173587333Y50500048D01*
X173634952Y50595286D01*
X173682571Y50642905D01*
X173777810Y50690524D01*
X174015905Y50690524D01*
X174111143Y50642905D01*
X174158762Y50595286D01*
X174206381Y50500048D01*
X174206381Y50214333D01*
X174158762Y50119095D01*
X174111143Y50071476D01*
X174206381Y51642905D02*
X174206381Y51071476D01*
X174206381Y51357190D02*
X173206381Y51357190D01*
X173349238Y51261952D01*
X173444476Y51166714D01*
X173492095Y51071476D01*
X174036381Y40276714D02*
X173036381Y40276714D01*
X173036381Y40657667D01*
X173084000Y40752905D01*
X173131619Y40800524D01*
X173226857Y40848143D01*
X173369714Y40848143D01*
X173464952Y40800524D01*
X173512571Y40752905D01*
X173560190Y40657667D01*
X173560190Y40276714D01*
X173036381Y41181476D02*
X173036381Y41800524D01*
X173417333Y41467190D01*
X173417333Y41610048D01*
X173464952Y41705286D01*
X173512571Y41752905D01*
X173607810Y41800524D01*
X173845905Y41800524D01*
X173941143Y41752905D01*
X173988762Y41705286D01*
X174036381Y41610048D01*
X174036381Y41324333D01*
X173988762Y41229095D01*
X173941143Y41181476D01*
X173131619Y42181476D02*
X173084000Y42229095D01*
X173036381Y42324333D01*
X173036381Y42562429D01*
X173084000Y42657667D01*
X173131619Y42705286D01*
X173226857Y42752905D01*
X173322095Y42752905D01*
X173464952Y42705286D01*
X174036381Y42133857D01*
X174036381Y42752905D01*
X53871143Y63213857D02*
X53823524Y63166238D01*
X53680667Y63118619D01*
X53585429Y63118619D01*
X53442571Y63166238D01*
X53347333Y63261476D01*
X53299714Y63356714D01*
X53252095Y63547190D01*
X53252095Y63690048D01*
X53299714Y63880524D01*
X53347333Y63975762D01*
X53442571Y64071000D01*
X53585429Y64118619D01*
X53680667Y64118619D01*
X53823524Y64071000D01*
X53871143Y64023381D01*
X54823524Y63118619D02*
X54252095Y63118619D01*
X54537809Y63118619D02*
X54537809Y64118619D01*
X54442571Y63975762D01*
X54347333Y63880524D01*
X54252095Y63832905D01*
X55156857Y64118619D02*
X55775905Y64118619D01*
X55442571Y63737667D01*
X55585429Y63737667D01*
X55680667Y63690048D01*
X55728286Y63642429D01*
X55775905Y63547190D01*
X55775905Y63309095D01*
X55728286Y63213857D01*
X55680667Y63166238D01*
X55585429Y63118619D01*
X55299714Y63118619D01*
X55204476Y63166238D01*
X55156857Y63213857D01*
X10091143Y50628143D02*
X10138762Y50580524D01*
X10186381Y50437667D01*
X10186381Y50342429D01*
X10138762Y50199571D01*
X10043524Y50104333D01*
X9948286Y50056714D01*
X9757810Y50009095D01*
X9614952Y50009095D01*
X9424476Y50056714D01*
X9329238Y50104333D01*
X9234000Y50199571D01*
X9186381Y50342429D01*
X9186381Y50437667D01*
X9234000Y50580524D01*
X9281619Y50628143D01*
X9519714Y51485286D02*
X10186381Y51485286D01*
X9138762Y51247190D02*
X9853048Y51009095D01*
X9853048Y51628143D01*
X10186381Y52056714D02*
X10186381Y52247190D01*
X10138762Y52342429D01*
X10091143Y52390048D01*
X9948286Y52485286D01*
X9757810Y52532905D01*
X9376857Y52532905D01*
X9281619Y52485286D01*
X9234000Y52437667D01*
X9186381Y52342429D01*
X9186381Y52151952D01*
X9234000Y52056714D01*
X9281619Y52009095D01*
X9376857Y51961476D01*
X9614952Y51961476D01*
X9710190Y52009095D01*
X9757810Y52056714D01*
X9805429Y52151952D01*
X9805429Y52342429D01*
X9757810Y52437667D01*
X9710190Y52485286D01*
X9614952Y52532905D01*
X80366381Y63728143D02*
X79890190Y63394809D01*
X80366381Y63156714D02*
X79366381Y63156714D01*
X79366381Y63537667D01*
X79414000Y63632905D01*
X79461619Y63680524D01*
X79556857Y63728143D01*
X79699714Y63728143D01*
X79794952Y63680524D01*
X79842571Y63632905D01*
X79890190Y63537667D01*
X79890190Y63156714D01*
X79366381Y64061476D02*
X79366381Y64680524D01*
X79747333Y64347190D01*
X79747333Y64490048D01*
X79794952Y64585286D01*
X79842571Y64632905D01*
X79937810Y64680524D01*
X80175905Y64680524D01*
X80271143Y64632905D01*
X80318762Y64585286D01*
X80366381Y64490048D01*
X80366381Y64204333D01*
X80318762Y64109095D01*
X80271143Y64061476D01*
X80366381Y65156714D02*
X80366381Y65347190D01*
X80318762Y65442429D01*
X80271143Y65490048D01*
X80128286Y65585286D01*
X79937810Y65632905D01*
X79556857Y65632905D01*
X79461619Y65585286D01*
X79414000Y65537667D01*
X79366381Y65442429D01*
X79366381Y65251952D01*
X79414000Y65156714D01*
X79461619Y65109095D01*
X79556857Y65061476D01*
X79794952Y65061476D01*
X79890190Y65109095D01*
X79937810Y65156714D01*
X79985429Y65251952D01*
X79985429Y65442429D01*
X79937810Y65537667D01*
X79890190Y65585286D01*
X79794952Y65632905D01*
X82666381Y63728143D02*
X82190190Y63394809D01*
X82666381Y63156714D02*
X81666381Y63156714D01*
X81666381Y63537667D01*
X81714000Y63632905D01*
X81761619Y63680524D01*
X81856857Y63728143D01*
X81999714Y63728143D01*
X82094952Y63680524D01*
X82142571Y63632905D01*
X82190190Y63537667D01*
X82190190Y63156714D01*
X81999714Y64585286D02*
X82666381Y64585286D01*
X81618762Y64347190D02*
X82333048Y64109095D01*
X82333048Y64728143D01*
X81666381Y65299571D02*
X81666381Y65394810D01*
X81714000Y65490048D01*
X81761619Y65537667D01*
X81856857Y65585286D01*
X82047333Y65632905D01*
X82285429Y65632905D01*
X82475905Y65585286D01*
X82571143Y65537667D01*
X82618762Y65490048D01*
X82666381Y65394810D01*
X82666381Y65299571D01*
X82618762Y65204333D01*
X82571143Y65156714D01*
X82475905Y65109095D01*
X82285429Y65061476D01*
X82047333Y65061476D01*
X81856857Y65109095D01*
X81761619Y65156714D01*
X81714000Y65204333D01*
X81666381Y65299571D01*
X76371143Y30118619D02*
X76037809Y30594810D01*
X75799714Y30118619D02*
X75799714Y31118619D01*
X76180667Y31118619D01*
X76275905Y31071000D01*
X76323524Y31023381D01*
X76371143Y30928143D01*
X76371143Y30785286D01*
X76323524Y30690048D01*
X76275905Y30642429D01*
X76180667Y30594810D01*
X75799714Y30594810D01*
X77228286Y30785286D02*
X77228286Y30118619D01*
X76990190Y31166238D02*
X76752095Y30451952D01*
X77371143Y30451952D01*
X78275905Y30118619D02*
X77704476Y30118619D01*
X77990190Y30118619D02*
X77990190Y31118619D01*
X77894952Y30975762D01*
X77799714Y30880524D01*
X77704476Y30832905D01*
X76471143Y32618619D02*
X76137809Y33094810D01*
X75899714Y32618619D02*
X75899714Y33618619D01*
X76280667Y33618619D01*
X76375905Y33571000D01*
X76423524Y33523381D01*
X76471143Y33428143D01*
X76471143Y33285286D01*
X76423524Y33190048D01*
X76375905Y33142429D01*
X76280667Y33094810D01*
X75899714Y33094810D01*
X77328286Y33285286D02*
X77328286Y32618619D01*
X77090190Y33666238D02*
X76852095Y32951952D01*
X77471143Y32951952D01*
X77804476Y33523381D02*
X77852095Y33571000D01*
X77947333Y33618619D01*
X78185429Y33618619D01*
X78280667Y33571000D01*
X78328286Y33523381D01*
X78375905Y33428143D01*
X78375905Y33332905D01*
X78328286Y33190048D01*
X77756857Y32618619D01*
X78375905Y32618619D01*
X156376381Y64378143D02*
X155900190Y64044809D01*
X156376381Y63806714D02*
X155376381Y63806714D01*
X155376381Y64187667D01*
X155424000Y64282905D01*
X155471619Y64330524D01*
X155566857Y64378143D01*
X155709714Y64378143D01*
X155804952Y64330524D01*
X155852571Y64282905D01*
X155900190Y64187667D01*
X155900190Y63806714D01*
X155709714Y65235286D02*
X156376381Y65235286D01*
X155328762Y64997190D02*
X156043048Y64759095D01*
X156043048Y65378143D01*
X155376381Y65663857D02*
X155376381Y66282905D01*
X155757333Y65949571D01*
X155757333Y66092429D01*
X155804952Y66187667D01*
X155852571Y66235286D01*
X155947810Y66282905D01*
X156185905Y66282905D01*
X156281143Y66235286D01*
X156328762Y66187667D01*
X156376381Y66092429D01*
X156376381Y65806714D01*
X156328762Y65711476D01*
X156281143Y65663857D01*
X162256381Y64488143D02*
X161780190Y64154809D01*
X162256381Y63916714D02*
X161256381Y63916714D01*
X161256381Y64297667D01*
X161304000Y64392905D01*
X161351619Y64440524D01*
X161446857Y64488143D01*
X161589714Y64488143D01*
X161684952Y64440524D01*
X161732571Y64392905D01*
X161780190Y64297667D01*
X161780190Y63916714D01*
X161589714Y65345286D02*
X162256381Y65345286D01*
X161208762Y65107190D02*
X161923048Y64869095D01*
X161923048Y65488143D01*
X161589714Y66297667D02*
X162256381Y66297667D01*
X161208762Y66059571D02*
X161923048Y65821476D01*
X161923048Y66440524D01*
X192361143Y41638619D02*
X192027809Y42114810D01*
X191789714Y41638619D02*
X191789714Y42638619D01*
X192170667Y42638619D01*
X192265905Y42591000D01*
X192313524Y42543381D01*
X192361143Y42448143D01*
X192361143Y42305286D01*
X192313524Y42210048D01*
X192265905Y42162429D01*
X192170667Y42114810D01*
X191789714Y42114810D01*
X193218286Y42305286D02*
X193218286Y41638619D01*
X192980190Y42686238D02*
X192742095Y41971952D01*
X193361143Y41971952D01*
X194218286Y42638619D02*
X193742095Y42638619D01*
X193694476Y42162429D01*
X193742095Y42210048D01*
X193837333Y42257667D01*
X194075429Y42257667D01*
X194170667Y42210048D01*
X194218286Y42162429D01*
X194265905Y42067190D01*
X194265905Y41829095D01*
X194218286Y41733857D01*
X194170667Y41686238D01*
X194075429Y41638619D01*
X193837333Y41638619D01*
X193742095Y41686238D01*
X193694476Y41733857D01*
X192361143Y48208619D02*
X192027809Y48684810D01*
X191789714Y48208619D02*
X191789714Y49208619D01*
X192170667Y49208619D01*
X192265905Y49161000D01*
X192313524Y49113381D01*
X192361143Y49018143D01*
X192361143Y48875286D01*
X192313524Y48780048D01*
X192265905Y48732429D01*
X192170667Y48684810D01*
X191789714Y48684810D01*
X193218286Y48875286D02*
X193218286Y48208619D01*
X192980190Y49256238D02*
X192742095Y48541952D01*
X193361143Y48541952D01*
X194170667Y49208619D02*
X193980190Y49208619D01*
X193884952Y49161000D01*
X193837333Y49113381D01*
X193742095Y48970524D01*
X193694476Y48780048D01*
X193694476Y48399095D01*
X193742095Y48303857D01*
X193789714Y48256238D01*
X193884952Y48208619D01*
X194075429Y48208619D01*
X194170667Y48256238D01*
X194218286Y48303857D01*
X194265905Y48399095D01*
X194265905Y48637190D01*
X194218286Y48732429D01*
X194170667Y48780048D01*
X194075429Y48827667D01*
X193884952Y48827667D01*
X193789714Y48780048D01*
X193742095Y48732429D01*
X193694476Y48637190D01*
X43166381Y69628143D02*
X42690190Y69294809D01*
X43166381Y69056714D02*
X42166381Y69056714D01*
X42166381Y69437667D01*
X42214000Y69532905D01*
X42261619Y69580524D01*
X42356857Y69628143D01*
X42499714Y69628143D01*
X42594952Y69580524D01*
X42642571Y69532905D01*
X42690190Y69437667D01*
X42690190Y69056714D01*
X42499714Y70485286D02*
X43166381Y70485286D01*
X42118762Y70247190D02*
X42833048Y70009095D01*
X42833048Y70628143D01*
X42166381Y70913857D02*
X42166381Y71580524D01*
X43166381Y71151952D01*
X43166381Y73128143D02*
X42690190Y72794809D01*
X43166381Y72556714D02*
X42166381Y72556714D01*
X42166381Y72937667D01*
X42214000Y73032905D01*
X42261619Y73080524D01*
X42356857Y73128143D01*
X42499714Y73128143D01*
X42594952Y73080524D01*
X42642571Y73032905D01*
X42690190Y72937667D01*
X42690190Y72556714D01*
X42499714Y73985286D02*
X43166381Y73985286D01*
X42118762Y73747190D02*
X42833048Y73509095D01*
X42833048Y74128143D01*
X42594952Y74651952D02*
X42547333Y74556714D01*
X42499714Y74509095D01*
X42404476Y74461476D01*
X42356857Y74461476D01*
X42261619Y74509095D01*
X42214000Y74556714D01*
X42166381Y74651952D01*
X42166381Y74842429D01*
X42214000Y74937667D01*
X42261619Y74985286D01*
X42356857Y75032905D01*
X42404476Y75032905D01*
X42499714Y74985286D01*
X42547333Y74937667D01*
X42594952Y74842429D01*
X42594952Y74651952D01*
X42642571Y74556714D01*
X42690190Y74509095D01*
X42785429Y74461476D01*
X42975905Y74461476D01*
X43071143Y74509095D01*
X43118762Y74556714D01*
X43166381Y74651952D01*
X43166381Y74842429D01*
X43118762Y74937667D01*
X43071143Y74985286D01*
X42975905Y75032905D01*
X42785429Y75032905D01*
X42690190Y74985286D01*
X42642571Y74937667D01*
X42594952Y74842429D01*
X192261143Y52228619D02*
X191927809Y52704810D01*
X191689714Y52228619D02*
X191689714Y53228619D01*
X192070667Y53228619D01*
X192165905Y53181000D01*
X192213524Y53133381D01*
X192261143Y53038143D01*
X192261143Y52895286D01*
X192213524Y52800048D01*
X192165905Y52752429D01*
X192070667Y52704810D01*
X191689714Y52704810D01*
X193118286Y52895286D02*
X193118286Y52228619D01*
X192880190Y53276238D02*
X192642095Y52561952D01*
X193261143Y52561952D01*
X193689714Y52228619D02*
X193880190Y52228619D01*
X193975429Y52276238D01*
X194023048Y52323857D01*
X194118286Y52466714D01*
X194165905Y52657190D01*
X194165905Y53038143D01*
X194118286Y53133381D01*
X194070667Y53181000D01*
X193975429Y53228619D01*
X193784952Y53228619D01*
X193689714Y53181000D01*
X193642095Y53133381D01*
X193594476Y53038143D01*
X193594476Y52800048D01*
X193642095Y52704810D01*
X193689714Y52657190D01*
X193784952Y52609571D01*
X193975429Y52609571D01*
X194070667Y52657190D01*
X194118286Y52704810D01*
X194165905Y52800048D01*
X191901143Y58428619D02*
X191567809Y58904810D01*
X191329714Y58428619D02*
X191329714Y59428619D01*
X191710667Y59428619D01*
X191805905Y59381000D01*
X191853524Y59333381D01*
X191901143Y59238143D01*
X191901143Y59095286D01*
X191853524Y59000048D01*
X191805905Y58952429D01*
X191710667Y58904810D01*
X191329714Y58904810D01*
X192805905Y59428619D02*
X192329714Y59428619D01*
X192282095Y58952429D01*
X192329714Y59000048D01*
X192424952Y59047667D01*
X192663048Y59047667D01*
X192758286Y59000048D01*
X192805905Y58952429D01*
X192853524Y58857190D01*
X192853524Y58619095D01*
X192805905Y58523857D01*
X192758286Y58476238D01*
X192663048Y58428619D01*
X192424952Y58428619D01*
X192329714Y58476238D01*
X192282095Y58523857D01*
X193472571Y59428619D02*
X193567810Y59428619D01*
X193663048Y59381000D01*
X193710667Y59333381D01*
X193758286Y59238143D01*
X193805905Y59047667D01*
X193805905Y58809571D01*
X193758286Y58619095D01*
X193710667Y58523857D01*
X193663048Y58476238D01*
X193567810Y58428619D01*
X193472571Y58428619D01*
X193377333Y58476238D01*
X193329714Y58523857D01*
X193282095Y58619095D01*
X193234476Y58809571D01*
X193234476Y59047667D01*
X193282095Y59238143D01*
X193329714Y59333381D01*
X193377333Y59381000D01*
X193472571Y59428619D01*
X54766381Y45228143D02*
X54290190Y44894809D01*
X54766381Y44656714D02*
X53766381Y44656714D01*
X53766381Y45037667D01*
X53814000Y45132905D01*
X53861619Y45180524D01*
X53956857Y45228143D01*
X54099714Y45228143D01*
X54194952Y45180524D01*
X54242571Y45132905D01*
X54290190Y45037667D01*
X54290190Y44656714D01*
X53766381Y46132905D02*
X53766381Y45656714D01*
X54242571Y45609095D01*
X54194952Y45656714D01*
X54147333Y45751952D01*
X54147333Y45990048D01*
X54194952Y46085286D01*
X54242571Y46132905D01*
X54337810Y46180524D01*
X54575905Y46180524D01*
X54671143Y46132905D01*
X54718762Y46085286D01*
X54766381Y45990048D01*
X54766381Y45751952D01*
X54718762Y45656714D01*
X54671143Y45609095D01*
X54766381Y47132905D02*
X54766381Y46561476D01*
X54766381Y46847190D02*
X53766381Y46847190D01*
X53909238Y46751952D01*
X54004476Y46656714D01*
X54052095Y46561476D01*
X52266381Y45228143D02*
X51790190Y44894809D01*
X52266381Y44656714D02*
X51266381Y44656714D01*
X51266381Y45037667D01*
X51314000Y45132905D01*
X51361619Y45180524D01*
X51456857Y45228143D01*
X51599714Y45228143D01*
X51694952Y45180524D01*
X51742571Y45132905D01*
X51790190Y45037667D01*
X51790190Y44656714D01*
X51266381Y46132905D02*
X51266381Y45656714D01*
X51742571Y45609095D01*
X51694952Y45656714D01*
X51647333Y45751952D01*
X51647333Y45990048D01*
X51694952Y46085286D01*
X51742571Y46132905D01*
X51837810Y46180524D01*
X52075905Y46180524D01*
X52171143Y46132905D01*
X52218762Y46085286D01*
X52266381Y45990048D01*
X52266381Y45751952D01*
X52218762Y45656714D01*
X52171143Y45609095D01*
X51361619Y46561476D02*
X51314000Y46609095D01*
X51266381Y46704333D01*
X51266381Y46942429D01*
X51314000Y47037667D01*
X51361619Y47085286D01*
X51456857Y47132905D01*
X51552095Y47132905D01*
X51694952Y47085286D01*
X52266381Y46513857D01*
X52266381Y47132905D01*
X6966381Y57232905D02*
X7775905Y57232905D01*
X7871143Y57280524D01*
X7918762Y57328143D01*
X7966381Y57423381D01*
X7966381Y57613858D01*
X7918762Y57709096D01*
X7871143Y57756715D01*
X7775905Y57804334D01*
X6966381Y57804334D01*
X7966381Y58804334D02*
X7966381Y58232905D01*
X7966381Y58518619D02*
X6966381Y58518619D01*
X7109238Y58423381D01*
X7204476Y58328143D01*
X7252095Y58232905D01*
X7061619Y59185286D02*
X7014000Y59232905D01*
X6966381Y59328143D01*
X6966381Y59566239D01*
X7014000Y59661477D01*
X7061619Y59709096D01*
X7156857Y59756715D01*
X7252095Y59756715D01*
X7394952Y59709096D01*
X7966381Y59137667D01*
X7966381Y59756715D01*
X29335667Y12725238D02*
X29478524Y12677619D01*
X29716620Y12677619D01*
X29811858Y12725238D01*
X29859477Y12772857D01*
X29907096Y12868095D01*
X29907096Y12963333D01*
X29859477Y13058571D01*
X29811858Y13106190D01*
X29716620Y13153810D01*
X29526143Y13201429D01*
X29430905Y13249048D01*
X29383286Y13296667D01*
X29335667Y13391905D01*
X29335667Y13487143D01*
X29383286Y13582381D01*
X29430905Y13630000D01*
X29526143Y13677619D01*
X29764239Y13677619D01*
X29907096Y13630000D01*
X30240429Y13677619D02*
X30478524Y12677619D01*
X30669001Y13391905D01*
X30859477Y12677619D01*
X31097572Y13677619D01*
X32002334Y12677619D02*
X31430905Y12677619D01*
X31716619Y12677619D02*
X31716619Y13677619D01*
X31621381Y13534762D01*
X31526143Y13439524D01*
X31430905Y13391905D01*
X10231143Y44868143D02*
X10278762Y44820524D01*
X10326381Y44677667D01*
X10326381Y44582429D01*
X10278762Y44439571D01*
X10183524Y44344333D01*
X10088286Y44296714D01*
X9897810Y44249095D01*
X9754952Y44249095D01*
X9564476Y44296714D01*
X9469238Y44344333D01*
X9374000Y44439571D01*
X9326381Y44582429D01*
X9326381Y44677667D01*
X9374000Y44820524D01*
X9421619Y44868143D01*
X9326381Y45201476D02*
X9326381Y45820524D01*
X9707333Y45487190D01*
X9707333Y45630048D01*
X9754952Y45725286D01*
X9802571Y45772905D01*
X9897810Y45820524D01*
X10135905Y45820524D01*
X10231143Y45772905D01*
X10278762Y45725286D01*
X10326381Y45630048D01*
X10326381Y45344333D01*
X10278762Y45249095D01*
X10231143Y45201476D01*
X9326381Y46725286D02*
X9326381Y46249095D01*
X9802571Y46201476D01*
X9754952Y46249095D01*
X9707333Y46344333D01*
X9707333Y46582429D01*
X9754952Y46677667D01*
X9802571Y46725286D01*
X9897810Y46772905D01*
X10135905Y46772905D01*
X10231143Y46725286D01*
X10278762Y46677667D01*
X10326381Y46582429D01*
X10326381Y46344333D01*
X10278762Y46249095D01*
X10231143Y46201476D01*
X12351143Y41803857D02*
X12303524Y41756238D01*
X12160667Y41708619D01*
X12065429Y41708619D01*
X11922571Y41756238D01*
X11827333Y41851476D01*
X11779714Y41946714D01*
X11732095Y42137190D01*
X11732095Y42280048D01*
X11779714Y42470524D01*
X11827333Y42565762D01*
X11922571Y42661000D01*
X12065429Y42708619D01*
X12160667Y42708619D01*
X12303524Y42661000D01*
X12351143Y42613381D01*
X13255905Y42708619D02*
X12779714Y42708619D01*
X12732095Y42232429D01*
X12779714Y42280048D01*
X12874952Y42327667D01*
X13113048Y42327667D01*
X13208286Y42280048D01*
X13255905Y42232429D01*
X13303524Y42137190D01*
X13303524Y41899095D01*
X13255905Y41803857D01*
X13208286Y41756238D01*
X13113048Y41708619D01*
X12874952Y41708619D01*
X12779714Y41756238D01*
X12732095Y41803857D01*
X13922571Y42708619D02*
X14017810Y42708619D01*
X14113048Y42661000D01*
X14160667Y42613381D01*
X14208286Y42518143D01*
X14255905Y42327667D01*
X14255905Y42089571D01*
X14208286Y41899095D01*
X14160667Y41803857D01*
X14113048Y41756238D01*
X14017810Y41708619D01*
X13922571Y41708619D01*
X13827333Y41756238D01*
X13779714Y41803857D01*
X13732095Y41899095D01*
X13684476Y42089571D01*
X13684476Y42327667D01*
X13732095Y42518143D01*
X13779714Y42613381D01*
X13827333Y42661000D01*
X13922571Y42708619D01*
X3466381Y40732905D02*
X4275905Y40732905D01*
X4371143Y40780524D01*
X4418762Y40828143D01*
X4466381Y40923381D01*
X4466381Y41113858D01*
X4418762Y41209096D01*
X4371143Y41256715D01*
X4275905Y41304334D01*
X3466381Y41304334D01*
X4466381Y42304334D02*
X4466381Y41732905D01*
X4466381Y42018619D02*
X3466381Y42018619D01*
X3609238Y41923381D01*
X3704476Y41828143D01*
X3752095Y41732905D01*
X3466381Y42637667D02*
X3466381Y43256715D01*
X3847333Y42923381D01*
X3847333Y43066239D01*
X3894952Y43161477D01*
X3942571Y43209096D01*
X4037810Y43256715D01*
X4275905Y43256715D01*
X4371143Y43209096D01*
X4418762Y43161477D01*
X4466381Y43066239D01*
X4466381Y42780524D01*
X4418762Y42685286D01*
X4371143Y42637667D01*
X3466381Y47432905D02*
X4275905Y47432905D01*
X4371143Y47480524D01*
X4418762Y47528143D01*
X4466381Y47623381D01*
X4466381Y47813858D01*
X4418762Y47909096D01*
X4371143Y47956715D01*
X4275905Y48004334D01*
X3466381Y48004334D01*
X4466381Y49004334D02*
X4466381Y48432905D01*
X4466381Y48718619D02*
X3466381Y48718619D01*
X3609238Y48623381D01*
X3704476Y48528143D01*
X3752095Y48432905D01*
X3466381Y49909096D02*
X3466381Y49432905D01*
X3942571Y49385286D01*
X3894952Y49432905D01*
X3847333Y49528143D01*
X3847333Y49766239D01*
X3894952Y49861477D01*
X3942571Y49909096D01*
X4037810Y49956715D01*
X4275905Y49956715D01*
X4371143Y49909096D01*
X4418762Y49861477D01*
X4466381Y49766239D01*
X4466381Y49528143D01*
X4418762Y49432905D01*
X4371143Y49385286D01*
X15544476Y57948619D02*
X15544476Y58948619D01*
X15925429Y58948619D01*
X16020667Y58901000D01*
X16068286Y58853381D01*
X16115905Y58758143D01*
X16115905Y58615286D01*
X16068286Y58520048D01*
X16020667Y58472429D01*
X15925429Y58424810D01*
X15544476Y58424810D01*
X16544476Y57948619D02*
X16544476Y58948619D01*
X16973047Y58853381D02*
X17020666Y58901000D01*
X17115904Y58948619D01*
X17354000Y58948619D01*
X17449238Y58901000D01*
X17496857Y58853381D01*
X17544476Y58758143D01*
X17544476Y58662905D01*
X17496857Y58520048D01*
X16925428Y57948619D01*
X17544476Y57948619D01*
X18544476Y58043857D02*
X18496857Y57996238D01*
X18354000Y57948619D01*
X18258762Y57948619D01*
X18115904Y57996238D01*
X18020666Y58091476D01*
X17973047Y58186714D01*
X17925428Y58377190D01*
X17925428Y58520048D01*
X17973047Y58710524D01*
X18020666Y58805762D01*
X18115904Y58901000D01*
X18258762Y58948619D01*
X18354000Y58948619D01*
X18496857Y58901000D01*
X18544476Y58853381D01*
X18734952Y57853381D02*
X19496857Y57853381D01*
X19687333Y58853381D02*
X19734952Y58901000D01*
X19830190Y58948619D01*
X20068286Y58948619D01*
X20163524Y58901000D01*
X20211143Y58853381D01*
X20258762Y58758143D01*
X20258762Y58662905D01*
X20211143Y58520048D01*
X19639714Y57948619D01*
X20258762Y57948619D01*
X20639714Y58853381D02*
X20687333Y58901000D01*
X20782571Y58948619D01*
X21020667Y58948619D01*
X21115905Y58901000D01*
X21163524Y58853381D01*
X21211143Y58758143D01*
X21211143Y58662905D01*
X21163524Y58520048D01*
X20592095Y57948619D01*
X21211143Y57948619D01*
X21501143Y65078619D02*
X21024952Y65078619D01*
X21024952Y66078619D01*
X22358286Y65078619D02*
X21786857Y65078619D01*
X22072571Y65078619D02*
X22072571Y66078619D01*
X21977333Y65935762D01*
X21882095Y65840524D01*
X21786857Y65792905D01*
X22977333Y66078619D02*
X23072572Y66078619D01*
X23167810Y66031000D01*
X23215429Y65983381D01*
X23263048Y65888143D01*
X23310667Y65697667D01*
X23310667Y65459571D01*
X23263048Y65269095D01*
X23215429Y65173857D01*
X23167810Y65126238D01*
X23072572Y65078619D01*
X22977333Y65078619D01*
X22882095Y65126238D01*
X22834476Y65173857D01*
X22786857Y65269095D01*
X22739238Y65459571D01*
X22739238Y65697667D01*
X22786857Y65888143D01*
X22834476Y65983381D01*
X22882095Y66031000D01*
X22977333Y66078619D01*
X1167095Y65878619D02*
X1167095Y66878619D01*
X1548048Y66878619D01*
X1643286Y66831000D01*
X1690905Y66783381D01*
X1738524Y66688143D01*
X1738524Y66545286D01*
X1690905Y66450048D01*
X1643286Y66402429D01*
X1548048Y66354810D01*
X1167095Y66354810D01*
X2167095Y65878619D02*
X2167095Y66545286D01*
X2167095Y66878619D02*
X2119476Y66831000D01*
X2167095Y66783381D01*
X2214714Y66831000D01*
X2167095Y66878619D01*
X2167095Y66783381D01*
X2595666Y66783381D02*
X2643285Y66831000D01*
X2738523Y66878619D01*
X2976619Y66878619D01*
X3071857Y66831000D01*
X3119476Y66783381D01*
X3167095Y66688143D01*
X3167095Y66592905D01*
X3119476Y66450048D01*
X2548047Y65878619D01*
X3167095Y65878619D01*
X4024238Y65926238D02*
X3929000Y65878619D01*
X3738523Y65878619D01*
X3643285Y65926238D01*
X3595666Y65973857D01*
X3548047Y66069095D01*
X3548047Y66354810D01*
X3595666Y66450048D01*
X3643285Y66497667D01*
X3738523Y66545286D01*
X3929000Y66545286D01*
X4024238Y66497667D01*
X4214714Y65783381D02*
X4976619Y65783381D01*
X5738524Y65878619D02*
X5167095Y65878619D01*
X5452809Y65878619D02*
X5452809Y66878619D01*
X5357571Y66735762D01*
X5262333Y66640524D01*
X5167095Y66592905D01*
X7328572Y4371429D02*
X6995238Y4371429D01*
X6995238Y3847619D02*
X6995238Y4847619D01*
X7471429Y4847619D01*
X7852381Y3847619D02*
X7852381Y4847619D01*
X8328571Y3847619D02*
X8328571Y4847619D01*
X8566666Y4847619D01*
X8709524Y4800000D01*
X8804762Y4704762D01*
X8852381Y4609524D01*
X8900000Y4419048D01*
X8900000Y4276190D01*
X8852381Y4085714D01*
X8804762Y3990476D01*
X8709524Y3895238D01*
X8566666Y3847619D01*
X8328571Y3847619D01*
X9852381Y3847619D02*
X9280952Y3847619D01*
X9566666Y3847619D02*
X9566666Y4847619D01*
X9471428Y4704762D01*
X9376190Y4609524D01*
X9280952Y4561905D01*
X7328572Y84371429D02*
X6995238Y84371429D01*
X6995238Y83847619D02*
X6995238Y84847619D01*
X7471429Y84847619D01*
X7852381Y83847619D02*
X7852381Y84847619D01*
X8328571Y83847619D02*
X8328571Y84847619D01*
X8566666Y84847619D01*
X8709524Y84800000D01*
X8804762Y84704762D01*
X8852381Y84609524D01*
X8900000Y84419048D01*
X8900000Y84276190D01*
X8852381Y84085714D01*
X8804762Y83990476D01*
X8709524Y83895238D01*
X8566666Y83847619D01*
X8328571Y83847619D01*
X9280952Y84752381D02*
X9328571Y84800000D01*
X9423809Y84847619D01*
X9661905Y84847619D01*
X9757143Y84800000D01*
X9804762Y84752381D01*
X9852381Y84657143D01*
X9852381Y84561905D01*
X9804762Y84419048D01*
X9233333Y83847619D01*
X9852381Y83847619D01*
X197328572Y4371429D02*
X196995238Y4371429D01*
X196995238Y3847619D02*
X196995238Y4847619D01*
X197471429Y4847619D01*
X197852381Y3847619D02*
X197852381Y4847619D01*
X198328571Y3847619D02*
X198328571Y4847619D01*
X198566666Y4847619D01*
X198709524Y4800000D01*
X198804762Y4704762D01*
X198852381Y4609524D01*
X198900000Y4419048D01*
X198900000Y4276190D01*
X198852381Y4085714D01*
X198804762Y3990476D01*
X198709524Y3895238D01*
X198566666Y3847619D01*
X198328571Y3847619D01*
X199233333Y4847619D02*
X199852381Y4847619D01*
X199519047Y4466667D01*
X199661905Y4466667D01*
X199757143Y4419048D01*
X199804762Y4371429D01*
X199852381Y4276190D01*
X199852381Y4038095D01*
X199804762Y3942857D01*
X199757143Y3895238D01*
X199661905Y3847619D01*
X199376190Y3847619D01*
X199280952Y3895238D01*
X199233333Y3942857D01*
M02*
