G04 #@! TF.FileFunction,Paste,Top*
%FSLAX46Y46*%
G04 Gerber Fmt 4.6, Leading zero omitted, Abs format (unit mm)*
G04 Created by KiCad (PCBNEW 4.0.1-stable) date 12/11/2016 23:05:32*
%MOMM*%
G01*
G04 APERTURE LIST*
%ADD10C,0.100000*%
%ADD11R,1.560000X1.860000*%
%ADD12R,0.710000X1.410000*%
%ADD13R,0.610000X1.410000*%
%ADD14R,0.510000X1.610000*%
%ADD15C,2.860000*%
%ADD16R,0.660000X0.610000*%
%ADD17R,0.610000X0.660000*%
%ADD18R,7.226000X3.924000*%
%ADD19R,3.670000X4.686000*%
%ADD20R,0.460000X1.410000*%
%ADD21R,1.410000X0.460000*%
%ADD22R,0.360000X0.760000*%
%ADD23R,0.760000X0.360000*%
%ADD24R,1.860000X1.560000*%
G04 APERTURE END LIST*
D10*
D11*
X72644000Y29406000D03*
X72644000Y33406000D03*
D12*
X84709000Y57271000D03*
D13*
X83259000Y57271000D03*
D12*
X79309000Y57271000D03*
X80759000Y57271000D03*
D14*
X80059000Y57171000D03*
X81379000Y57171000D03*
X82639000Y57171000D03*
X83959000Y57171000D03*
X83959000Y62761000D03*
X82639000Y62761000D03*
X81359000Y62761000D03*
X80059000Y62781000D03*
D15*
X78149000Y57771000D03*
X85869000Y57771000D03*
D16*
X83864000Y65771000D03*
X85364000Y65771000D03*
D17*
X32258000Y73709000D03*
X32258000Y75209000D03*
D16*
X160764000Y65971000D03*
X162264000Y65971000D03*
D18*
X96266000Y18960000D03*
D19*
X101473000Y35216000D03*
X91059000Y35216000D03*
D18*
X96012000Y75094000D03*
D19*
X90805000Y58838000D03*
X101219000Y58838000D03*
D16*
X81364000Y29755000D03*
X79864000Y29755000D03*
X78015000Y29755000D03*
X76515000Y29755000D03*
X190564000Y51471000D03*
X192064000Y51471000D03*
X193864000Y48971000D03*
X195364000Y48971000D03*
X190512000Y48971000D03*
X192012000Y48971000D03*
D17*
X32258000Y70621000D03*
X32258000Y72121000D03*
D20*
X80584000Y37771000D03*
X79314000Y37771000D03*
X78044000Y37771000D03*
X76774000Y37771000D03*
X76774000Y32371000D03*
X78044000Y32371000D03*
X79314000Y32371000D03*
X80584000Y32371000D03*
X194437000Y60141000D03*
X193167000Y60141000D03*
X191897000Y60141000D03*
X190627000Y60141000D03*
X190627000Y54741000D03*
X191897000Y54741000D03*
X193167000Y54741000D03*
X194437000Y54741000D03*
X190881000Y39755000D03*
X192151000Y39755000D03*
X193421000Y39755000D03*
X194691000Y39755000D03*
X194691000Y45155000D03*
X193421000Y45155000D03*
X192151000Y45155000D03*
X190881000Y45155000D03*
D21*
X22446000Y75094000D03*
X22446000Y73824000D03*
X22446000Y72554000D03*
X22446000Y71284000D03*
X27846000Y71284000D03*
X27846000Y72554000D03*
X27846000Y73824000D03*
X27846000Y75094000D03*
D16*
X80276000Y65823000D03*
X81776000Y65823000D03*
X157364000Y65971000D03*
X158864000Y65971000D03*
X193764000Y51471000D03*
X195264000Y51471000D03*
D22*
X51042000Y45757000D03*
X49542000Y45757000D03*
X31508000Y62775000D03*
X33008000Y62775000D03*
X90764000Y45471000D03*
X89264000Y45471000D03*
D23*
X71120000Y51611000D03*
X71120000Y53111000D03*
X119634000Y40943000D03*
X119634000Y42443000D03*
D22*
X108700000Y55409000D03*
X107200000Y55409000D03*
D23*
X153416000Y45007000D03*
X153416000Y46507000D03*
X153162000Y50595000D03*
X153162000Y52095000D03*
X172014000Y45221000D03*
X172014000Y46721000D03*
D22*
X179264000Y47971000D03*
X177764000Y47971000D03*
D12*
X162764000Y57681000D03*
D13*
X161314000Y57681000D03*
D12*
X157364000Y57681000D03*
X158814000Y57681000D03*
D14*
X158114000Y57581000D03*
X159434000Y57581000D03*
X160694000Y57581000D03*
X162014000Y57581000D03*
X162014000Y63171000D03*
X160694000Y63171000D03*
X159414000Y63171000D03*
X158114000Y63191000D03*
D15*
X156204000Y58181000D03*
X163924000Y58181000D03*
D11*
X45974000Y71316000D03*
X45974000Y75316000D03*
D24*
X35719000Y65061000D03*
X39719000Y65061000D03*
X185769000Y28231000D03*
X181769000Y28231000D03*
D11*
X174244000Y25151000D03*
X174244000Y21151000D03*
X173609000Y65601000D03*
X173609000Y69601000D03*
D24*
X182594000Y65696000D03*
X178594000Y65696000D03*
D11*
X75614000Y65671000D03*
X75614000Y61671000D03*
M02*
